<svg width="22" height="27" viewBox="0 0 22 27" fill="none" xmlns="http://www.w3.org/2000/svg">
<path d="M21 11C21 18.7778 11 25.4444 11 25.4444C11 25.4444 1 18.7778 1 11C1 8.34784 2.05357 5.8043 3.92893 3.92893C5.8043 2.05357 8.34784 1 11 1C13.6522 1 16.1957 2.05357 18.0711 3.92893C19.9464 5.8043 21 8.34784 21 11Z" stroke="black" stroke-width="2" stroke-linecap="round" stroke-linejoin="round"/>
<path d="M11 14.3337C12.841 14.3337 14.3333 12.8413 14.3333 11.0003C14.3333 9.15938 12.841 7.66699 11 7.66699C9.15906 7.66699 7.66667 9.15938 7.66667 11.0003C7.66667 12.8413 9.15906 14.3337 11 14.3337Z" stroke="black" stroke-width="2" stroke-linecap="round" stroke-linejoin="round"/>
</svg>
