<svg width="70" height="70" viewBox="0 0 70 70" fill="none" xmlns="http://www.w3.org/2000/svg">
<path d="M26.8724 53.1225C25.8211 52.521 24.8634 51.8961 23.8336 51.4308C23.4773 51.2712 22.866 51.3822 22.504 51.5944C21.735 52.0441 21.0517 52.6436 20.1991 53.2802C19.981 52.9259 19.763 52.5716 19.5236 52.1823C19.1926 52.4782 19.031 52.6067 18.885 52.7527C15.6535 55.9803 12.4298 59.2157 9.19046 62.4317C8.83617 62.7821 8.74078 63.0351 8.96465 63.5413C9.86402 65.5853 9.12038 67.9447 7.25934 69.1809C5.40997 70.4092 2.9396 70.1562 1.37446 68.5793C-0.173171 67.02 -0.420403 64.5925 0.778766 62.7509C1.99545 60.884 4.36264 60.1151 6.40668 61.0008C6.93034 61.2266 7.19899 61.1507 7.5786 60.7692C10.777 57.5435 13.9969 54.3392 17.2089 51.1272C17.3608 50.9753 17.5029 50.8137 17.6625 50.6424C17.3666 50.3251 17.0882 50.0273 16.7768 49.6944C17.2985 48.9975 17.791 48.3083 18.3166 47.6484C18.8052 47.0352 18.8305 46.459 18.4081 45.7854C17.8319 44.8685 17.3316 43.9029 16.7261 42.8264C16.3777 43.2021 16.0643 43.5642 15.7275 43.9029C14.2363 45.4 12.7627 46.9164 11.2248 48.3648C10.8763 48.6918 10.3137 48.8846 9.82509 48.9488C9.08534 49.0442 8.32029 49.0072 7.56886 48.9624C7.05104 48.9313 6.76682 49.0773 6.50207 49.562C5.68445 51.0571 3.88376 51.6722 2.29135 51.0824C0.706738 50.4964 -0.252986 48.8184 0.0584861 47.1792C0.381639 45.4837 1.87087 44.2572 3.5937 44.3157C4.90967 44.3604 5.92585 44.9736 6.54879 46.13C6.76877 46.5349 7.01405 46.603 7.43649 46.6614C9.04446 46.8911 10.2183 46.3422 11.2832 45.1021C12.5758 43.5954 14.065 42.2541 15.49 40.8622C15.8209 40.539 15.9981 40.2509 15.7917 39.7896C15.6847 39.5501 15.6613 39.2737 15.6087 39.0128C15.4744 38.3432 15.1104 37.946 14.3959 37.8604C13.5063 37.7553 12.6225 37.5976 11.7114 37.4574V32.507C12.603 32.3726 13.481 32.215 14.3667 32.1118C15.1104 32.0242 15.3966 31.5803 15.636 30.9165C16 29.9081 15.7333 29.256 14.9547 28.5415C13.2922 27.0153 11.7523 25.3548 10.1288 23.7857C9.86986 23.5346 9.43964 23.4353 9.06977 23.3341C8.82059 23.266 8.53637 23.3438 8.27162 23.3166C7.39171 23.229 6.76293 23.3867 6.2198 24.2763C5.4197 25.5864 3.70855 25.9641 2.26799 25.419C0.80602 24.872 -0.0855699 23.4626 0.019552 21.8682C0.116887 20.3751 1.22651 19.1098 2.75078 18.7516C4.22053 18.407 5.79736 19.0767 6.52348 20.4413C6.75514 20.8754 6.99264 21.0818 7.46374 20.9922C9.81341 20.5445 11.5246 21.4886 13.0002 23.2874C14.1156 24.6481 15.4705 25.8103 16.7417 27.0834C17.3958 25.9291 18.0674 24.8681 18.593 23.739C18.7449 23.412 18.593 22.8221 18.3828 22.4717C17.9214 21.7086 17.3335 21.0234 16.769 20.268C17.0629 19.9527 17.3394 19.6568 17.645 19.3297C17.497 19.1662 17.3627 19.0046 17.2148 18.8567C14.0047 15.6446 10.7868 12.4365 7.58638 9.21272C7.22235 8.84479 6.96149 8.71437 6.41836 8.95381C4.37627 9.85319 2.01297 9.09397 0.782659 7.22903C-0.435976 5.37577 -0.175118 2.90735 1.4095 1.34999C2.97659 -0.193742 5.40413 -0.433187 7.23987 0.771822C9.10481 1.99824 9.83872 4.34986 8.98801 6.41142C8.85174 6.74041 8.6415 6.99348 9.01721 7.3653C12.4492 10.7681 15.8599 14.1943 19.3445 17.6809C19.6014 17.3285 19.8409 16.9995 20.1154 16.6258C20.9544 17.2526 21.6455 17.7315 22.2957 18.2629C22.9283 18.7788 23.5221 18.8197 24.221 18.3758C25.0561 17.8463 25.936 17.3869 26.849 16.8691C26.6913 16.6939 26.5434 16.5148 26.3798 16.3513C24.8186 14.7861 23.2671 13.2112 21.6825 11.6695C21.1899 11.1906 20.97 10.6766 21.0011 9.99335C21.042 9.09592 21.042 8.1946 20.9914 7.29911C20.9777 7.05578 20.7753 6.72873 20.565 6.60609C19.07 5.73007 18.3789 4.19607 18.8072 2.59004C19.2179 1.04631 20.5826 -0.00101866 22.1828 0.00287475C23.7791 0.00482145 25.1378 1.05604 25.5486 2.60951C25.971 4.2097 25.278 5.72813 23.7713 6.61582C23.563 6.73846 23.3994 7.06356 23.3547 7.32053C23.0237 9.18741 23.6214 10.6319 25.134 11.8602C26.5025 12.9718 27.651 14.354 28.9339 15.5765C29.1442 15.777 29.59 15.9133 29.8644 15.8393C31.7664 15.3273 32.0097 15.8451 32.2978 13.1996C32.3523 12.6993 32.4536 12.2048 32.5334 11.6987H37.4819C37.622 12.6331 37.7719 13.5422 37.8926 14.4552C37.9744 15.0665 38.317 15.4149 38.8913 15.5609C39.3605 15.6797 39.8296 15.8237 40.3085 15.8802C40.5285 15.9055 40.838 15.8198 40.9918 15.668C42.7944 13.8984 44.5815 12.1133 46.3511 10.3107C46.5282 10.1296 46.608 9.8162 46.6508 9.55145C46.7015 9.24387 46.6411 8.92072 46.6664 8.6073C46.754 7.57554 46.6723 6.76766 45.588 6.0941C44.2817 5.28428 44.0092 3.52446 44.6224 2.10531C45.2278 0.703687 46.6547 -0.129501 48.2082 0.0165017C49.6702 0.152771 50.8927 1.26044 51.2412 2.7594C51.576 4.19802 50.9239 5.75733 49.5943 6.48734C49.1232 6.74625 48.948 7.01295 48.9811 7.54634C49.0336 8.41847 49.0628 9.30227 48.9694 10.1666C48.9168 10.6533 48.7124 11.2178 48.3834 11.5643C46.8455 13.1859 45.2414 14.7433 43.6627 16.324C43.4933 16.4934 43.3317 16.6705 43.1546 16.8555C44.1941 17.4512 45.1714 18.0877 46.2206 18.5705C46.5535 18.7243 47.1414 18.5919 47.4899 18.3856C48.2569 17.9281 48.9441 17.3383 49.7189 16.7601C50.0323 17.0501 50.3476 17.3383 50.6961 17.6614C52.3216 16.032 53.9315 14.4143 55.5434 12.7985C57.2779 11.0621 59.0027 9.31784 60.7547 7.60085C61.1441 7.2193 61.2667 6.93703 61.0195 6.37248C60.1902 4.48224 60.8112 2.28052 62.4367 1.00932C64.0758 -0.27161 66.3145 -0.331958 68.0023 0.86137C69.6959 2.05859 70.3928 4.18439 69.7329 6.15056C69.0749 8.11283 67.2139 9.42491 65.164 9.3159C64.6403 9.28864 64.0875 9.18547 63.6164 8.96938C63.1141 8.73773 62.8299 8.79029 62.4386 9.18547C59.246 12.415 56.0242 15.6193 52.8141 18.8333C52.6603 18.9871 52.5124 19.1487 52.3469 19.3219C52.6389 19.6354 52.9173 19.9332 53.2307 20.27C52.7324 20.9397 52.2418 21.5976 51.7512 22.2556C51.1322 23.0849 51.1361 23.3828 51.6772 24.2899C52.1717 25.1192 52.6292 25.968 53.1334 26.8615C54.8231 25.1718 56.507 23.5307 58.1383 21.8371C58.7224 21.2317 59.3317 20.8871 60.1843 20.9864C60.5678 21.0311 60.963 20.9727 61.3485 20.9981C62.3958 21.0662 63.2329 21.0117 63.9239 19.8943C64.7279 18.5919 66.5111 18.3428 67.9205 18.9657C69.3105 19.5809 70.1417 21.0389 69.9743 22.5749C69.8147 24.0407 68.7031 25.2477 67.2002 25.5825C65.7714 25.9018 64.1926 25.2282 63.4879 23.8947C63.2387 23.4236 62.9486 23.3711 62.4873 23.3068C60.7021 23.0557 59.3687 23.6378 58.2045 25.0452C57.0638 26.4235 55.7011 27.6227 54.4124 28.8744C54.0911 29.1878 54.0211 29.4701 54.1359 29.8964C54.6829 31.9249 54.6732 31.9288 56.762 32.2714C57.2643 32.3532 57.7665 32.431 58.2941 32.5128V37.4652C57.4044 37.5995 56.5265 37.7553 55.6407 37.8565C54.8951 37.9421 54.6245 38.3918 54.3695 39.0459C53.8906 40.2685 54.2508 41.0686 55.2008 41.9134C56.7406 43.2839 58.1325 44.8198 59.6139 46.2565C59.8281 46.4648 60.1804 46.5583 60.488 46.6322C60.7411 46.6926 61.0195 46.6361 61.2862 46.6459C62.3335 46.6809 63.2309 46.7451 63.9376 45.5401C64.7046 44.23 66.5228 43.9925 67.9303 44.6174C69.3183 45.2345 70.1476 46.7004 69.9782 48.2305C69.8147 49.6963 68.7011 50.8994 67.1983 51.2342C65.7694 51.5515 64.1887 50.8741 63.4918 49.5387C63.2407 49.0578 62.9584 48.9527 62.4834 48.9683C61.6346 48.9955 60.782 48.9449 59.9332 48.9858C59.2674 49.0189 58.7846 48.7736 58.3272 48.3083C56.6258 46.5758 54.899 44.8705 53.1412 43.1145C52.5279 44.1969 51.8836 45.217 51.3813 46.3013C51.2412 46.605 51.4183 47.1656 51.6266 47.5005C52.0977 48.2597 52.6759 48.9488 53.2365 49.7022C52.9407 50.0175 52.6623 50.3154 52.3547 50.6424C52.5221 50.8235 52.6778 51.0006 52.8433 51.1661C56.0378 54.3626 59.2382 57.5513 62.4211 60.7575C62.789 61.1293 63.0499 61.2461 63.5891 61.0086C65.6254 60.1151 68.0062 60.8801 69.2229 62.7373C70.4259 64.573 70.1845 67.0025 68.6447 68.5677C67.0893 70.1484 64.615 70.4092 62.7618 69.1887C60.9007 67.9622 60.1434 65.595 61.0292 63.553C61.2433 63.0604 61.1908 62.8035 60.8267 62.4414C57.4804 59.1242 54.1534 55.7856 50.8187 52.4548C50.7856 52.4217 50.7409 52.3984 50.6533 52.3361C50.3691 52.6047 50.0751 52.8831 49.7305 53.2101C49.055 52.7059 48.3659 52.2232 47.7099 51.6936C47.0772 51.1817 46.4834 51.1447 45.7846 51.5924C44.9533 52.1278 44.0695 52.5794 43.1585 53.0972C43.3259 53.2783 43.4777 53.4554 43.6413 53.6189C45.2375 55.2172 46.8572 56.794 48.4146 58.4292C48.7299 58.7602 48.9304 59.3014 48.9713 59.7666C49.057 60.7069 49.0122 61.6588 48.9888 62.6069C48.9811 62.9826 49.0725 63.1987 49.4385 63.3933C50.9316 64.1856 51.6149 65.7488 51.212 67.3159C50.8051 68.9044 49.4327 69.9693 47.8052 69.9634C46.2128 69.9557 44.856 68.8967 44.4511 67.3412C44.0403 65.7664 44.7178 64.1934 46.1953 63.4031C46.5438 63.2162 46.6275 63.0157 46.682 62.6361C46.9604 60.7536 46.3647 59.3208 44.8638 58.0944C43.5167 56.9945 42.3564 55.6591 41.1358 54.4074C40.8322 54.0959 40.5596 54.0531 40.1236 54.0939C38.4533 54.2477 37.6571 55.0926 37.696 56.7765C37.7077 57.2534 37.5617 57.7343 37.4799 58.254H32.5256C32.3952 57.3994 32.2375 56.5273 32.1362 55.6455C32.0525 54.9096 31.632 54.6079 30.9702 54.349C29.7574 53.8759 28.9437 54.1971 28.0929 55.1529C26.7225 56.6928 25.1865 58.0827 23.7499 59.5681C23.5279 59.7978 23.4189 60.1754 23.3527 60.5025C23.2865 60.8295 23.3625 61.1819 23.3333 61.5187C23.2476 62.4862 23.3702 63.2123 24.3708 63.8294C25.679 64.6353 25.9886 66.3737 25.3987 67.8046C24.8147 69.2218 23.4131 70.0725 21.8518 69.9557C20.3626 69.8428 19.105 68.7215 18.7566 67.1952C18.4276 65.7586 19.0875 64.1856 20.419 63.4751C20.9135 63.2103 21.1004 62.9164 21.0069 62.4044C20.5514 59.9087 21.4878 58.0457 23.4462 56.4923C24.6882 55.5072 25.7258 54.2652 26.8724 53.1206V53.1225ZM21.0128 35.0201C20.9972 42.696 27.3026 48.9702 35.0388 48.9761C42.6601 48.9799 48.9674 42.7077 48.9966 35.0941C49.0258 27.3813 42.8022 21.0273 35.1867 20.9961C27.3104 20.963 21.0303 27.1788 21.0128 35.0221V35.0201Z" fill="#CCCCCC"/>
<path d="M35.029 46.64C28.5348 46.6361 23.3274 41.4034 23.343 34.8994C23.3586 28.5162 28.6049 23.3282 35.0505 23.3263C41.4298 23.3243 46.6898 28.6077 46.6625 34.9948C46.6372 41.4267 41.424 46.6439 35.029 46.6381V46.64ZM37.3281 40.7804C37.3281 39.1744 37.33 37.6248 37.3242 36.0752C37.3242 35.9351 37.2697 35.7891 37.2171 35.6567C36.4677 33.7645 35.7162 31.8723 34.9609 29.984C34.739 29.4312 34.3302 29.1469 33.7228 29.1547C33.0668 29.1625 32.4107 29.1761 31.7566 29.1508C31.0227 29.1236 30.5828 29.4487 30.3219 30.1281C29.7652 31.5745 29.2142 33.0267 28.5835 34.4439C28.1377 35.4465 27.9489 36.4549 27.9956 37.545C28.0423 38.6235 28.0053 39.7058 28.0053 40.7785H30.3511V37.3718H35.0232V40.7804H37.3281ZM40.7835 40.7804V29.2131H38.5389V40.7804H40.7835Z" fill="#CCCCCC"/>
<path d="M34.4314 34.9559H30.9079C31.3498 33.8561 31.7567 32.8009 32.2044 31.7653C32.2647 31.6271 32.5256 31.5161 32.6989 31.5064C32.8429 31.4986 33.0765 31.6251 33.131 31.7517C33.5749 32.7912 33.9856 33.8444 34.4314 34.9559Z" fill="#CCCCCC"/>
</svg>
