<svg width="50" height="51" viewBox="0 0 50 51" fill="none" xmlns="http://www.w3.org/2000/svg">
<path d="M26.4665 50.976H23.537C23.4115 50.9488 23.2869 50.9049 23.1604 50.8954C19.6543 50.659 16.322 49.7519 13.2659 48.0318C5.07788 43.4273 0.613498 36.4037 0.04538 27.0198C-0.252803 22.092 0.920051 17.4361 3.51791 13.2291C8.26687 5.54436 15.2057 1.44198 24.2349 0.999415C28.1636 0.806904 31.951 1.58323 35.4926 3.30537C43.238 7.07085 47.9608 13.1998 49.6077 21.6682C49.7897 22.6046 49.8713 23.562 50 24.5088V27.4383C49.9718 27.5785 49.9268 27.7177 49.9173 27.8589C49.6746 31.3472 48.7518 34.6512 47.0642 37.7063C43.1753 44.7476 37.2691 49.0603 29.3573 50.5805C28.4042 50.7636 27.4312 50.8463 26.4676 50.975L26.4665 50.976ZM44.3471 13.0282C44.2989 12.9414 44.2351 12.797 44.1462 12.6704C41.7482 9.25648 38.6711 6.64502 34.8941 4.87057C34.7173 4.78687 34.4474 4.77327 34.2664 4.84337C31.5764 5.90113 28.8949 6.98192 26.2071 8.04596C25.9444 8.14954 25.8304 8.27718 25.8314 8.57537C25.843 11.3417 25.8325 14.108 25.8492 16.8743C25.8503 17.0678 25.9622 17.3252 26.1098 17.4445C28.4743 19.3581 30.8503 21.2571 33.2369 23.1424C33.3792 23.2544 33.6616 23.3004 33.8353 23.2439C36.6592 22.3211 39.4788 21.3816 42.2912 20.4242C42.4596 20.3667 42.6479 20.1512 42.6929 19.9754C43.0654 18.4949 43.4065 17.0061 43.757 15.5204C43.9474 14.7138 44.1389 13.9081 44.3481 13.0272L44.3471 13.0282ZM24.1658 12.7342C24.1658 11.3678 24.1585 10.0014 24.171 8.635C24.1742 8.33996 24.1072 8.17047 23.8038 8.05224C21.0971 6.99552 18.3978 5.91683 15.6922 4.85801C15.5321 4.79524 15.2977 4.77954 15.1481 4.84964C11.323 6.64188 8.21456 9.28787 5.80503 12.7541C5.71819 12.8797 5.68157 13.0931 5.7161 13.2438C6.23399 15.4911 6.77596 17.7322 7.28967 19.9796C7.35558 20.2673 7.49683 20.3751 7.75107 20.4588C10.5561 21.3847 13.3559 22.3263 16.1651 23.2408C16.3482 23.3004 16.6484 23.2376 16.8033 23.1163C19.1636 21.2518 21.5125 19.3727 23.8488 17.4769C24.0172 17.3399 24.148 17.0521 24.1522 16.8314C24.1794 15.466 24.1658 14.0986 24.1658 12.7321V12.7342ZM13.7116 40.0573C13.7859 39.9934 13.9198 39.9118 14.0066 39.7967C15.3678 37.9919 16.7259 36.1851 18.0703 34.3677C18.1676 34.2359 18.2178 34.0057 18.1791 33.8477C17.4802 30.9925 16.7698 28.1404 16.0406 25.2925C15.9956 25.1167 15.801 24.9043 15.6294 24.8468C12.8463 23.903 10.0581 22.9771 7.26456 22.0679C7.11808 22.0208 6.84501 22.0909 6.74875 22.206C5.1417 24.106 3.55034 26.0196 1.96736 27.9395C1.86901 28.0588 1.80623 28.2607 1.82193 28.4145C2.18812 31.9645 3.32958 35.2487 5.19611 38.2901C5.41791 38.6521 5.67634 38.8018 6.06869 38.8614C7.67574 39.1031 9.2786 39.3646 10.8836 39.6178C11.798 39.7622 12.7135 39.9024 13.7106 40.0573H13.7116ZM48.2904 28.3203C48.1764 28.1467 48.1031 28.0075 48.0048 27.8893C46.4354 26.0018 44.8587 24.1186 43.2935 22.2269C43.1261 22.024 42.9911 21.9612 42.7222 22.0522C39.9392 22.9907 37.1478 23.9083 34.3668 24.852C34.1963 24.9095 34.0027 25.123 33.9577 25.2987C33.2285 28.1456 32.5191 30.9967 31.8181 33.8509C31.7826 33.9963 31.8181 34.2108 31.9071 34.329C33.2798 36.1652 34.6619 37.993 36.0586 39.8103C36.1528 39.9328 36.3882 40.0353 36.5378 40.0123C39.0907 39.6231 41.6414 39.2182 44.1891 38.7934C44.3753 38.762 44.5888 38.5935 44.6955 38.4282C45.9039 36.5617 46.8267 34.555 47.4084 32.4123C47.7736 31.0689 48.0006 29.6868 48.2894 28.3193L48.2904 28.3203ZM24.9892 35.1472C23.3131 35.1472 21.638 35.1367 19.9619 35.1597C19.76 35.1629 19.4932 35.2916 19.3719 35.4506C18.0473 37.1811 16.7531 38.9346 15.4316 40.6672C15.2245 40.9382 15.2391 41.115 15.417 41.3902C16.8985 43.6846 18.3737 45.9843 19.8238 48.2986C20.0634 48.6816 20.3449 48.85 20.7749 48.9264C23.9053 49.483 27.0189 49.4296 30.1232 48.7349C30.4392 48.6648 30.6254 48.5236 30.7834 48.2442C32.0703 45.9655 33.3676 43.693 34.6755 41.4268C34.8324 41.1548 34.8544 40.9738 34.6451 40.7028C33.3038 38.965 31.9803 37.2114 30.6662 35.4537C30.4894 35.2162 30.3042 35.1388 30.0175 35.1409C28.3414 35.1535 26.6664 35.1472 24.9903 35.1472H24.9892ZM25.0028 18.7073C22.587 20.6387 20.2099 22.5335 17.8475 24.4471C17.7292 24.5434 17.6665 24.8196 17.7062 24.9807C18.3695 27.6947 19.0559 30.4024 19.7265 33.1143C19.7904 33.3738 19.8835 33.4889 20.1754 33.4878C23.3958 33.4773 26.6172 33.4784 29.8376 33.4868C30.0949 33.4868 30.21 33.4072 30.2718 33.1561C30.9466 30.4286 31.6298 27.7031 32.3162 24.9786C32.3789 24.7306 32.3538 24.5611 32.1257 24.3979C31.703 24.0956 31.3086 23.7534 30.9027 23.428C28.9482 21.8639 26.9938 20.2997 25.0028 18.7073ZM32.2952 3.82222C27.3694 2.26643 22.586 2.26539 17.7156 3.82222C17.8579 3.8986 17.9123 3.93417 17.972 3.95823C20.2214 4.85069 22.4698 5.74733 24.7266 6.622C24.9097 6.69315 25.1723 6.66385 25.3627 6.58957C26.8767 6.00053 28.3822 5.39056 29.8899 4.78582C30.6505 4.48136 31.4122 4.17585 32.2952 3.82117V3.82222ZM7.071 40.6997C9.87079 44.2203 13.3925 46.6602 17.7554 48.1406C16.3733 45.9759 15.0759 43.9378 13.7639 41.9091C13.6917 41.7982 13.5065 41.7271 13.3621 41.7009C12.6434 41.5712 11.9215 41.4613 11.2006 41.3483C9.82475 41.1318 8.44788 40.9162 7.071 40.7007V40.6997ZM32.8738 47.9324C36.9825 46.3965 40.3075 44.0393 43.0413 40.7384C42.8562 40.7384 42.7442 40.7237 42.6364 40.7405C40.7448 41.0366 38.8553 41.3494 36.9605 41.6256C36.543 41.6863 36.3045 41.8662 36.1203 42.2314C35.8431 42.7807 35.5156 43.3059 35.2101 43.8416C34.4547 45.164 33.6993 46.4865 32.8738 47.9324ZM45.6047 15.0643C45.5482 15.2484 45.522 15.3195 45.5042 15.3917C45.114 17.0521 44.731 18.7136 44.3272 20.3709C44.2581 20.6534 44.3021 20.8469 44.4904 21.0708C45.6674 22.4613 46.8288 23.8643 47.9912 25.2674C48.0707 25.3626 48.1157 25.4871 48.1764 25.598L48.3187 25.4839C48.2235 21.8419 47.3634 18.3976 45.6036 15.0653L45.6047 15.0643ZM1.68382 25.5446C1.78008 25.4871 1.82925 25.4735 1.85645 25.441C3.10882 23.9438 4.36224 22.4487 5.59996 20.94C5.68994 20.8302 5.70877 20.6115 5.67738 20.4619C5.51103 19.6667 5.32061 18.8779 5.13438 18.0869C4.90629 17.1149 4.67507 16.144 4.41351 15.0381C2.64533 18.3966 1.77903 21.8356 1.68382 25.5457V25.5446Z" fill="#ABABAB"/>
</svg>
