<svg width="70" height="68" viewBox="0 0 70 68" fill="none" xmlns="http://www.w3.org/2000/svg">
<path d="M69.9981 35.7854C69.8205 37.0665 69.6877 38.357 69.4558 39.6288C68.1166 46.9715 64.6791 53.177 59.2441 58.2772C58.8888 58.6101 58.7504 58.8607 58.9075 59.3713C59.4461 61.1238 58.7765 62.8986 57.2747 63.9254C55.743 64.9709 53.8503 64.9223 52.3896 63.7459C52.0548 63.4765 51.8341 63.5065 51.4919 63.6692C41.5327 68.4234 31.5679 68.4047 21.6125 63.6598C21.2628 63.4934 21.0346 63.4915 20.7055 63.7234C19.2354 64.7539 17.4923 64.7483 16.0391 63.7571C14.5635 62.7528 13.9127 61.0938 14.3447 59.3433C14.4401 58.9599 14.3615 58.7354 14.0754 58.4661C7.03008 51.8267 3.35875 43.6705 3.13806 33.9825C3.12684 33.5261 3.00153 33.3242 2.56763 33.1483C0.789011 32.432 -0.204099 30.6946 0.0352944 28.8318C0.28404 26.883 1.61193 25.5046 3.58131 25.239C4.09003 25.1698 4.25274 24.9323 4.37057 24.4965C5.18039 21.4891 6.42599 18.6669 8.05499 16.0149C8.50572 15.2798 9.12478 15.1321 9.68773 15.6109C10.1328 15.9887 10.1665 16.4693 9.76254 17.1389C8.37854 19.4281 7.28818 21.8482 6.51763 24.4105C6.39419 24.8219 6.28759 25.2371 6.19968 25.5495C6.71775 26.1105 7.16287 26.6211 7.64727 27.0924C7.77819 27.2196 8.04751 27.3019 8.22518 27.2664C12.1845 26.4491 16.1888 26.0582 20.2267 25.9553C20.4436 25.9497 20.7316 25.7702 20.8551 25.585C21.8837 24.0495 23.3051 23.3837 25.1268 23.6306C25.5326 23.6867 25.7439 23.5782 25.9702 23.2734C27.8891 20.683 30.0624 18.3246 32.49 16.2056C32.7724 15.9588 32.7855 15.7624 32.7107 15.3958C32.5648 14.6739 32.5741 13.922 32.4881 13.187C32.4657 13 32.3796 12.74 32.2375 12.6559C29.0543 10.7669 25.6747 9.32867 22.1287 8.30563C20.1126 10.7258 18.4144 11.1447 15.8446 9.79249C14.9394 10.7276 14.0006 11.6833 13.0804 12.6577C12.6932 13.0673 12.2799 13.2581 11.7506 12.9701C11.1147 12.6241 10.9745 11.9209 11.4925 11.3673C12.3772 10.419 13.2973 9.50073 14.2269 8.59926C14.4868 8.34678 14.5766 8.16162 14.455 7.78757C13.8304 5.86681 14.4457 4.06948 16.0522 2.99221C17.6551 1.91494 19.5178 2.02903 21.0889 3.34382C21.3806 3.58696 21.577 3.54768 21.8688 3.4018C26.6061 1.05275 31.6353 -0.0488381 36.9075 0.00165901C41.774 0.0502859 46.4347 1.07519 50.8317 3.19981C51.187 3.37187 51.4358 3.4205 51.8005 3.13622C53.2406 2.01593 55.0024 1.97292 56.5117 2.95107C57.9985 3.91612 58.741 5.61806 58.3258 7.32561C58.1986 7.84368 58.3108 8.14292 58.7017 8.41972C58.8308 8.51136 58.9561 8.61796 59.059 8.73766C59.794 9.60359 60.5421 10.0113 61.8269 9.7102C63.4859 9.31931 64.8456 10.1946 65.7321 11.6291C66.6242 13.0729 66.6148 14.5748 65.6909 16.0092C65.4422 16.3945 65.4384 16.647 65.661 17.0323C68.1223 21.3264 69.4894 25.9591 69.8803 30.8872C69.8971 31.1079 69.9589 31.3248 70 31.5437V35.7817L69.9981 35.7854ZM23.2228 31.7269C23.1667 31.8018 23.1331 31.8336 23.1144 31.8728C19.4524 39.425 18.031 47.3867 18.7697 55.7374C18.7866 55.9356 19.0746 56.2106 19.2878 56.2704C20.193 56.5304 20.986 56.9643 21.5415 57.7199C21.8145 58.0902 22.0464 58.0771 22.3962 57.9144C25.4185 56.4967 28.5362 55.253 31.4501 53.6371C38.3364 49.8199 44.1829 44.7253 49.1222 38.5927C49.3579 38.2991 49.328 38.1083 49.2195 37.7604C48.967 36.9525 48.7482 36.1071 48.7108 35.2674C48.6883 34.7699 48.5686 34.5623 48.1572 34.3603C43.3974 32.0224 38.4225 30.3149 33.2269 29.2619C31.6745 28.9477 30.1035 28.727 28.5662 28.4671C27.5394 31.1771 25.8805 32.1702 23.2247 31.7288L23.2228 31.7269ZM57.4823 57.0896C57.5085 57.0728 57.5684 57.041 57.6188 56.9961C60.7104 54.1926 63.1305 50.8915 64.9428 47.1342C65.1541 46.6947 64.9858 46.4871 64.7053 46.2084C62.0832 43.6013 59.2628 41.2298 56.2218 39.1238C55.9711 38.9499 55.7692 38.6376 55.339 38.9443C54.9294 39.2361 55.0398 39.5241 55.1127 39.8794C55.4419 41.4598 55.7823 43.0383 56.0647 44.6262C56.19 45.3256 55.8215 45.7651 55.1969 45.8474C54.5628 45.9297 54.1701 45.5388 54.0167 44.7234C53.71 43.1019 53.3846 41.4841 53.076 39.9037C52.7188 39.8738 52.513 39.8663 52.311 39.8364C52.0866 39.8027 51.8379 39.7971 51.6471 39.6943C51.1646 39.4362 50.9009 39.6176 50.5848 40.0103C45.3911 46.4478 39.2211 51.7575 31.9495 55.7019C29.0805 57.2579 26.0226 58.468 23.0582 59.852C22.8301 59.9586 22.5664 60.1755 22.4972 60.3962C22.37 60.7983 22.3737 61.2416 22.3195 61.7035C22.3812 61.7409 22.4504 61.7952 22.529 61.8326C31.8485 66.2801 41.1736 66.2894 50.5118 61.8812C50.8765 61.7091 50.9102 61.5072 50.8728 61.1406C50.6409 58.9225 51.7593 57.1756 53.8465 56.5192C54.2299 56.3976 54.3403 56.2012 54.3552 55.8534C54.417 54.2618 54.4918 52.6702 54.5479 51.0767C54.5759 50.2837 54.95 49.8442 55.6102 49.8629C56.2423 49.8816 56.6108 50.3024 56.5958 51.0767C56.5659 52.5336 56.5939 53.9999 56.42 55.4419C56.3115 56.3471 56.506 56.8652 57.4805 57.084L57.4823 57.0896ZM5.0981 33.4027C5.61055 42.6568 8.95645 50.6241 15.5192 57.0915C16.6713 56.8184 16.7611 56.1489 16.6825 55.2567C16.3047 51.0131 16.5591 46.7938 17.3726 42.6119C18.1469 38.6394 19.4056 34.8278 21.1637 31.1808C21.2647 30.9714 21.3956 30.6684 21.317 30.4982C20.9448 29.6865 20.5053 28.9066 20.0546 28.0444C19.9648 28.0444 19.7348 28.0238 19.5104 28.0481C16.2299 28.4072 12.9513 28.7888 9.66902 29.1217C8.75633 29.2152 8.22705 29.419 8.06808 30.5206C7.84739 32.058 6.62236 32.8641 5.0981 33.4027V33.4027ZM57.0035 9.63165C54.5872 11.1522 52.6028 10.8211 50.813 8.68342C50.7064 8.55625 50.3791 8.50762 50.1958 8.56186C46.9789 9.52317 43.9341 10.881 41.0203 12.5455C40.6574 12.7531 40.6163 12.9794 40.6275 13.3628C40.6425 13.9894 40.6275 14.644 40.4554 15.2387C40.3114 15.7399 40.3956 15.9999 40.7696 16.3328C45.2115 20.2753 48.7762 24.9024 51.4526 30.2027C51.8771 31.0424 52.2231 31.8373 53.3808 31.5942C53.4014 31.5904 53.4276 31.5979 53.4482 31.6072C53.826 31.7718 54.0018 31.5867 54.1907 31.265C56.6669 27.0513 58.6269 22.6132 60.0745 17.945C60.2017 17.5335 60.1026 17.3521 59.7753 17.1146C58.8252 16.4263 58.2996 15.4557 58.1369 14.3036C57.9892 13.2525 58.2641 12.2799 58.8401 11.3504C58.2229 10.7706 57.6282 10.2133 57.0073 9.63165H57.0035ZM56.7941 36.786C59.9436 39.3763 62.9959 41.8881 66.0519 44.4036C66.1136 44.239 66.2202 43.9678 66.3137 43.6929C67.1591 41.2036 67.6715 38.6469 67.8529 36.0229C68.2906 29.7332 67.0581 23.8045 64.0021 18.276C63.8824 18.0591 63.527 17.743 63.4223 17.7897C62.9603 17.9955 62.2627 17.6214 62.0327 18.4574C61.6848 19.7255 61.2285 20.9673 60.7702 22.2036C59.4798 25.6879 57.8732 29.0225 56.0048 32.2338C55.887 32.4376 55.8234 32.8379 55.9394 32.9875C56.8614 34.1733 57.0896 35.4824 56.7941 36.7841V36.786ZM27.4216 24.7434C27.6928 25.1829 27.9845 25.5457 28.1547 25.9591C28.3137 26.3443 28.5643 26.4229 28.9271 26.4902C31.4969 26.9578 34.0853 27.3561 36.6251 27.9565C41.0203 28.9945 45.2134 30.6179 49.2663 32.6116C49.472 32.7126 49.7937 32.6509 50.0274 32.5704C50.0985 32.5461 50.1322 32.1627 50.0555 32.0056C47.4109 26.4996 43.7882 21.7285 39.208 17.6887C39.0696 17.5672 38.7385 17.5129 38.5758 17.5915C37.2087 18.2592 35.8696 18.2573 34.508 17.5747C34.364 17.5017 34.061 17.556 33.9338 17.6663C31.5044 19.7797 29.3405 22.14 27.4197 24.7471L27.4216 24.7434ZM50.2332 5.18977C49.9695 5.06072 49.6665 4.90549 49.3579 4.76709C45.7689 3.15305 42.0021 2.27029 38.0746 2.09074C32.7443 1.84574 27.6628 2.8482 22.8675 5.2066C22.6674 5.30386 22.4523 5.63863 22.4729 5.83875C22.4934 6.04448 22.7627 6.31006 22.9816 6.39609C25.138 7.23958 27.3337 7.9933 29.4658 8.89102C30.8834 9.48764 32.2169 10.2806 33.5916 10.9876C35.7068 9.39599 36.945 9.39599 39.6063 11.0026C42.5894 9.2445 45.7221 7.79505 49.0381 6.77201C49.8292 6.52701 50.4258 6.25769 50.2313 5.18603L50.2332 5.18977ZM6.19594 29.318C6.19407 28.136 5.31692 27.2383 4.14239 27.214C3.03333 27.1916 2.06266 28.1566 2.05144 29.2956C2.03835 30.4533 2.95291 31.4071 4.08629 31.4202C5.30009 31.4333 6.19781 30.5393 6.19594 29.3199V29.318ZM24.4179 29.7894C25.6242 29.7894 26.5351 28.8711 26.5182 27.6647C26.5033 26.5314 25.5401 25.5981 24.3974 25.6131C23.2584 25.628 22.3064 26.5968 22.3288 27.7171C22.3532 28.901 23.2453 29.7856 24.4179 29.7875V29.7894ZM54.849 35.7349C54.8602 34.5192 53.9606 33.601 52.7618 33.6028C51.6621 33.6047 50.7344 34.5286 50.7101 35.647C50.6839 36.8309 51.6303 37.8259 52.7767 37.8184C53.9494 37.8109 54.8378 36.9169 54.8509 35.7349H54.849ZM16.2673 6.41292C16.2542 7.55191 17.1837 8.5151 18.3171 8.53567C19.443 8.55625 20.4137 7.60428 20.4249 6.4709C20.4361 5.24962 19.5459 4.34067 18.3396 4.34067C17.165 4.34067 16.2804 5.22531 16.2673 6.41479V6.41292ZM36.5672 11.8498C35.4338 11.8386 34.4799 12.7756 34.465 13.9164C34.4519 15.0498 35.3982 16.0354 36.5148 16.0504C37.7005 16.0654 38.6413 15.1265 38.6375 13.9351C38.6338 12.7625 37.7398 11.861 36.5672 11.8498ZM57.0278 60.5496C57.0372 59.3227 56.1488 58.4231 54.9406 58.4306C53.7586 58.4381 52.889 59.3115 52.8777 60.5066C52.8665 61.6643 53.7773 62.5938 54.9294 62.6031C56.0871 62.6125 57.0185 61.6998 57.0278 60.5515V60.5496ZM54.3272 4.33132C53.1751 4.32197 52.2325 5.24401 52.2231 6.38674C52.2138 7.60054 53.1209 8.52258 54.3178 8.5151C55.4942 8.50762 56.3714 7.62485 56.3882 6.43163C56.4032 5.29077 55.4718 4.34067 54.3291 4.33319L54.3272 4.33132ZM16.2654 60.3364C16.2692 61.4828 17.1968 62.4292 18.3302 62.4386C19.4673 62.4479 20.41 61.5146 20.4249 60.3682C20.4399 59.2105 19.4561 58.208 18.319 58.2211C17.195 58.2342 16.2617 59.1955 16.2654 60.3382V60.3364ZM60.1512 13.7855C60.1531 14.9956 61.0657 15.8952 62.2739 15.8783C63.3793 15.8615 64.2845 14.9395 64.2994 13.8136C64.3144 12.6484 63.4111 11.7076 62.2683 11.6945C61.0489 11.6815 60.1493 12.5698 60.1512 13.7855V13.7855Z" fill="#CCCCCC"/>
</svg>
