<svg width="20" height="23" viewBox="0 0 20 23" fill="none" xmlns="http://www.w3.org/2000/svg">
<path d="M14.8056 2.22222V2.97222H15.5556H16.6667C17.3518 2.97222 18.0089 3.24439 18.4934 3.72886C18.9778 4.21333 19.25 4.87041 19.25 5.55556V18.8889C19.25 19.574 18.9778 20.2311 18.4934 20.7156C18.0089 21.2001 17.3518 21.4722 16.6667 21.4722H3.33333C2.64819 21.4722 1.99111 21.2001 1.50664 20.7156C1.02217 20.2311 0.75 19.574 0.75 18.8889V5.55556C0.75 4.87041 1.02217 4.21333 1.50664 3.72886C1.99111 3.24439 2.64819 2.97222 3.33333 2.97222H4.44444H5.19444V2.22222V1.11111C5.19444 1.01534 5.23249 0.923489 5.30021 0.855767C5.36793 0.788045 5.45978 0.75 5.55556 0.75C5.65133 0.75 5.74318 0.788045 5.8109 0.855767C5.87862 0.923489 5.91667 1.01534 5.91667 1.11111V2.22222V2.97222H6.66667H13.3333H14.0833V2.22222V1.11111C14.0833 1.01534 14.1214 0.923489 14.1891 0.855767C14.2568 0.788046 14.3487 0.75 14.4444 0.75C14.5402 0.75 14.6321 0.788046 14.6998 0.855766C14.7675 0.923487 14.8056 1.01534 14.8056 1.11111V2.22222ZM6.87156 16.8716L6.34123 16.3412L6.87156 16.8716C7.22059 16.5225 7.41667 16.0492 7.41667 15.5556C7.41667 15.1875 7.30751 14.8276 7.10301 14.5216C6.89851 14.2155 6.60785 13.977 6.26777 13.8361C5.9277 13.6952 5.55349 13.6584 5.19247 13.7302C4.83145 13.802 4.49983 13.9793 4.23955 14.2396C3.97927 14.4998 3.80202 14.8314 3.73021 15.1925C3.65839 15.5535 3.69525 15.9277 3.83611 16.2678C3.97697 16.6078 4.21552 16.8985 4.52158 17.103C4.82764 17.3075 5.18746 17.4167 5.55556 17.4167C6.04915 17.4167 6.52253 17.2206 6.87156 16.8716ZM15.7604 16.8716L15.2301 16.3412L15.7605 16.8716C16.1095 16.5225 16.3056 16.0492 16.3056 15.5556C16.3056 15.062 16.1095 14.5886 15.7605 14.2396L15.2301 14.7699L15.7604 14.2395C15.4114 13.8905 14.938 13.6944 14.4444 13.6944H10C9.5064 13.6944 9.03302 13.8905 8.684 14.2396C8.33497 14.5886 8.13889 15.062 8.13889 15.5556C8.13889 16.0492 8.33497 16.5225 8.684 16.8716C9.03302 17.2206 9.5064 17.4167 10 17.4167H14.4444C14.938 17.4167 15.4114 17.2206 15.7604 16.8716ZM17.7778 10.75H18.5278V10V5.55556C18.5278 5.06196 18.3317 4.58858 17.9827 4.23955C17.6336 3.89053 17.1603 3.69444 16.6667 3.69444H15.5556H14.8056V4.44444V5.55556C14.8056 5.65133 14.7675 5.74318 14.6998 5.8109C14.6321 5.87862 14.5402 5.91667 14.4444 5.91667C14.3487 5.91667 14.2568 5.87862 14.1891 5.8109L13.6588 6.34123L14.1891 5.8109C14.1214 5.74318 14.0833 5.65133 14.0833 5.55556V4.44444V3.69444H13.3333H6.66667H5.91667V4.44444V5.55556C5.91667 5.65133 5.87862 5.74318 5.8109 5.8109C5.74318 5.87862 5.65133 5.91667 5.55556 5.91667C5.45978 5.91667 5.36793 5.87862 5.30021 5.8109C5.23249 5.74318 5.19444 5.65133 5.19444 5.55556V4.44444V3.69444H4.44444H3.33333C2.83974 3.69444 2.36635 3.89053 2.01733 4.23955C1.6683 4.58858 1.47222 5.06196 1.47222 5.55556V10V10.75H2.22222H17.7778Z" stroke="#F4F4F4" stroke-width="1.5"/>
</svg>
