<svg width="20" height="23" viewBox="0 0 20 23" fill="none" xmlns="http://www.w3.org/2000/svg">
<path d="M16.6667 2.22222H15.5556V1.11111C15.5556 0.816426 15.4385 0.533811 15.2301 0.325437C15.0217 0.117063 14.7391 0 14.4444 0C14.1498 0 13.8671 0.117063 13.6588 0.325437C13.4504 0.533811 13.3333 0.816426 13.3333 1.11111V2.22222H6.66667V1.11111C6.66667 0.816426 6.5496 0.533811 6.34123 0.325437C6.13286 0.117063 5.85024 0 5.55556 0C5.26087 0 4.97826 0.117063 4.76988 0.325437C4.56151 0.533811 4.44444 0.816426 4.44444 1.11111V2.22222H3.33333C2.44928 2.22222 1.60143 2.57341 0.976311 3.19853C0.35119 3.82365 0 4.6715 0 5.55556V18.8889C0 19.7729 0.35119 20.6208 0.976311 21.2459C1.60143 21.871 2.44928 22.2222 3.33333 22.2222H16.6667C17.5507 22.2222 18.3986 21.871 19.0237 21.2459C19.6488 20.6208 20 19.7729 20 18.8889V5.55556C20 4.6715 19.6488 3.82365 19.0237 3.19853C18.3986 2.57341 17.5507 2.22222 16.6667 2.22222V2.22222ZM5.55556 16.6667C5.3358 16.6667 5.12098 16.6015 4.93826 16.4794C4.75553 16.3573 4.61312 16.1838 4.52902 15.9808C4.44493 15.7777 4.42292 15.5543 4.46579 15.3388C4.50867 15.1233 4.61449 14.9253 4.76988 14.7699C4.92527 14.6145 5.12325 14.5087 5.33879 14.4658C5.55432 14.4229 5.77773 14.4449 5.98076 14.529C6.18379 14.6131 6.35732 14.7555 6.47941 14.9383C6.6015 15.121 6.66667 15.3358 6.66667 15.5556C6.66667 15.8502 6.5496 16.1329 6.34123 16.3412C6.13286 16.5496 5.85024 16.6667 5.55556 16.6667V16.6667ZM14.4444 16.6667H10C9.70532 16.6667 9.4227 16.5496 9.21433 16.3412C9.00595 16.1329 8.88889 15.8502 8.88889 15.5556C8.88889 15.2609 9.00595 14.9783 9.21433 14.7699C9.4227 14.5615 9.70532 14.4444 10 14.4444H14.4444C14.7391 14.4444 15.0217 14.5615 15.2301 14.7699C15.4385 14.9783 15.5556 15.2609 15.5556 15.5556C15.5556 15.8502 15.4385 16.1329 15.2301 16.3412C15.0217 16.5496 14.7391 16.6667 14.4444 16.6667ZM17.7778 10H2.22222V5.55556C2.22222 5.26087 2.33929 4.97826 2.54766 4.76988C2.75603 4.56151 3.03865 4.44444 3.33333 4.44444H4.44444V5.55556C4.44444 5.85024 4.56151 6.13286 4.76988 6.34123C4.97826 6.5496 5.26087 6.66667 5.55556 6.66667C5.85024 6.66667 6.13286 6.5496 6.34123 6.34123C6.5496 6.13286 6.66667 5.85024 6.66667 5.55556V4.44444H13.3333V5.55556C13.3333 5.85024 13.4504 6.13286 13.6588 6.34123C13.8671 6.5496 14.1498 6.66667 14.4444 6.66667C14.7391 6.66667 15.0217 6.5496 15.2301 6.34123C15.4385 6.13286 15.5556 5.85024 15.5556 5.55556V4.44444H16.6667C16.9614 4.44444 17.244 4.56151 17.4523 4.76988C17.6607 4.97826 17.7778 5.26087 17.7778 5.55556V10Z" fill="#231F20"/>
</svg>
