<svg width="55" height="46" viewBox="0 0 55 46" fill="none" xmlns="http://www.w3.org/2000/svg">
<path d="M0.00149497 5.49795C0.115112 5.21581 0.212285 4.92552 0.343842 4.65479C0.953789 3.40065 2.29029 2.78092 3.5356 3.16254C4.78688 3.5458 5.64948 4.84723 5.57473 6.23674C5.49699 7.69637 4.48789 8.89506 3.16335 9.10055C1.89711 9.29625 0.642836 8.47103 0.186871 7.14187C0.131557 6.98041 0.0627886 6.82548 0 6.66892V5.49632L0.00149497 5.49795ZM2.77017 5.01032C2.21853 5.02337 1.80293 5.49143 1.80742 6.09648C1.8119 6.7211 2.26637 7.18753 2.84193 7.16144C3.38909 7.13698 3.79423 6.65261 3.77778 6.04592C3.76134 5.44576 3.3263 4.99564 2.77017 5.00869V5.01032Z" fill="#ABABAB"/>
<path d="M14.2201 26.488C14.0108 26.7473 13.8434 27.0898 13.5818 27.2496C13.2289 27.4649 12.8462 27.3262 12.5607 26.9968C11.9702 26.3184 11.3857 25.6334 10.8011 24.9484C10.5455 24.65 10.2749 24.3613 10.0417 24.0417C9.69783 23.572 9.72923 23.0321 10.0925 22.675C10.4468 22.326 10.97 22.3276 11.3453 22.7533C12.2019 23.7204 13.0391 24.7087 13.8673 25.7051C14.0138 25.8813 14.0706 26.1438 14.2216 26.4863L14.2201 26.488Z" fill="#ABABAB"/>
<path d="M16.9664 23.2253C18.5899 20.81 20.1671 18.4664 21.7428 16.1228C23.0972 14.1087 24.4517 12.093 25.8091 10.0805C26.8376 8.55559 28.1652 8.54581 29.1847 10.0609C32.0132 14.262 34.8387 18.4648 37.6657 22.6675C37.7808 22.8371 37.9004 23.0018 38.0499 23.2155C38.2338 23.0035 38.3892 22.8241 38.5447 22.6431C41.6827 18.9736 44.8206 15.3025 47.9615 11.6347C48.8406 10.6072 49.8437 10.4588 50.7093 11.24C51.3461 11.8157 51.4553 12.5692 51.2744 13.4123C50.3878 17.5515 49.5088 21.6923 48.6238 25.8314C47.682 30.2364 46.7341 34.6397 45.7908 39.0447C45.7579 39.1964 45.74 39.3513 45.7101 39.5356C45.8521 39.6351 46.0001 39.7362 46.1466 39.8422C47.1064 40.5435 47.5848 41.8107 47.3411 43.0045C47.0795 44.2815 46.1601 45.2029 44.9686 45.3741C44.7563 45.4051 44.541 45.4312 44.3273 45.4312C33.121 45.4345 21.9132 45.4345 10.7069 45.4312C9.18506 45.4312 8.12064 44.6354 7.73942 43.2507C7.33877 41.796 7.87247 40.5044 9.31362 39.5405C9.06845 38.3728 8.82178 37.1823 8.56763 35.9934C6.974 28.5501 5.37588 21.1084 3.78224 13.6651C3.46382 12.181 3.88241 11.1976 4.98569 10.8421C5.83035 10.5697 6.47468 10.9562 7.03679 11.6151C9.67241 14.7023 12.311 17.7847 14.9496 20.8703C15.6074 21.6401 16.2667 22.4066 16.9708 23.2285L16.9664 23.2253ZM49.5611 12.8203L49.4341 12.7388C49.3085 12.8953 49.1859 13.0552 49.0558 13.2068C45.6981 17.1323 42.3374 21.0579 38.9798 24.985C38.1052 26.0075 37.6806 25.9815 36.9122 24.8382C33.9073 20.368 30.9039 15.8961 27.8976 11.4259C27.7765 11.2449 27.6449 11.0737 27.4924 10.8584C26.3488 12.561 25.2485 14.1984 24.1497 15.8342C22.0866 18.9035 20.0191 21.9695 17.962 25.0437C17.6511 25.5085 17.2967 25.8542 16.7541 25.6292C16.5029 25.5248 16.2876 25.2753 16.0963 25.0519C12.7087 21.1019 9.32558 17.1487 5.94696 13.1889C5.81839 13.0372 5.74813 12.8252 5.65095 12.6426L5.43717 12.8236C7.32681 21.6564 9.21645 30.4892 11.1091 39.3415H11.8132C17.8454 39.3415 23.8791 39.3415 29.9113 39.3415C30.8157 39.3415 31.2433 39.6514 31.2433 40.3021C31.2433 40.9512 30.8142 41.2627 29.9098 41.2627C23.5726 41.2627 17.2355 41.2627 10.8998 41.266C10.6696 41.266 10.4319 41.2741 10.2091 41.328C9.69633 41.4486 9.39136 41.8792 9.4078 42.4092C9.42574 42.9572 9.79201 43.3861 10.3197 43.4595C10.4961 43.484 10.677 43.4742 10.8564 43.4742C21.9551 43.4742 33.0537 43.4742 44.1523 43.4742C44.3841 43.4742 44.6218 43.4791 44.846 43.4253C45.3094 43.3127 45.6368 42.8561 45.6069 42.3603C45.577 41.8466 45.3468 41.4682 44.8639 41.3443C44.6576 41.2921 44.4409 41.2692 44.2286 41.2692C42.8323 41.2627 41.436 41.2709 40.0397 41.2627C39.364 41.2578 38.9902 40.9023 38.9932 40.2989C38.9962 39.702 39.3714 39.353 40.0487 39.3464C41.14 39.3367 42.2343 39.3106 43.3241 39.3595C43.81 39.3807 43.9535 39.1719 44.0522 38.7055C45.7161 30.8806 47.3934 23.0589 49.0663 15.2373C49.2382 14.4333 49.3997 13.6276 49.5656 12.8236L49.5611 12.8203Z" fill="#ABABAB"/>
<path d="M52.2072 9.12873C50.6748 9.12547 49.4026 7.71966 49.4235 6.05291C49.4445 4.4041 50.7107 3.04069 52.2176 3.04395C53.747 3.04884 55.0192 4.45629 54.9998 6.12304C54.9788 7.77348 53.7171 9.13199 52.2072 9.12873ZM53.1983 6.05943C53.1864 5.4609 52.7543 5.00589 52.1997 5.01078C51.6495 5.01731 51.2265 5.48373 51.2265 6.08553C51.2265 6.71178 51.6764 7.18473 52.2505 7.16353C52.7992 7.14233 53.2088 6.66612 53.1968 6.05943H53.1983Z" fill="#ABABAB"/>
<path d="M27.4909 7.0409C25.966 7.03437 24.7222 5.68727 24.7133 4.03031C24.7043 2.36356 25.9915 0.957746 27.5148 0.970793C29.0277 0.98384 30.2835 2.35214 30.2925 3.99769C30.3014 5.67586 29.0397 7.04742 27.4909 7.0409ZM28.491 4.04009C28.5015 3.44809 28.0754 2.94904 27.5373 2.92621C27.0035 2.90338 26.5401 3.3747 26.5177 3.96344C26.4938 4.58644 26.9348 5.10179 27.4939 5.10831C28.0276 5.11484 28.4806 4.63047 28.491 4.03846V4.04009Z" fill="#ABABAB"/>
<path d="M34.1988 27.2088C33.8729 26.9625 33.553 26.8255 33.3766 26.5694C32.1627 24.8097 30.9697 23.0305 29.7887 21.243C29.4478 20.7277 29.5286 20.165 29.9277 19.8388C30.3343 19.5061 30.8815 19.6089 31.2388 20.134C32.4318 21.8888 33.6113 23.6535 34.7923 25.4164C35.0285 25.7703 35.1571 26.1731 34.9089 26.5531C34.749 26.7994 34.4769 26.9592 34.1988 27.2088Z" fill="#ABABAB"/>
<path d="M40.7259 35.9484C41.0099 34.6062 41.3104 33.1857 41.6139 31.7652C41.7425 31.1585 41.8725 30.5535 42.0071 29.9484C42.167 29.2341 42.5632 28.8818 43.0775 28.9927C43.6306 29.1102 43.8922 29.619 43.7412 30.3464C43.3346 32.3002 42.922 34.2523 42.4989 36.2028C42.3614 36.8389 41.9548 37.1879 41.4928 37.1194C41.0204 37.0493 40.69 36.5845 40.7259 35.95V35.9484Z" fill="#ABABAB"/>
<path d="M42.9489 25.5024C43.0849 24.9218 43.2404 24.1031 43.4766 23.3122C43.6127 22.8555 44.0014 22.6745 44.4334 22.7821C44.8595 22.8881 45.1749 23.2176 45.1061 23.6954C44.9821 24.5549 44.8057 25.4111 44.5635 26.2396C44.4304 26.6979 43.9999 26.8234 43.5783 26.7011C43.1492 26.5755 42.9369 26.2363 42.9489 25.5041V25.5024Z" fill="#ABABAB"/>
<path d="M35.0914 41.253C34.77 41.253 34.4485 41.2726 34.1286 41.2482C33.6158 41.2106 33.2929 40.8355 33.2884 40.312C33.284 39.7853 33.5994 39.3841 34.1077 39.3596C34.767 39.3286 35.4277 39.3286 36.087 39.3563C36.5923 39.3775 36.9347 39.7836 36.9406 40.2892C36.9481 40.8143 36.5878 41.2172 36.0541 41.2514C35.7342 41.271 35.4128 41.2547 35.0914 41.2547V41.2514V41.253Z" fill="#ABABAB"/>
<path d="M28.3655 18.5941C28.2474 18.5256 27.9753 18.4538 27.8288 18.2663C27.4386 17.764 27.0724 17.2307 26.7524 16.6729C26.4968 16.2293 26.6284 15.7042 26.9991 15.4334C27.3923 15.1464 27.8109 15.1578 28.1129 15.546C28.527 16.0776 28.9201 16.6403 29.2341 17.2453C29.5391 17.8308 29.0891 18.5778 28.3655 18.5941Z" fill="#ABABAB"/>
</svg>
