<svg width="346" height="53" viewBox="0 0 346 53" fill="none" xmlns="http://www.w3.org/2000/svg">
<path d="M178.627 16.26H163.124C160.411 16.26 158.223 18.4474 158.223 21.1608V33.592C158.223 36.3054 160.411 38.4928 163.124 38.4928H178.627C181.34 38.4928 183.564 36.3054 183.564 33.592V21.1608C183.564 18.4474 181.34 16.26 178.627 16.26ZM181.376 33.592C181.376 35.0742 180.121 36.3054 178.627 36.3054H163.124C161.642 36.3054 160.411 35.0742 160.411 33.592V21.1608C160.411 19.6786 161.642 18.4474 163.124 18.4474H178.627C180.109 18.4474 181.376 19.6786 181.376 21.1608V33.592Z" fill="#8E8E8E"/>
<path d="M121.276 16.26H105.175C104.984 16.26 104.805 16.3317 104.673 16.4632C104.542 16.5947 104.47 16.774 104.47 16.9652V37.7875C104.47 37.9788 104.53 38.1581 104.673 38.2896C104.817 38.4211 104.984 38.4928 105.175 38.4928H121.276C123.428 38.4928 125.352 37.6321 126.763 36.2217C128.173 34.8112 129.034 32.8509 129.034 30.7352V24.0176C129.034 21.9019 128.173 19.9416 126.763 18.5311C125.352 17.1206 123.428 16.26 121.276 16.26ZM126.846 30.7352C126.846 32.2533 126.225 33.6518 125.209 34.6678C124.193 35.6838 122.794 36.3054 121.276 36.3054H106.658V18.4474H121.276C122.794 18.4474 124.193 19.069 125.209 20.085C126.225 21.101 126.846 22.4995 126.846 24.0176V30.7352Z" fill="#8E8E8E"/>
<path d="M321.909 37.417L310.757 17.037C310.41 16.3676 309.8 15.9731 309.023 15.9731C308.617 15.9731 308.282 16.0568 307.996 16.2361C307.709 16.4154 307.482 16.6664 307.278 16.9772L307.481 17.1087L307.278 16.9892L295.528 37.4051L295.732 37.5246L295.528 37.4051C295.385 37.6561 295.325 37.931 295.469 38.17C295.612 38.3972 295.887 38.4808 296.174 38.4808H297.011C297.13 38.4808 297.262 38.445 297.369 38.3852C297.465 38.3254 297.56 38.2298 297.62 38.1103L300.871 32.5162H316.757L319.829 38.1103C319.889 38.2298 319.984 38.3254 320.08 38.3852C320.188 38.445 320.319 38.4808 320.439 38.4808H321.311C321.586 38.4808 321.873 38.4091 322.005 38.17C322.136 37.931 322.064 37.6561 321.921 37.417H321.909ZM302.138 30.3408L309.011 18.3638L315.562 30.3408H302.138Z" fill="#8E8E8E"/>
<path d="M345.002 36.5086C344.871 36.3771 344.692 36.3054 344.5 36.3054H329.081C328.172 36.3054 327.36 35.9826 326.75 35.4686C326.2 34.9786 325.865 34.2972 325.865 33.592V16.9652C325.865 16.774 325.806 16.5947 325.662 16.4632C325.531 16.3317 325.351 16.26 325.16 16.26H324.383C324.192 16.26 324.013 16.3317 323.881 16.4632C323.75 16.5947 323.678 16.774 323.678 16.9652V33.592C323.678 34.9666 324.3 36.2217 325.316 37.0943L325.471 36.915L325.316 37.0943C326.296 37.9429 327.622 38.4928 329.081 38.4928H344.5C344.692 38.4928 344.871 38.433 345.002 38.2896C345.134 38.1581 345.205 37.9788 345.205 37.7875V37.0106C345.205 36.8193 345.146 36.64 345.002 36.5086Z" fill="#8E8E8E"/>
<path d="M292.277 27.6513L292.445 27.484C291.691 26.7548 290.64 26.2647 289.48 26.2647H273.284C272.722 26.2647 272.22 26.0376 271.861 25.7029C271.503 25.3444 271.288 24.8423 271.288 24.3283V20.4077C271.288 19.8579 271.503 19.3917 271.873 19.0212C272.232 18.6626 272.734 18.4355 273.284 18.4355H289.134C289.659 18.4355 290.161 18.6506 290.52 19.0212C290.879 19.3798 291.106 19.8579 291.106 20.4077V20.7783C291.106 21.1249 291.369 21.3879 291.715 21.3879H292.708C293.054 21.3879 293.317 21.1249 293.317 20.7783V20.4077C293.317 19.2483 292.815 18.2323 292.062 17.4673C291.309 16.7142 290.245 16.248 289.122 16.248H273.272C272.124 16.248 271.096 16.7142 270.343 17.4673C269.554 18.2323 269.088 19.2483 269.088 20.4077V24.3283C269.088 25.4519 269.554 26.5038 270.343 27.2688L270.511 27.1015L270.343 27.2688C271.096 27.986 272.112 28.488 273.272 28.488H289.468C290.03 28.488 290.52 28.7151 290.891 29.0498C291.249 29.4084 291.464 29.9104 291.464 30.4244V34.345C291.464 34.871 291.249 35.373 290.879 35.7316C290.52 36.0902 290.018 36.3173 289.468 36.3173H273.272C272.71 36.3173 272.22 36.0902 271.861 35.7316C271.503 35.373 271.276 34.871 271.276 34.345V33.9745C271.276 33.6279 271.013 33.3649 270.666 33.3649H269.698C269.351 33.3649 269.088 33.6279 269.088 33.9745V34.345C269.088 35.4925 269.554 36.5205 270.343 37.2855C271.096 38.0385 272.124 38.5047 273.272 38.5047H289.468C290.616 38.5047 291.68 38.0385 292.433 37.2855C293.186 36.5325 293.652 35.5045 293.652 34.345V30.4244C293.652 29.3008 293.186 28.249 292.433 27.484L292.265 27.6513H292.277Z" fill="#8E8E8E"/>
<path d="M156.406 37.417L145.254 17.037C144.907 16.3676 144.298 15.9731 143.521 15.9731C143.114 15.9731 142.78 16.0568 142.493 16.2361C142.206 16.4154 141.979 16.6664 141.776 16.9772L141.979 17.1087L141.776 16.9892L130.026 37.405L130.229 37.5246L130.026 37.417C129.882 37.668 129.823 37.9429 129.966 38.182C130.109 38.4091 130.384 38.4928 130.671 38.4928H131.508C131.628 38.4928 131.759 38.4569 131.867 38.3972C131.962 38.3374 132.058 38.2418 132.118 38.1222L135.369 32.5282H151.255L154.326 38.1222C154.386 38.2418 154.482 38.3374 154.577 38.3972C154.685 38.4569 154.817 38.4928 154.936 38.4928H155.809C156.084 38.4928 156.358 38.4211 156.502 38.182C156.633 37.9429 156.562 37.668 156.418 37.429L156.406 37.417ZM136.636 30.3408L143.509 18.3638L150.059 30.3408H136.636Z" fill="#8E8E8E"/>
<path d="M265.777 37.668C265.717 37.5126 265.646 37.3453 265.55 37.166C265.478 37.0345 265.395 36.903 265.311 36.7596C265.227 36.6281 265.156 36.4847 265.084 36.3651C264.952 36.138 264.833 35.9348 264.737 35.8272C263.793 34.2733 262.179 32.3608 260.386 30.9504C261.749 30.9026 263.016 30.3408 263.924 29.4084C264.869 28.4641 265.454 27.1612 265.454 25.703V21.5433C265.454 20.0731 264.869 18.7821 263.924 17.802L263.757 17.9693L263.924 17.802C262.98 16.8577 261.641 16.272 260.219 16.272H241.608C241.417 16.272 241.237 16.3437 241.106 16.4752C240.975 16.6067 240.903 16.786 240.903 16.9772V37.7875C240.903 37.9788 240.963 38.1581 241.106 38.2896C241.237 38.4211 241.417 38.4928 241.608 38.4928H242.385C242.576 38.4928 242.756 38.433 242.887 38.2896C243.018 38.1581 243.09 37.9788 243.09 37.7875V30.9743H255.282C256.382 30.9743 257.637 31.5839 258.868 32.5043C260.554 33.7952 262.024 35.5404 262.908 36.9747C262.992 37.1182 263.279 37.6322 263.566 38.0744C263.626 38.194 263.709 38.2776 263.805 38.3374C263.912 38.3972 264.032 38.433 264.152 38.433L265.239 38.4689C265.431 38.4689 265.646 38.4091 265.753 38.2298C265.873 38.0505 265.849 37.8473 265.765 37.668H265.777ZM243.078 18.4474H260.207C261.044 18.4474 261.821 18.7941 262.371 19.3439C262.92 19.9296 263.267 20.6707 263.267 21.5313V25.691C263.267 26.5277 262.92 27.3047 262.371 27.8545C261.821 28.4283 261.044 28.7749 260.219 28.7749H243.09V18.4474H243.078Z" fill="#8E8E8E"/>
<path d="M236.839 16.26H218.778C216.076 16.26 213.375 18.2323 213.375 21.1608V33.592C213.375 36.5205 216.064 38.4928 218.778 38.4928H236.839C237.03 38.4928 237.209 38.433 237.341 38.2896C237.472 38.1581 237.544 37.9788 237.544 37.7875V37.0106C237.544 36.8193 237.484 36.64 237.341 36.5085C237.209 36.3771 237.03 36.3053 236.839 36.3053H218.778C217.989 36.3053 217.176 36.0304 216.566 35.5523C215.957 35.0742 215.562 34.4048 215.562 33.592V27.4242H235.488C235.679 27.4242 235.859 27.3644 235.99 27.221C236.122 27.0895 236.193 26.9102 236.193 26.719V25.9061C236.193 25.7149 236.133 25.5356 235.99 25.4041C235.859 25.2726 235.679 25.2009 235.488 25.2009H215.562V21.1488C215.562 20.336 215.957 19.6547 216.566 19.1885C217.176 18.7104 217.989 18.4355 218.778 18.4355H236.839C237.03 18.4355 237.209 18.3757 237.341 18.2323C237.472 18.1008 237.544 17.9215 237.544 17.7302V16.9533C237.544 16.762 237.484 16.5827 237.341 16.4512C237.209 16.3198 237.03 16.248 236.839 16.248V16.26Z" fill="#8E8E8E"/>
<path d="M210.972 16.26H210.1C209.98 16.26 209.849 16.2958 209.741 16.3556C209.645 16.4154 209.55 16.511 209.49 16.6305L198.72 36.5085L187.401 16.6186C187.341 16.4991 187.245 16.4034 187.15 16.3437C187.042 16.2839 186.911 16.248 186.791 16.248H185.918C185.656 16.248 185.381 16.3317 185.237 16.5588C185.094 16.7979 185.154 17.0728 185.297 17.3238L196.987 37.9549C197.166 38.2656 197.405 38.5167 197.716 38.684H197.728C198.051 38.8992 198.374 38.9709 198.744 38.9709C199.485 38.9709 200.155 38.5884 200.513 37.907L211.606 17.2999L211.403 17.1923L211.618 17.2999C211.737 17.0608 211.797 16.7859 211.665 16.5469C211.522 16.3078 211.247 16.2361 210.972 16.2361V16.26ZM197.202 37.8473L197.166 37.8712L197.202 37.8473Z" fill="#8E8E8E"/>
<path d="M78.3884 1.79689C73.4757 -0.98818 67.2362 -0.52201 60.8293 3.09978L44.2862 12.4591C43.5093 12.9013 42.565 12.9013 41.788 12.4591C36.3016 9.35125 30.827 6.2554 25.3406 3.14759C18.8859 -0.48615 12.6105 -0.964274 7.66194 1.83275C2.72531 4.62978 0 10.1999 0 17.5033V35.0982C0 42.4255 2.72531 48.0076 7.67389 50.8046C9.78959 51.9999 12.1563 52.5976 14.6784 52.5976C18.0014 52.5976 21.5993 51.5576 25.2449 49.4897L41.788 40.1305C42.565 39.6882 43.5093 39.6882 44.2862 40.1305C49.7727 43.2383 55.2472 46.3341 60.7337 49.4419C64.4153 51.5218 68.0251 52.5737 71.3839 52.5737C73.918 52.5737 76.2847 51.976 78.4123 50.7687C83.349 47.9717 86.0743 42.4135 86.0743 35.0982V17.5033C86.0743 10.176 83.349 4.59392 78.4004 1.79689H78.3884ZM78.6155 35.0982C78.6155 39.6284 77.1812 43.0351 74.671 44.4455C71.862 46.0353 68.5271 44.7085 64.4392 43.1187C61.4987 41.9713 60.2317 41.027 49.6651 34.9548C48.171 34.0942 46.0314 32.8989 43.1029 32.8152C40.9633 32.7435 39.2062 33.2933 38.0706 33.7595C32.5483 36.9031 27.026 40.0468 21.5156 43.1905C17.5591 45.4257 13.8775 45.9038 11.3913 44.4934C8.88115 43.0709 7.43483 39.6524 7.43483 35.0982V17.5033C7.43483 12.973 8.8692 9.56641 11.3794 8.15594C14.1286 6.60204 17.3798 7.86907 21.6112 9.48273C24.3963 10.5466 25.8785 11.4909 36.1342 17.4794C40.0309 19.7504 41.6087 20.3361 43.6169 20.2764C45.2066 20.2286 46.5095 19.7743 47.3821 19.3799C53.1076 16.0689 58.8212 12.7459 64.5348 9.43492C68.4913 7.19969 72.1728 6.72157 74.6591 8.13203C77.1692 9.55445 78.6155 12.973 78.6155 17.5272V35.1221V35.0982Z" fill="#8E8E8E"/>
</svg>
