<svg width="288" height="40" viewBox="0 0 288 40" fill="none" xmlns="http://www.w3.org/2000/svg">
<path d="M11.2184 24.7036L25.4336 24.3963L24.9213 14.1639L10.6037 14.4713L10.3988 10.4373L27.6235 10.2323L26.9063 0L0 0.870838L1.31906 39.7384L28.2382 39.1237V28.8913L11.4618 29.5573L11.2184 24.7036Z" fill="#8E8E8E"/>
<path d="M49.4584 12.5762V14.7789C48.7413 13.9977 47.7936 13.383 46.6154 12.9347C45.4372 12.4865 44.1822 12.2688 42.8631 12.2688C40.4171 12.2688 38.1888 12.8707 36.1653 14.0745C34.1291 15.2911 32.5411 16.9432 31.3885 19.0562C30.236 21.1693 29.6597 23.5001 29.6597 26.0613C29.6597 28.6226 30.2232 30.9022 31.3373 33.0152C32.4643 35.1411 33.9754 36.8188 35.8708 38.061C37.779 39.3288 39.8408 39.9307 42.0947 39.9307C43.5162 39.9307 44.9121 39.6874 46.2696 39.2136C47.6271 38.7397 48.7669 38.0994 49.6889 37.3182L49.7402 39.7258H59.0889L57.9107 12.5633H49.4456L49.4584 12.5762ZM48.3187 28.5202C47.8448 29.4294 47.1917 30.1338 46.3849 30.6845C45.5653 31.2351 44.72 31.5041 43.8492 31.5041C42.9784 31.5041 42.1716 31.2479 41.3648 30.7357C40.5708 30.2234 39.9176 29.5447 39.431 28.6867C38.9187 27.8286 38.6882 26.9706 38.6882 26.0741C38.6882 24.6142 39.2517 23.3464 40.3659 22.2834C41.4928 21.2205 42.7991 20.6954 44.2846 20.6954C45.6421 20.6954 46.7819 21.1693 47.6783 22.1041C48.562 23.0646 49.023 24.2172 49.023 25.6131C49.023 26.6248 48.7797 27.5853 48.3059 28.4946L48.3187 28.5202Z" fill="#8E8E8E"/>
<path d="M81.1417 13.1139C79.9891 12.5376 78.8109 12.2302 77.6071 12.2302C76.4033 12.2302 75.2763 12.4735 74.1109 12.9346C72.9327 13.3956 71.9082 14.0231 70.9862 14.8427V12.4864H61.5094V39.7513H70.9862V29.9287C71.127 26.9448 71.6521 24.819 72.5486 23.4999C73.445 22.1808 74.8281 21.5277 76.6594 21.5277C78.3627 21.5277 79.6946 22.2064 80.6806 23.5767L84.2024 15.6495C83.3188 14.561 82.2943 13.703 81.1417 13.1139Z" fill="#8E8E8E"/>
<path d="M104.078 12.0126C102.413 12.0126 100.71 12.2815 98.981 12.8322C97.2521 13.3829 95.741 14.0744 94.4475 14.9324V12.3199L85.3293 12.4736V39.7513H94.55L94.4988 24.8702C94.6652 23.4103 95.1391 22.3602 95.9075 21.7455C96.6502 21.1307 97.5723 20.8234 98.6224 20.8234C99.9159 20.8234 100.902 21.3485 101.555 22.4114C102.195 23.4743 102.541 25.2416 102.541 27.7261L102.49 39.7385H111.813L112.12 21.6814C112.184 18.5951 111.493 16.2259 110.033 14.5354C108.573 12.8322 106.588 11.9998 104.065 11.9998L104.078 12.0126Z" fill="#8E8E8E"/>
<path d="M119.881 28.0715C118.857 28.0715 117.909 28.3277 117.012 28.8399C116.116 29.365 115.386 30.0693 114.823 30.9658C114.259 31.875 113.977 32.8611 113.977 33.9497C113.977 35.5505 114.515 36.9464 115.604 38.1374C116.692 39.3284 118.05 39.9303 119.676 39.9303C121.303 39.9303 122.596 39.3284 123.633 38.1374C124.671 36.9464 125.196 35.4737 125.196 33.7448C125.196 32.0159 124.671 30.62 123.633 29.6083C122.583 28.5838 121.341 28.0715 119.881 28.0715Z" fill="#8E8E8E"/>
<path d="M142.638 13.5105L140.525 22.7696L149.682 24.524C149.438 25.3949 148.772 26.1505 147.697 26.8548C146.608 27.5464 145.532 28.0074 144.38 28.2507C143.842 28.3404 143.355 28.4044 142.869 28.4044C140.884 28.4044 139.065 27.7129 137.503 26.3169C135.902 24.921 134.877 23.1666 134.404 21.0279C134.314 20.4516 134.25 19.8753 134.25 19.3374C134.25 17.2756 134.877 15.4315 136.094 13.7794C137.324 12.1146 138.86 11.0645 140.768 10.6034C141.55 10.4242 142.331 10.3345 143.086 10.3345C144.354 10.3345 145.622 10.5522 146.826 10.9364C148.03 11.359 149.029 11.9097 149.784 12.6269L155.24 4.1618C153.857 2.85555 152.013 1.89506 149.81 1.22913C147.607 0.563192 145.315 0.230225 142.933 0.230225C141.511 0.230225 140.103 0.383902 138.655 0.652837C135.671 1.31877 132.995 2.58661 130.664 4.52038C128.346 6.42854 126.541 8.78493 125.234 11.5383C123.941 14.3173 123.3 17.1603 123.3 20.1314C123.3 21.4889 123.416 22.7311 123.659 23.9093C124.325 26.9317 125.618 29.6594 127.552 32.0798C129.486 34.4747 131.83 36.37 134.57 37.7019C137.311 39.0594 140.179 39.7253 143.163 39.7253C144.367 39.7253 145.635 39.5716 146.928 39.3027C149.515 38.752 151.897 37.6122 153.985 35.9218C156.059 34.2313 157.724 32.1439 158.902 29.7491C160.081 27.3671 160.682 24.8826 160.682 22.3726C160.682 20.4004 160.35 18.5947 159.684 16.9554L142.625 13.5361L142.638 13.5105Z" fill="#8E8E8E"/>
<path d="M182.12 12.1789V14.3816C181.403 13.562 180.43 12.9601 179.252 12.5119C178.048 12.0637 176.78 11.8459 175.461 11.8459C172.989 11.8459 170.735 12.4863 168.686 13.6901C166.637 14.9323 165.037 16.5971 163.858 18.7358C162.68 20.8873 162.117 23.2437 162.117 25.8178C162.117 28.3919 162.655 30.6842 163.807 32.8357C164.947 34.9488 166.458 36.652 168.392 37.9199C170.287 39.1621 172.4 39.7896 174.654 39.7896C176.101 39.7896 177.484 39.5463 178.868 39.0596C180.225 38.573 181.365 37.9455 182.3 37.1515L182.364 39.5719V39.5975H191.853L190.675 12.1661H182.12V12.1789ZM180.942 28.2382C180.456 29.1731 179.802 29.903 178.983 30.4409C178.138 30.9788 177.292 31.2605 176.421 31.2221C175.551 31.2221 174.731 30.9532 173.924 30.4409C173.105 29.9286 172.452 29.2371 171.965 28.3791C171.453 27.5338 171.209 26.6502 171.209 25.7537C171.209 24.2682 171.747 23.0004 172.9 21.9502C174.039 20.8873 175.371 20.3494 176.883 20.3494C178.266 20.3494 179.418 20.8361 180.315 21.7709C181.224 22.7058 181.672 23.884 181.672 25.3055C181.672 26.3685 181.429 27.3289 180.942 28.2382Z" fill="#8E8E8E"/>
<path d="M226.777 11.7304C224.523 11.7304 222.679 11.9097 221.257 12.3323C219.835 12.7293 218.696 13.4209 217.85 14.3942C216.224 12.7934 213.842 11.9738 210.679 11.9738C209.168 11.9738 207.785 12.1531 206.491 12.5501C205.198 12.9471 204.109 13.4593 203.2 14.1509L203.136 12.089L194.274 12.3964V39.6101H203.943L203.52 26.5475L203.584 26.6371L203.52 25.5486C203.52 23.8197 203.827 22.5007 204.391 21.553C204.993 20.6181 205.838 20.1571 206.927 20.1571C208.015 20.1571 208.822 20.6053 209.398 21.489C209.974 22.3598 210.269 23.602 210.269 25.1772L210.359 39.482L220.028 39.3924V26.5731L220.092 26.7268L220.028 25.7535C220.028 24.1527 220.296 22.8208 220.847 21.7579C221.359 20.695 222.077 20.1827 222.922 20.1827C224.062 20.1827 224.856 20.5413 225.278 21.2712C225.701 22.0012 225.906 23.2947 225.906 25.2028L225.97 39.5717H235.946L235.972 27.8025C235.946 22.1421 235.19 18.0696 233.743 15.5212C232.271 12.9855 229.953 11.7048 226.751 11.7048L226.777 11.7304Z" fill="#8E8E8E"/>
<path d="M264.965 25.8818C264.965 21.5276 263.787 18.1083 261.405 15.5982C259.049 13.0882 255.706 11.8459 251.403 11.8203C248.932 11.8203 246.678 12.3326 244.629 13.3315C242.58 14.3304 240.953 15.7263 239.685 17.5064C238.456 19.3249 237.752 21.3483 237.611 23.615C237.585 23.884 237.547 24.281 237.547 24.7932C237.547 27.457 238.149 29.903 239.327 32.1441C240.505 34.3853 242.093 36.1654 244.116 37.5613C246.14 38.9572 248.304 39.7127 250.686 39.892C250.929 39.9176 251.262 39.9561 251.711 39.9561C253.606 39.9561 255.412 39.5975 257.192 38.8675C258.933 38.1376 260.483 37.1387 261.738 35.8452C263.006 34.5774 263.851 33.1174 264.299 31.491L256.948 29.3779C255.719 31.1965 253.721 32.0033 250.981 31.7984C249.982 31.7343 249.111 31.3501 248.394 30.5946C247.677 29.8646 247.1 28.9297 246.678 27.7771L264.914 27.5594C264.94 27.1624 264.978 26.6246 264.978 25.8946L264.965 25.8818ZM246.729 21.438C247.664 19.1072 249.405 18.0571 251.941 18.2363C252.786 18.326 253.568 18.6333 254.233 19.1712C254.899 19.7091 255.284 20.5031 255.437 21.502L246.729 21.438Z" fill="#8E8E8E"/>
<path d="M278.438 22.1297C276.184 21.4766 274.237 20.9003 274.237 19.8502C274.237 18.8001 275.492 18.5824 276.555 18.5824C278.591 18.5824 281.332 19.4532 284.047 20.9772C284.137 21.0284 284.252 21.054 284.354 21.054C284.418 21.054 284.482 21.054 284.534 21.0284C284.7 20.9772 284.828 20.8619 284.905 20.7082L287.428 15.7137C287.569 15.4192 287.479 15.0734 287.197 14.9069C284.239 13.0372 280.474 11.9614 276.875 11.9614C270.37 11.9614 266.169 15.3423 266.169 20.5802C266.169 26.4199 271.369 27.9311 275.159 29.0452C277.452 29.7112 279.424 30.2874 279.424 31.4656C279.424 32.6951 277.605 32.8359 276.824 32.8359C274.032 32.8359 270.767 31.6705 268.321 29.7752C268.205 29.6855 268.077 29.6471 267.936 29.6471C267.885 29.6471 267.834 29.6471 267.796 29.6599C267.616 29.6984 267.463 29.8264 267.373 29.9929L264.991 34.9362C264.863 35.2051 264.94 35.5125 265.157 35.6918C268.09 38.0482 272.265 39.3928 276.632 39.3928C283.343 39.3928 287.671 36.0119 287.671 30.7741C287.697 24.8447 282.331 23.2695 278.412 22.1169L278.438 22.1297Z" fill="#8E8E8E"/>
</svg>
