<svg width="22" height="22" viewBox="0 0 22 22" fill="none" xmlns="http://www.w3.org/2000/svg">
<path d="M21.9967 10.742C21.9945 10.6859 21.9923 10.6287 21.9912 10.5726C21.9912 10.5583 21.9912 10.5451 21.989 10.5308C21.9846 10.423 21.9769 10.3173 21.9714 10.2095C21.967 10.1534 21.9659 10.0973 21.9593 10.0401C21.9571 10.0181 21.9549 9.9939 21.9516 9.9719C21.9417 9.84758 21.9252 9.72656 21.9098 9.60224C21.9054 9.57474 21.9043 9.54393 21.8999 9.51643C21.8878 9.43281 21.8757 9.3492 21.8636 9.26669C21.2146 5.18618 18.317 1.84718 14.4844 0.563284C14.4063 0.53688 14.3282 0.511577 14.249 0.487373C13.9399 0.391659 13.6264 0.309146 13.3063 0.239836C13.2942 0.237636 13.2821 0.235435 13.2722 0.234335C13.1941 0.217833 13.116 0.20243 13.0368 0.188128C12.9564 0.171626 12.8772 0.158424 12.7969 0.146322C12.7111 0.129819 12.6253 0.118818 12.5395 0.106716C12.4614 0.0946142 12.3855 0.0847127 12.3074 0.0748112C12.2898 0.0748112 12.2711 0.0726109 12.2535 0.0693104C12.1798 0.0616092 12.1061 0.0528079 12.0313 0.0473071C11.9477 0.0396059 11.8619 0.033005 11.7761 0.0275041C11.5209 0.00990149 11.2624 0 11.0016 0C10.7156 0 10.434 0.00990148 10.1546 0.0319048C9.9687 0.0462069 9.78499 0.0660099 9.60128 0.0880132C9.23386 0.13642 8.87194 0.20023 8.51663 0.281642C8.34062 0.323449 8.16461 0.369655 7.9919 0.416963C7.81809 0.46647 7.64648 0.520378 7.47707 0.578687C4.0724 1.73056 1.41027 4.50848 0.416921 7.9861C0.416921 7.9861 0.419121 7.9883 0.416921 7.9905C0.368518 8.16212 0.323416 8.33595 0.281614 8.51418C0.242012 8.6924 0.20351 8.87173 0.171609 9.05326C0.139707 9.23258 0.112206 9.41521 0.0880044 9.59674V9.59894C0.0660033 9.78267 0.0462023 9.96639 0.0319016 10.1523C0.00990049 10.4318 0 10.7134 0 10.9995C0 11.0732 0.00220011 11.1458 0.00440022 11.2195C0.00660033 11.291 0.00880044 11.3658 0.0121006 11.4373V11.4648C0.0165008 11.577 0.0242012 11.6871 0.0319016 11.796C0.0363018 11.8499 0.0374019 11.9038 0.0418021 11.9577C0.0440022 11.9819 0.0473024 12.0039 0.0495025 12.0281C0.059403 12.1414 0.0737037 12.2536 0.0869043 12.3681C0.0913046 12.3956 0.0946047 12.4264 0.0990049 12.4539C0.699635 16.9953 4.0812 20.6699 8.47042 21.7085C8.55073 21.7261 8.63213 21.7459 8.71354 21.7624C8.79494 21.78 8.87964 21.7965 8.96105 21.8119C9.04245 21.8284 9.12716 21.8416 9.21076 21.8559C9.29216 21.8702 9.37687 21.8823 9.46047 21.8933C9.62768 21.9175 9.79599 21.9373 9.9654 21.9527H9.9753C10.0567 21.9604 10.1392 21.967 10.2228 21.9725C10.478 21.9901 10.7376 22 10.9994 22C11.2855 22 11.5671 21.9901 11.8465 21.9681C12.0324 21.9538 12.2161 21.934 12.3998 21.912H12.402C12.5835 21.8878 12.765 21.8603 12.9454 21.8284C13.127 21.7965 13.3074 21.758 13.4845 21.7184C13.6627 21.6766 13.8365 21.6303 14.0081 21.583C14.0103 21.5808 14.0125 21.583 14.0125 21.583C17.4898 20.5907 20.2674 17.9283 21.4214 14.5233C21.4797 14.3539 21.5336 14.1822 21.5831 14.0084C21.6315 13.8346 21.6766 13.6585 21.7184 13.4836C21.7998 13.1283 21.8647 12.7663 21.912 12.3989C21.934 12.2151 21.9538 12.0314 21.9681 11.8455C21.9901 11.566 22 11.2844 22 10.9984C22 10.9125 22 10.8267 21.9956 10.7431L21.9967 10.742ZM19.9539 6.30175C19.9077 6.13782 19.8406 5.9882 19.7581 5.84628C19.9638 6.10372 20.1035 6.40186 20.1695 6.73741C20.4852 8.36896 19.1432 10.61 16.5811 12.7333C14.414 14.5266 11.7486 15.915 9.26576 16.6675C11.8696 15.7753 14.6538 14.1646 16.8044 12.2074C19.1971 10.028 20.3752 7.82107 19.9539 6.30175ZM19.8065 6.34355C20.2124 7.80567 19.0497 9.95649 16.701 12.093C14.7264 13.8907 12.2194 15.388 9.81359 16.3055C12.3041 15.2549 14.9244 13.5573 16.877 11.6078C19.0497 9.43942 20.054 7.3315 19.5667 5.9717C19.5084 5.80997 19.4248 5.66585 19.3291 5.53273C19.5568 5.76046 19.7207 6.03 19.8065 6.34355ZM19.4215 6.0245C19.8912 7.3282 18.8978 9.37341 16.7692 11.4989C15.0543 13.213 12.8651 14.7059 10.7046 15.7445C12.941 14.5783 15.2061 12.906 16.9034 11.0512C18.8527 8.92014 19.6954 6.92334 19.1619 5.70876C19.0915 5.55143 18.9957 5.41281 18.8857 5.28739C19.1333 5.48542 19.317 5.73076 19.4215 6.0245ZM19.02 5.77037C19.5315 6.92664 18.6965 8.86183 16.789 10.9466C15.2853 12.5925 13.3338 14.092 11.3548 15.2186C13.3954 13.9699 15.4052 12.3086 16.8825 10.5396C18.6118 8.46687 19.3071 6.58339 18.7416 5.50303C18.6613 5.349 18.5535 5.21698 18.4303 5.10147C18.6976 5.27089 18.8978 5.49312 19.02 5.77037ZM18.6063 5.57234C19.1421 6.59659 18.4523 8.41626 16.7648 10.4395C15.4624 12.0017 13.7474 13.4748 11.962 14.6531C13.7969 13.3604 15.5548 11.7388 16.8209 10.0698C18.361 8.04441 18.9033 6.32265 18.3148 5.3479C18.2246 5.20048 18.1069 5.07616 17.9694 4.97055C18.2532 5.11247 18.471 5.3105 18.6063 5.57124V5.57234ZM18.1828 5.42821C18.7295 6.33255 18.1751 8.0323 16.6988 9.9774C15.5823 11.4472 14.0851 12.8818 12.4889 14.0799C14.1247 12.774 15.6483 11.2118 16.723 9.64625C18.0552 7.71106 18.4765 6.10702 17.8814 5.24449C17.7791 5.09706 17.6482 4.97715 17.4942 4.88143C17.8 4.99475 18.031 5.17738 18.1828 5.42821ZM17.756 5.3325C18.3126 6.13892 17.8913 7.67915 16.5976 9.56043C15.6494 10.9389 14.3535 12.3163 12.9388 13.5144C14.381 12.2162 15.689 10.7244 16.5932 9.26669C17.7296 7.43272 18.0387 5.94309 17.4436 5.18288C17.3303 5.03656 17.1862 4.92324 17.0124 4.83743C17.338 4.92544 17.5877 5.09156 17.7549 5.3325H17.756ZM17.3248 5.27639C17.8781 5.9849 17.5624 7.40961 16.4623 9.18748C15.6659 10.4714 14.5537 11.7839 13.3107 12.9643C14.5713 11.6937 15.6835 10.2821 16.4315 8.93004C17.3864 7.20608 17.5954 5.83197 17.0069 5.15977C16.8891 5.02555 16.7417 4.92434 16.5679 4.85173C16.8979 4.91554 17.151 5.05746 17.3248 5.27749V5.27639ZM16.8913 5.25989C17.4348 5.87928 17.2192 7.19068 16.2984 8.85523C15.6373 10.05 14.6868 11.2943 13.6044 12.4418C14.6945 11.2118 15.6351 9.88388 16.2445 8.63299C17.0311 7.02345 17.1488 5.76046 16.5701 5.16968C16.448 5.04536 16.2984 4.95404 16.1224 4.89353C16.4535 4.93534 16.7131 5.05526 16.8913 5.25879V5.25989ZM16.4623 5.27749C16.9914 5.81877 16.8638 7.01905 16.107 8.56699C14.6472 11.5572 11.2822 15.0118 8.49242 16.42C8.49022 16.4222 8.48802 16.4222 8.48692 16.4244C8.40882 16.4618 8.33292 16.5003 8.25481 16.5366C8.23501 16.5465 8.21301 16.5542 8.19321 16.5641C6.94905 17.1351 6.0085 17.189 5.54318 16.7159C5.01185 16.1724 5.14166 14.9743 5.89629 13.4264C7.35607 10.4384 10.7167 6.98495 13.5054 5.57564C13.5175 5.57014 13.5274 5.56353 13.5395 5.55913C13.6077 5.52503 13.6748 5.49092 13.743 5.45902C13.7694 5.44692 13.7947 5.43702 13.8211 5.42491C15.0609 4.85723 16.0003 4.80332 16.4634 5.27749H16.4623ZM4.24731 16.6631C3.69068 15.8567 4.11201 14.3142 5.40347 12.4352C6.35172 11.0567 7.64978 9.67925 9.06445 8.47897C7.62008 9.77937 6.31212 11.2712 5.41007 12.7289C4.27371 14.5629 3.9624 16.0503 4.55753 16.8127C4.66753 16.9524 4.80504 17.0625 4.96895 17.1461C4.65543 17.0559 4.41012 16.8985 4.24841 16.6631H4.24731ZM4.49042 17.1043C4.19451 16.9887 3.9668 16.8105 3.81719 16.5652C3.27046 15.662 3.82489 13.9633 5.30116 12.0171C6.41772 10.5451 7.9171 9.11267 9.51328 7.91239C7.87749 9.22048 6.35392 10.7827 5.27806 12.3461C3.9459 14.2834 3.52458 15.8875 4.12191 16.75C4.21981 16.8919 4.34412 17.0097 4.49152 17.1032L4.49042 17.1043ZM4.67853 16.7192C4.12521 16.0107 4.43872 14.5838 5.53878 12.8081C6.33522 11.522 7.44957 10.2117 8.69153 9.03125C7.43087 10.3019 6.31762 11.7135 5.57068 13.0634C4.61583 14.7884 4.40682 16.1625 4.99535 16.8336C5.10866 16.9634 5.25056 17.0636 5.41667 17.1351C5.09765 17.0691 4.84574 16.9337 4.67743 16.7181L4.67853 16.7192ZM5.10976 16.7357C4.56633 16.1141 4.78414 14.8049 5.70489 13.1404C6.36602 11.9423 7.31647 10.698 8.40332 9.54943C7.30877 10.7794 6.36822 12.1095 5.75769 13.3604C4.97335 14.9699 4.85344 16.2329 5.43207 16.8237C5.55418 16.948 5.70158 17.0394 5.87539 17.0999C5.54978 17.0581 5.29016 16.9403 5.11086 16.7368L5.10976 16.7357ZM5.32317 9.14677C2.71494 11.3053 1.35527 13.6002 1.68308 15.2879C1.71499 15.4573 1.77109 15.6157 1.83709 15.7676C1.65558 15.4716 1.54008 15.1427 1.49937 14.7785C1.30357 12.9731 2.83374 10.6584 5.59488 8.58569C7.9996 6.78032 10.9631 5.45792 13.6704 4.92104C10.9026 5.58664 7.78949 7.10377 5.32317 9.14677ZM1.83269 15.2582C1.51698 13.6288 2.85684 11.3878 5.42107 9.26449C7.51008 7.53283 10.1436 6.14332 12.6308 5.36771C10.0765 6.26214 7.33847 7.83978 5.19776 9.78927C2.80294 11.9665 1.62698 14.1756 2.0483 15.6928C2.0923 15.8589 2.16161 16.0085 2.24411 16.1504C2.0384 15.8908 1.89869 15.5937 1.83269 15.2582ZM2.19571 15.6531C1.78979 14.191 2.95035 12.0402 5.30116 9.90149C7.23176 8.14342 9.67608 6.6725 12.0368 5.74946C9.60458 6.79572 7.06235 8.45367 5.12296 10.3889C2.95255 12.5562 1.946 14.663 2.43442 16.025C2.49272 16.1845 2.57413 16.3286 2.66983 16.4629C2.44212 16.2351 2.28041 15.9656 2.19461 15.6542L2.19571 15.6531ZM2.57963 15.9722C2.11211 14.6685 3.10326 12.6211 5.23406 10.4956C6.87974 8.85413 8.99845 7.39201 11.1117 6.34905C8.93685 7.50973 6.74994 9.13907 5.10096 10.9444C3.15166 13.0755 2.30682 15.0723 2.84254 16.2868C2.91295 16.4442 3.00645 16.5828 3.11866 16.706C2.87114 16.5102 2.68743 16.2648 2.58183 15.9711L2.57963 15.9722ZM2.98115 16.2263C2.47182 15.0701 3.30677 13.1327 5.21426 11.0479C6.71584 9.40421 8.66733 7.90579 10.6441 6.78032C8.60353 8.0268 6.59593 9.68805 5.12076 11.4582C3.39147 13.5309 2.69623 15.4144 3.25946 16.4948C3.33757 16.6422 3.43767 16.772 3.55868 16.8864C3.29686 16.7192 3.10106 16.5014 2.98115 16.2274V16.2263ZM3.39477 16.4222C2.86124 15.4001 3.55098 13.5804 5.23846 11.555C6.54093 9.9928 8.25811 8.51968 10.0435 7.3414C8.20641 8.6341 6.44852 10.2557 5.18126 11.9247C3.64338 13.9523 3.09886 15.673 3.68738 16.6466C3.77759 16.794 3.89309 16.9183 4.0273 17.0218C3.74569 16.8798 3.53228 16.6818 3.39587 16.4222H3.39477ZM8.87304 18.6071C10.7981 18.6071 12.7969 18.2231 14.6505 17.497C17.9793 16.1889 20.4995 13.9105 21.3928 11.401C21.5347 11.0017 21.6326 10.6023 21.6887 10.2084C21.6447 10.995 21.4412 11.7938 21.076 12.5848C19.9297 15.069 17.294 17.178 14.0268 18.2253C12.5527 18.6984 11.0369 18.9382 9.52538 18.9382C7.36817 18.9382 5.40347 18.4454 3.84579 17.574C5.23956 18.2407 6.95675 18.6071 8.87414 18.6071H8.87304ZM21.2487 11.3493C20.3697 13.8181 17.8836 16.0624 14.5944 17.3529C12.6891 18.0999 10.7167 18.4575 8.86754 18.4575C7.27796 18.4553 5.78189 18.1901 4.50032 17.6863C5.57508 18.0361 6.81264 18.2231 8.16901 18.2231C10.4758 18.2231 12.9553 17.6598 15.1566 16.6411C18.4611 15.1097 20.8086 12.7366 21.4335 10.292C21.5149 9.973 21.5633 9.65505 21.5831 9.3459C21.6007 9.9972 21.4907 10.6705 21.2498 11.3493H21.2487ZM21.4104 8.56369C21.472 9.10717 21.4324 9.67375 21.2828 10.2557C20.6711 12.6563 18.3555 14.9908 15.0917 16.5025C11.7244 18.0625 8.0205 18.4355 5.18676 17.7226C5.88749 17.8601 6.65093 17.9305 7.46387 17.9305C10.1502 17.9305 13.0357 17.1791 15.5922 15.816C18.8296 14.0887 20.9857 11.6617 21.3576 9.3294C21.3994 9.06976 21.4159 8.81452 21.4115 8.56479L21.4104 8.56369ZM21.2047 9.3052C20.8416 11.5924 18.7141 13.9743 15.5196 15.6807C12.3602 17.3661 8.78614 18.0416 5.9359 17.6896C6.21751 17.7094 6.50903 17.7215 6.81044 17.7215C9.73989 17.7215 13.1589 16.7126 15.9563 15.0217C19.086 13.1305 21.0408 10.6914 21.1882 8.49877C21.2025 8.28094 21.1926 8.06971 21.1706 7.86398C21.2685 8.31945 21.2839 8.80242 21.2047 9.3063V9.3052ZM21.0353 8.48887C20.8911 10.632 18.9638 13.0249 15.8793 14.8896C12.9531 16.6576 9.56498 17.5839 6.74444 17.5696C9.78939 17.4453 13.3866 16.2032 16.2599 14.2603C19.2411 12.2426 20.9923 9.82667 20.9494 7.79577C20.9439 7.60214 20.9175 7.41621 20.879 7.23689C21.0089 7.62634 21.065 8.04551 21.0353 8.48887ZM20.7954 7.80017C20.8394 9.77717 19.1124 12.1458 16.1741 14.1338C13.5043 15.9414 10.3405 17.0702 7.59918 17.3595C10.5286 16.9282 13.8519 15.5255 16.4997 13.5364C19.3038 11.4318 20.857 9.06316 20.6535 7.20278C20.6359 7.02455 20.5941 6.85733 20.5413 6.6934C20.6975 7.03115 20.7844 7.40081 20.7954 7.80017ZM16.4062 13.4143C13.9498 15.2593 10.9708 16.5542 8.30871 17.0834C11.1227 16.4068 14.2633 14.8544 16.6801 12.8532C19.2862 10.6947 20.648 8.39756 20.3202 6.71211C20.2861 6.54268 20.2322 6.38426 20.164 6.23244C20.3455 6.52838 20.461 6.85733 20.5017 7.22148C20.6997 9.02685 19.1674 11.3416 16.4062 13.4143ZM11.0016 0.148522C15.0719 0.148522 18.6239 2.40496 20.4797 5.73076C19.8648 4.77802 19.0739 3.91549 18.1234 3.18388C15.8892 1.45992 13.0445 0.651298 10.1194 0.908736C7.19766 1.16397 4.53993 2.45447 2.63463 4.54368C1.81179 5.44472 1.17266 6.44697 0.731537 7.51193C2.18691 3.23669 6.23841 0.148522 11.0016 0.148522ZM2.74794 4.6438C4.62683 2.58759 7.24936 1.3125 10.1326 1.06166C10.478 1.03195 10.8311 1.01545 11.1788 1.01545C13.7166 1.01545 16.085 1.80867 18.0288 3.306C18.8571 3.94299 19.5645 4.6801 20.1354 5.49312C17.8363 2.6371 13.6715 1.08476 9.31197 1.82187C6.12291 2.36095 3.32657 4.05301 1.63908 6.46347C1.13636 7.18408 0.746937 7.94979 0.476324 8.74081C0.875644 7.25449 1.64018 5.85728 2.74684 4.6449L2.74794 4.6438ZM1.76559 6.55148C3.42887 4.17513 6.18891 2.50508 9.33837 1.9737C10.0468 1.85378 10.764 1.79217 11.4747 1.79217C14.6934 1.79217 17.5833 3.01885 19.4842 4.98925C16.9441 2.6866 12.7683 1.69755 8.58263 2.72841C5.28906 3.54143 2.57193 5.44912 1.12536 7.963C0.79534 8.53618 0.542327 9.12147 0.366318 9.71226C0.60613 8.60989 1.07365 7.53723 1.76449 6.55038L1.76559 6.55148ZM1.25846 8.03891C2.68413 5.56023 5.36827 3.67895 8.62113 2.87803C9.70799 2.61069 10.8157 2.47427 11.9158 2.47427C14.733 2.47427 17.2456 3.3335 19.031 4.78682C16.3215 2.86373 12.0456 2.30265 7.9314 3.62284C4.62353 4.6845 1.9526 6.82322 0.788739 9.3459C0.555528 9.85088 0.387219 10.3603 0.281614 10.8663C0.40372 9.91139 0.729336 8.96084 1.25846 8.04001V8.03891ZM0.927346 9.40861C2.0758 6.92554 4.70934 4.81652 7.9787 3.76807C9.45277 3.29719 10.9664 3.05736 12.4801 3.05736C14.689 3.05736 16.6977 3.57444 18.273 4.48537C15.4195 3.06946 11.2415 2.97375 7.35387 4.49968C4.0218 5.80887 1.50157 8.08511 0.60943 10.5935C0.467523 10.995 0.369618 11.3922 0.315716 11.7861C0.359718 10.9995 0.561028 10.2007 0.927346 9.40971V9.40861ZM0.755738 10.6452C1.63248 8.17863 4.12081 5.93429 7.40997 4.6438C9.24706 3.92099 11.2261 3.53923 13.1336 3.53923C14.8408 3.53923 16.3842 3.83518 17.679 4.37426C14.7275 3.3434 10.5792 3.62504 6.84894 5.3545C3.54108 6.88703 1.19466 9.26009 0.570929 11.7025C0.489524 12.0237 0.438922 12.3395 0.421321 12.6508C0.40372 11.9973 0.513726 11.3251 0.754638 10.6452H0.755738ZM0.59403 13.433C0.530227 12.8895 0.572029 12.3229 0.719436 11.7399C1.33217 9.3415 3.64668 7.00695 6.91165 5.49202C9.09415 4.48097 11.555 3.92429 13.8376 3.92429C14.9442 3.92429 15.9706 4.05191 16.8913 4.28954C13.8915 3.68445 9.89939 4.31925 6.41332 6.18073C3.17366 7.91019 1.01865 10.3339 0.646832 12.6695C0.60503 12.9291 0.588529 13.1844 0.59293 13.4341L0.59403 13.433ZM0.79754 12.6915C1.16276 10.4043 3.29026 8.0202 6.48482 6.31495C9.02155 4.96284 11.8828 4.21583 14.5427 4.21583C15.0697 4.21583 15.5768 4.24774 16.0586 4.30825C13.0632 4.09261 9.27126 5.02775 6.0459 6.97615C2.91735 8.86843 0.960348 11.3053 0.815141 13.4979C0.80084 13.718 0.810741 13.927 0.832742 14.1349C0.732637 13.6773 0.717236 13.1965 0.79644 12.6926L0.79754 12.6915ZM0.966948 13.5067C1.11106 11.3636 3.03945 8.97075 6.12511 7.10817C8.90055 5.42821 12.292 4.42596 15.194 4.42596C15.2138 4.42596 15.2336 4.42816 15.2534 4.42816C12.2997 4.55028 8.71684 5.72636 5.74339 7.73746C2.76224 9.75516 1.00875 12.1711 1.05385 14.202C1.05825 14.3957 1.08575 14.5794 1.12206 14.7609C0.99225 14.3693 0.938347 13.9523 0.965848 13.5067H0.966948ZM5.82919 7.86288C8.41102 6.11692 11.5803 4.94084 14.3964 4.6438C11.533 5.06956 8.20421 6.43377 5.50357 8.46027C2.69733 10.5671 1.14406 12.9335 1.34757 14.7939C1.36737 14.9732 1.40917 15.1416 1.46087 15.3055C1.30357 14.9677 1.21556 14.5981 1.20676 14.1987C1.16056 12.2195 2.88984 9.85308 5.82809 7.86398L5.82919 7.86288ZM11.0016 21.8449C6.87974 21.8449 3.28916 19.5345 1.45427 16.1405C1.9999 17.013 2.69073 17.8139 3.51358 18.5092C5.51678 20.2012 8.11621 21.132 10.8344 21.132C11.1821 21.132 11.5352 21.1155 11.885 21.0858C14.8111 20.8305 17.4711 19.54 19.3742 17.4552C20.1871 16.5641 20.8185 15.5717 21.2597 14.5178C19.7944 18.7754 15.7517 21.846 11.0027 21.846L11.0016 21.8449ZM19.2598 17.3507C17.3831 19.408 14.7583 20.6798 11.8707 20.9339C11.5297 20.9636 11.1821 20.9779 10.8421 20.9779H10.8344C8.15471 20.9779 5.59048 20.0593 3.61368 18.3937C2.96685 17.8469 2.40142 17.233 1.9262 16.5707C3.82929 18.8854 6.98315 20.3553 10.5275 20.3553H10.5297C11.2492 20.3553 11.9752 20.2936 12.6902 20.1737C15.8793 19.6324 18.6767 17.9404 20.3631 15.5321C20.8724 14.8049 21.2641 14.0304 21.5336 13.2328C21.1387 14.729 20.3708 16.135 19.2609 17.3507H19.2598ZM20.2388 15.443C18.5755 17.8194 15.8155 19.4872 12.6638 20.0208C11.9565 20.1407 11.2382 20.2001 10.5286 20.2001C7.37917 20.2001 4.54763 19.0274 2.64453 17.1329C4.46732 18.7248 7.11186 19.6732 10.0875 19.6732C11.1997 19.6732 12.3206 19.5356 13.4185 19.2639C16.712 18.4531 19.4292 16.5454 20.8768 14.0315C21.2069 13.4583 21.4599 12.8708 21.6359 12.28C21.3961 13.3824 20.9274 14.4551 20.2377 15.4441L20.2388 15.443ZM20.7437 13.9556C19.3181 16.4343 16.6361 18.3155 13.3833 19.1165C12.2964 19.3838 11.1887 19.5202 10.0897 19.5202H10.0853C7.24386 19.5202 4.71154 18.6456 2.92395 17.167C4.60923 18.3838 6.93145 19.0901 9.52648 19.0901C11.0545 19.0901 12.5835 18.8469 14.0719 18.3706C17.3809 17.3078 20.0507 15.1691 21.2157 12.6486C21.4489 12.1436 21.6172 11.6342 21.7206 11.1271C21.6007 12.0842 21.2729 13.0348 20.7437 13.9556Z" fill="#CCCCCC"/>
</svg>
