<svg width="37" height="36" viewBox="0 0 37 36" fill="none" xmlns="http://www.w3.org/2000/svg">
<path d="M24.828 12.1826C27.5364 12.1826 30.1339 13.2585 32.049 15.1736C33.9641 17.0888 35.0401 19.6862 35.0401 22.3946V34.3086H28.232V22.3946C28.232 21.4918 27.8734 20.626 27.235 19.9876C26.5967 19.3493 25.7308 18.9906 24.828 18.9906C23.9252 18.9906 23.0594 19.3493 22.421 19.9876C21.7827 20.626 21.424 21.4918 21.424 22.3946V34.3086H14.616V22.3946C14.616 19.6862 15.6919 17.0888 17.6071 15.1736C19.5222 13.2585 22.1196 12.1826 24.828 12.1826V12.1826Z" stroke="#CCCCCC" stroke-width="2" stroke-linecap="round" stroke-linejoin="round"/>
<path d="M7.80801 13.8848H1V34.3088H7.80801V13.8848Z" stroke="#CCCCCC" stroke-width="2" stroke-linecap="round" stroke-linejoin="round"/>
<path d="M4.404 8.77871C6.28398 8.77871 7.80801 7.25469 7.80801 5.37471C7.80801 3.49473 6.28398 1.9707 4.404 1.9707C2.52402 1.9707 1 3.49473 1 5.37471C1 7.25469 2.52402 8.77871 4.404 8.77871Z" stroke="#CCCCCC" stroke-width="2" stroke-linecap="round" stroke-linejoin="round"/>
</svg>
