<svg width="37" height="38" viewBox="0 0 37 38" fill="none" xmlns="http://www.w3.org/2000/svg">
<path d="M26.53 1.9707H9.51001C4.81006 1.9707 1 5.78076 1 10.4807V27.5007C1 32.2007 4.81006 36.0107 9.51001 36.0107H26.53C31.23 36.0107 35.04 32.2007 35.04 27.5007V10.4807C35.04 5.78076 31.23 1.9707 26.53 1.9707Z" stroke="#CCCCCC" stroke-width="2" stroke-linecap="round" stroke-linejoin="round"/>
<path d="M24.8281 17.9188C25.0381 19.3353 24.7962 20.7819 24.1366 22.053C23.4771 23.324 22.4336 24.3547 21.1545 24.9985C19.8754 25.6423 18.4259 25.8664 17.0121 25.6389C15.5983 25.4114 14.2923 24.7439 13.2797 23.7314C12.2671 22.7188 11.5996 21.4128 11.3721 19.999C11.1446 18.5852 11.3687 17.1357 12.0125 15.8566C12.6563 14.5775 13.6871 13.534 14.9581 12.8744C16.2292 12.2149 17.6758 11.973 19.0923 12.183C20.5372 12.3973 21.8748 13.0706 22.9077 14.1034C23.9405 15.1362 24.6138 16.4739 24.8281 17.9188Z" stroke="#CCCCCC" stroke-width="2" stroke-linecap="round" stroke-linejoin="round"/>
<path d="M27.381 9.62988H27.3976" stroke="#CCCCCC" stroke-width="2" stroke-linecap="round" stroke-linejoin="round"/>
</svg>
