<svg width="350" height="75" viewBox="0 0 350 75" fill="none" xmlns="http://www.w3.org/2000/svg">
<g clip-path="url(#clip0_40_311)">
<path d="M179.15 61.3442H175.815C175.841 60.1986 175.841 59.1485 175.841 57.4155V47.6305C175.841 46.1178 175.841 45.0456 175.815 44.0176H188.034C194.083 44.0176 195.662 45.6551 195.662 49.8004V49.8996C195.662 54.0486 194.083 55.8073 188.034 55.8073C185.886 55.8073 181.838 55.8073 179.121 55.7816V57.4412C179.121 59.1742 179.121 60.1766 179.146 61.3478L179.15 61.3442ZM179.124 46.8484V52.925H188.012C191.42 52.925 192.283 52.1466 192.283 49.8996V49.8519C192.283 47.6048 191.42 46.8521 188.012 46.8521H179.124V46.8484Z" fill="#CCCCCC"/>
<path d="M220.698 47.1383C220.698 45.8715 220.698 45.1115 220.673 44.0137H224.004C223.978 45.1372 223.978 45.8458 223.978 47.1383V57.3895C223.978 59.4383 223.978 60.0735 224.004 61.3439H220.673C220.698 60.1469 220.698 59.2437 220.698 57.4152V47.1419V47.1383Z" fill="#CCCCCC"/>
<path d="M259.118 46.9696H256.451C254.13 46.9696 251.985 46.9696 250.109 46.9953V44.0176H271.439V46.9953C269.562 46.9696 267.91 46.9696 266.922 46.9696H262.43V57.3898C262.43 59.4386 262.43 60.0738 262.456 61.3442H259.099C259.125 60.1472 259.125 59.244 259.125 57.4155V46.9696H259.118Z" fill="#CCCCCC"/>
<path d="M304.078 44.0137C305.73 47.5752 310.718 58.0247 312.374 61.3439H308.694L307.064 57.8522H294.841L293.188 61.3439H289.71C291.415 58.0247 296.472 47.5789 298.179 44.0137H304.078ZM296.152 55.0947H305.778L304.889 53.1414C303.927 51.0155 302.939 48.8456 302.124 47.0391H299.876C299.061 48.8199 298.073 50.9678 297.111 53.068L296.149 55.0947H296.152Z" fill="#CCCCCC"/>
<path d="M332.574 61.3442C332.599 60.2206 332.599 59.1962 332.599 57.4632V47.1899C332.599 45.8975 332.599 44.9428 332.574 44.0176H335.905C335.879 44.9465 335.879 45.8975 335.879 47.1899V58.3921H341.557C344.175 58.3921 348.024 58.3921 350 58.3664V61.3442H332.57H332.574Z" fill="#CCCCCC"/>
<path d="M94.522 16.538C94.522 15.2382 94.522 14.4158 94.4963 13.2959H104.703C113.52 13.2959 115.717 15.3153 115.717 21.9537V22.3539C115.717 28.9923 113.517 31.0153 104.677 31.0153H94.4963C94.522 29.6935 94.522 28.7206 94.522 27.072V16.5416V16.538ZM97.8825 16.2369V28.067H104.677C111.144 28.067 112.283 26.87 112.283 22.2768V22.0271C112.283 17.4339 111.144 16.2369 104.703 16.2369H97.8825Z" fill="#F2F2F2"/>
<path d="M141.598 13.2959C143.291 16.9382 148.392 27.6191 150.085 31.0117H146.321L144.653 27.4428H132.148L130.455 31.0117H126.892C128.637 27.6154 133.815 16.9382 135.556 13.2959H141.594H141.598ZM133.488 24.6266H143.342L142.431 22.6293C141.447 20.4593 140.437 18.238 139.603 16.3911H137.304C136.471 18.2123 135.461 20.4079 134.476 22.5558L133.492 24.6266H133.488Z" fill="#F2F2F2"/>
<path d="M161.187 22.5521V21.7517C161.187 14.9885 163.358 12.9434 172.253 12.9434C181.148 12.9434 183.344 14.9885 183.344 21.7517V22.5521C183.344 29.3153 181.148 31.3604 172.253 31.3604C163.358 31.3604 161.187 29.3153 161.187 22.5521ZM179.907 22.2767V22.0271C179.907 17.1841 178.772 15.9615 172.253 15.9615C165.734 15.9615 164.625 17.309 164.625 22.0271V22.2767C164.625 27.116 165.76 28.3386 172.253 28.3386C178.746 28.3386 179.907 27.116 179.907 22.2767Z" fill="#F2F2F2"/>
<path d="M202.552 31.0117C200.833 27.3694 195.758 16.6885 194.065 13.2959H197.829L201.718 21.682C202.703 23.8519 203.716 26.0733 204.546 27.9201H206.845C207.653 26.099 208.663 23.9033 209.673 21.7554L213.691 13.2959H217.253C215.509 16.6885 210.305 27.3694 208.564 31.0117H202.552Z" fill="#F2F2F2"/>
<path d="M230.401 16.4863C230.401 15.1866 230.401 14.3898 230.376 13.292H248.566V16.1853C244.501 16.1596 239.752 16.1596 236.593 16.1596H233.765V20.5766H247.534V23.3964C243.189 23.3707 241.041 23.3707 238.261 23.3707H233.765V28.1365H237.453C240.788 28.1365 246.675 28.1365 249.077 28.1108V31.0078H230.379C230.405 29.8108 230.405 28.8598 230.405 26.991V16.4863H230.401Z" fill="#F2F2F2"/>
<path d="M263.025 16.4863C263.025 15.1866 263.025 14.3898 263 13.292H275.633C281.697 13.292 283.463 14.6652 283.463 18.7077V18.8068C283.463 21.902 282.376 23.6241 278.994 24.2739C279.574 25.0964 280.206 25.9482 280.837 26.8698C281.697 28.1696 282.655 29.5391 283.691 31.0114H279.802C279.093 29.9136 278.336 28.7644 277.528 27.6408L275.457 24.7733H266.389V26.9689C266.389 29.0655 266.389 29.7374 266.415 31.0114H263.003C263.029 29.8145 263.029 28.8635 263.029 26.9946V16.49L263.025 16.4863ZM266.386 16.1853V21.902H275.556C279.093 21.902 279.974 20.9768 279.974 18.906V18.8582C279.974 16.8608 279.089 16.1889 275.556 16.1889H266.386V16.1853Z" fill="#F2F2F2"/>
<path d="M296.358 25.9704V25.5702L299.667 25.4968V26.0696C299.667 28.089 300.754 28.5149 307.398 28.5149C313.233 28.5149 313.891 27.9421 313.891 26.2458V26.2201C313.891 24.6229 313.083 23.9987 306.439 23.5251C297.849 22.9266 296.512 21.8288 296.512 18.1351C296.512 14.4414 297.977 12.9434 306.211 12.9434C314.978 12.9434 316.418 14.39 316.418 18.0837V18.4325L313.134 18.5096V18.0103C313.134 16.3139 312.15 15.7632 306.211 15.7632C300.728 15.7632 299.92 16.3874 299.92 17.9074C299.92 19.5303 300.574 20.0774 307.295 20.5033C315.962 21.0761 317.273 22.5264 317.273 26.1173C317.273 29.9101 315.885 31.3567 307.42 31.3567C298.124 31.3567 296.354 30.2846 296.354 25.9667L296.358 25.9704Z" fill="#F2F2F2"/>
<path d="M331.332 16.4863C331.332 15.1866 331.332 14.3898 331.306 13.292H349.497V16.1853C345.431 16.1596 340.679 16.1596 337.524 16.1596H334.696V20.5766H348.465V23.3964C344.12 23.3707 341.972 23.3707 339.192 23.3707H334.696V28.1365H338.384C341.718 28.1365 347.605 28.1365 350.007 28.1108V31.0078H331.31C331.336 29.8108 331.336 28.8598 331.336 26.991V16.4863H331.332Z" fill="#F2F2F2"/>
<path d="M94.4963 53.0677V52.2856C94.4963 45.6729 96.6191 43.6719 105.11 43.6719C113.601 43.6719 115.629 45.3315 115.603 50.5526L112.393 50.626C112.393 47.5749 111.453 46.6239 105.158 46.6239C98.863 46.6239 97.8531 47.942 97.8531 52.5536V52.7996C97.8531 57.5361 98.9622 58.7294 105.184 58.7294C111.405 58.7294 112.367 57.7527 112.415 54.7272L115.625 54.8007C115.651 59.9998 113.649 61.6814 105.106 61.6814C96.564 61.6814 94.4926 59.6803 94.4926 53.0677H94.4963Z" fill="#CCCCCC"/>
<path d="M148.142 44.0137C149.795 47.5752 154.782 58.0247 156.435 61.3439H152.755L151.124 57.8522H138.906L137.249 61.3439H133.768C135.472 58.0247 140.533 47.5789 142.237 44.0137H148.139H148.142ZM140.217 55.0947H149.843L148.954 53.1414C147.992 51.0155 147.004 48.8456 146.188 47.0391H143.941C143.125 48.8199 142.137 50.9678 141.175 53.068L140.213 55.0947H140.217Z" fill="#CCCCCC"/>
<path d="M73.4376 36.8316C73.4302 36.6443 73.4229 36.4534 73.4192 36.2661C73.4192 36.2184 73.4192 36.1743 73.4118 36.1266C73.3972 35.7668 73.3714 35.4143 73.3531 35.0545C73.3384 34.8672 73.3347 34.68 73.3127 34.489C73.3053 34.4156 73.298 34.3348 73.287 34.2614C73.2539 33.8465 73.1988 33.4426 73.1474 33.0277C73.1327 32.9359 73.1291 32.8331 73.1144 32.7413C73.074 32.4623 73.0336 32.1832 72.9932 31.9079C70.8263 18.2897 61.1527 7.14617 48.3573 2.86134C48.0965 2.77322 47.8358 2.68877 47.5713 2.60799C46.5393 2.28856 45.4926 2.01318 44.4239 1.78187C44.3835 1.77452 44.3431 1.76718 44.3101 1.76351C44.0493 1.70843 43.7886 1.65703 43.5241 1.6093C43.256 1.55422 42.9916 1.51016 42.7235 1.46978C42.437 1.4147 42.1506 1.37798 41.8641 1.3376C41.6034 1.29721 41.3499 1.26416 41.0892 1.23112C41.0304 1.23112 40.968 1.22378 40.9092 1.21276C40.6632 1.18706 40.4171 1.15769 40.1674 1.13933C39.8882 1.11363 39.6018 1.0916 39.3153 1.07324C38.4633 1.01449 37.6002 0.981445 36.7298 0.981445C35.7749 0.981445 34.8347 1.01449 33.9019 1.08792C33.2812 1.13566 32.6679 1.20175 32.0546 1.27518C30.8279 1.43673 29.6196 1.64969 28.4334 1.92139C27.8457 2.06091 27.2581 2.21512 26.6815 2.37301C26.1013 2.53823 25.5283 2.71814 24.9627 2.91274C13.596 6.75697 4.70829 16.0279 1.39192 27.634C1.39192 27.634 1.39927 27.6414 1.39192 27.6487C1.23033 28.2215 1.07975 28.8016 0.940189 29.3964C0.807975 29.9913 0.679433 30.5897 0.572927 31.1956C0.466422 31.794 0.374606 32.4035 0.293809 33.0094V33.0167C0.220357 33.6299 0.15425 34.243 0.106506 34.8635C0.0330535 35.7962 0 36.7361 0 37.6907C0 37.9367 0.00734522 38.1791 0.0146904 38.4251C0.0220357 38.6637 0.0293809 38.9134 0.0403987 39.1521V39.2438C0.0550892 39.6184 0.0807975 39.9855 0.106506 40.349C0.121196 40.5289 0.124869 40.7088 0.139559 40.8887C0.146904 40.9695 0.157922 41.043 0.165268 41.1237C0.198321 41.5019 0.246065 41.8764 0.290136 42.2583C0.304827 42.3501 0.315845 42.4529 0.330535 42.5447C2.33578 57.7013 13.6254 69.9646 28.2791 73.4307C28.5472 73.4894 28.819 73.5555 29.0908 73.6106C29.3625 73.6693 29.6453 73.7244 29.9171 73.7758C30.1889 73.8309 30.4717 73.875 30.7508 73.9227C31.0226 73.9704 31.3053 74.0108 31.5845 74.0475C32.1427 74.1283 32.7046 74.1944 33.2702 74.2458H33.3032C33.575 74.2715 33.8505 74.2935 34.1296 74.3119C34.9816 74.3706 35.8484 74.4037 36.7225 74.4037C37.6773 74.4037 38.6175 74.3706 39.5504 74.2972C40.171 74.2495 40.7844 74.1834 41.3977 74.1099H41.405C42.011 74.0292 42.617 73.9374 43.2193 73.8309C43.8253 73.7244 44.4276 73.5959 45.0189 73.4637C45.6138 73.3242 46.1941 73.17 46.767 73.0121C46.7744 73.0048 46.7817 73.0121 46.7817 73.0121C58.3909 69.7003 67.6642 60.8149 71.5168 49.4511C71.7114 48.8856 71.8914 48.3128 72.0567 47.7327C72.2182 47.1526 72.3688 46.5651 72.5084 45.9813C72.7802 44.7954 72.9968 43.5874 73.1548 42.3611C73.2282 41.7479 73.2943 41.1347 73.3421 40.5142C73.4155 39.5816 73.4486 38.6417 73.4486 37.6871C73.4486 37.4007 73.4486 37.1143 73.4339 36.8352L73.4376 36.8316ZM66.6175 22.0127C66.4633 21.4657 66.2392 20.9663 65.9638 20.4927C66.6506 21.3518 67.117 22.3468 67.3373 23.4667C68.3914 28.9118 63.9108 36.391 55.3573 43.4773C48.1222 49.4621 39.2235 54.0957 30.9344 56.6071C39.6275 53.6294 48.9229 48.2541 56.1028 41.7222C64.0908 34.4487 68.0241 27.0833 66.6175 22.0127ZM66.1254 22.1523C67.4806 27.0319 63.5986 34.21 55.7576 41.3404C49.1653 47.3399 40.7954 52.337 32.7634 55.3992C41.0782 51.8927 49.8263 46.2273 56.3452 39.7212C63.5986 32.4843 66.9517 25.4494 65.3248 20.9112C65.1301 20.3715 64.851 19.8905 64.5315 19.4462C65.2917 20.2063 65.8389 21.1058 66.1254 22.1523ZM64.84 21.0875C66.4082 25.4384 63.0918 32.264 55.9853 39.3577C50.2597 45.0781 42.9512 50.0606 35.7382 53.5266C43.2046 49.6346 50.7665 44.0537 56.4334 37.8633C62.9412 30.7513 65.7544 24.0872 63.9732 20.0337C63.7382 19.5087 63.4187 19.046 63.0514 18.6275C63.8777 19.2884 64.4911 20.1071 64.84 21.0875ZM63.4995 20.2393C65.2072 24.0982 62.4197 30.5567 56.0514 37.5145C51.0309 43.0073 44.5157 48.0118 37.9087 51.7716C44.7214 47.6042 51.4313 42.06 56.3636 36.156C62.1369 29.2386 64.458 22.9527 62.5703 19.3471C62.3022 18.8331 61.9423 18.3925 61.5309 18.0069C62.4234 18.5724 63.0918 19.3141 63.4995 20.2393ZM62.1186 19.5784C63.9071 22.9967 61.6044 29.0697 55.9706 35.8218C51.6222 41.0356 45.8966 45.952 39.936 49.8843C46.0619 45.5701 51.9307 40.1581 56.1579 34.5882C61.2996 27.8286 63.1102 22.0825 61.1453 18.8294C60.8442 18.3374 60.4512 17.9225 59.9921 17.57C60.9397 18.0437 61.6668 18.7046 62.1186 19.5747V19.5784ZM60.7046 19.0974C62.5299 22.1155 60.6789 27.7883 55.7503 34.2798C52.0226 39.1851 47.0241 43.9729 41.6952 47.9714C47.1563 43.6131 52.2429 38.3994 55.8311 33.1746C60.2786 26.7161 61.6852 21.3628 59.6983 18.4843C59.3568 17.9923 58.9197 17.592 58.4056 17.2726C59.4265 17.6508 60.1978 18.2603 60.7046 19.0974ZM59.2796 18.778C61.138 21.4693 59.7314 26.6096 55.4124 32.8882C52.2466 37.4888 47.9202 42.0857 43.1973 46.0841C48.0121 41.7516 52.3788 36.7728 55.3977 31.9079C59.1915 25.7872 60.2235 20.8158 58.2366 18.2786C57.8583 17.7903 57.3772 17.4121 56.7969 17.1257C57.884 17.4195 58.7177 17.9739 59.276 18.778H59.2796ZM57.84 18.5907C59.6873 20.9553 58.6333 25.7101 54.9606 31.6435C52.3017 35.9283 48.5887 40.3086 44.4386 44.2483C48.6474 40.0075 52.3604 35.2968 54.8578 30.7843C58.0456 25.0308 58.7434 20.4449 56.7786 18.2015C56.3856 17.7536 55.8935 17.4158 55.3132 17.1735C56.415 17.3864 57.2597 17.8601 57.84 18.5944V18.5907ZM56.393 18.5357C58.2072 20.6028 57.4874 24.9794 54.4134 30.5347C52.2062 34.5221 49.033 38.6747 45.4192 42.5043C49.0588 38.3994 52.1988 33.9677 54.2335 29.793C56.8594 24.4213 57.2524 20.2063 55.3206 18.2346C54.9129 17.8197 54.4134 17.5149 53.8258 17.313C54.9313 17.4525 55.798 17.8527 56.393 18.532V18.5357ZM54.9606 18.5944C56.7272 20.4009 56.3011 24.4067 53.7744 29.5727C48.9008 39.5523 37.6663 51.0813 28.3526 55.781C28.3452 55.7884 28.3379 55.7884 28.3342 55.7957C28.0734 55.9205 27.82 56.049 27.5593 56.1702C27.4932 56.2032 27.4197 56.229 27.3536 56.262C23.1999 58.1676 20.0598 58.3475 18.5063 56.7687C16.7324 54.9549 17.1658 50.9564 19.6852 45.7904C24.5588 35.8182 35.7786 24.2928 45.0887 19.5894C45.1291 19.5711 45.1621 19.549 45.2025 19.5344C45.4302 19.4205 45.6542 19.3067 45.8819 19.2002C45.9701 19.1598 46.0546 19.1268 46.1427 19.0864C50.2817 17.1918 53.4181 17.0119 54.9643 18.5944H54.9606ZM14.18 56.5924C12.3216 53.9011 13.7282 48.7534 18.0399 42.4822C21.2057 37.8817 25.5393 33.2847 30.2623 29.2789C25.4402 33.6189 21.0735 38.5976 18.0619 43.4626C14.2681 49.5832 13.2287 54.5473 15.2156 57.0918C15.5829 57.5581 16.042 57.9253 16.5892 58.2043C15.5425 57.9032 14.7235 57.3782 14.1836 56.5924H14.18ZM14.9916 58.0648C14.0037 57.6793 13.2434 57.0844 12.744 56.2657C10.9187 53.2512 12.7697 47.5822 17.6983 41.087C21.426 36.1743 26.4318 31.3938 31.7608 27.388C26.2996 31.7536 21.213 36.9674 17.6212 42.1848C13.1737 48.6506 11.7671 54.0039 13.7613 56.8825C14.0881 57.3562 14.5031 57.749 14.9953 58.0611L14.9916 58.0648ZM15.6196 56.7797C13.7723 54.4151 14.819 49.653 18.4916 43.7269C21.1506 39.4348 24.8709 35.0618 29.0173 31.1221C24.8085 35.3629 21.0918 40.0736 18.5981 44.5788C15.4103 50.3359 14.7125 54.9218 16.6773 57.1616C17.0556 57.5948 17.5294 57.9289 18.0839 58.1676C17.0189 57.9473 16.1779 57.4957 15.6159 56.776L15.6196 56.7797ZM17.0593 56.8348C15.245 54.7603 15.9722 50.391 19.0462 44.8358C21.2534 40.8373 24.4265 36.6847 28.0551 32.8515C24.4008 36.9564 21.2608 41.3954 19.2225 45.5701C16.6039 50.9418 16.2036 55.1568 18.1354 57.1285C18.543 57.5434 19.0351 57.8482 19.6154 58.0501C18.5283 57.9106 17.6616 57.5177 17.063 56.8384L17.0593 56.8348ZM17.7718 31.5076C9.06401 38.7114 4.52466 46.3705 5.6191 52.0029C5.7256 52.5683 5.91291 53.097 6.13326 53.6037C5.52728 52.616 5.14166 51.5182 5.00577 50.3029C4.35205 44.2777 9.46065 36.5525 18.6789 29.6351C26.7072 23.6099 36.6013 19.1966 45.6396 17.4048C36.3993 19.6261 26.0058 24.6894 17.7718 31.5076ZM6.11857 51.9037C5.06453 46.466 9.53777 38.9868 18.0986 31.9005C25.0729 26.1213 33.8652 21.484 42.1689 18.8955C33.6411 21.8805 24.5 27.1457 17.3531 33.6519C9.35782 40.9181 5.43179 48.2908 6.8384 53.354C6.98531 53.9085 7.21668 54.4078 7.49213 54.8815C6.80535 54.0149 6.33893 53.0236 6.11857 51.9037ZM7.33053 53.2219C5.97534 48.3422 9.84995 41.1641 17.6983 34.0264C24.1438 28.1591 32.3043 23.2501 40.1857 20.1696C32.0656 23.6613 23.5782 29.1945 17.1034 35.653C9.85729 42.8861 6.49685 49.9174 8.12749 54.4629C8.32214 54.9953 8.59391 55.4763 8.91343 55.9242C8.1532 55.1642 7.61333 54.2646 7.32686 53.2255L7.33053 53.2219ZM8.61228 54.2866C7.05142 49.9357 10.3604 43.1028 17.4743 36.0091C22.9685 30.531 30.042 25.6513 37.0971 22.1706C29.8363 26.0442 22.5351 31.4819 17.0299 37.5071C10.522 44.6192 7.70147 51.2832 9.49003 55.3367C9.72508 55.8618 10.0372 56.3244 10.4119 56.7356C9.58552 56.0821 8.97219 55.2633 8.61962 54.283L8.61228 54.2866ZM9.95278 55.1348C8.25236 51.2759 11.0399 44.8101 17.4082 37.8523C22.4213 32.3668 28.9365 27.366 35.5362 23.6099C28.7235 27.7699 22.021 33.3141 17.096 39.2218C11.3227 46.1392 9.00157 52.4251 10.882 56.0307C11.1427 56.5227 11.4769 56.9559 11.8809 57.3378C11.0068 56.7797 10.3531 56.0527 9.95278 55.1385V55.1348ZM11.3337 55.7884C9.55246 52.3774 11.8552 46.3044 17.489 39.5449C21.8374 34.3312 27.5703 29.4148 33.531 25.4825C27.3977 29.7967 21.5289 35.2087 17.298 40.7786C12.1637 47.5455 10.3457 53.2879 12.3106 56.5374C12.6118 57.0294 12.9974 57.4443 13.4454 57.7894C12.5052 57.3158 11.7928 56.6549 11.3374 55.7884H11.3337ZM29.6233 63.0803C36.0504 63.0803 42.7235 61.7989 48.9118 59.3756C60.0252 55.01 68.4391 47.4059 71.4213 39.0309C71.8951 37.6981 72.2219 36.3653 72.4092 35.0508C72.2623 37.676 71.5829 40.3417 70.3636 42.9816C66.5367 51.2722 57.7371 58.3108 46.8295 61.8062C41.9082 63.385 36.8473 64.1854 31.8011 64.1854C24.5992 64.1854 18.0399 62.5405 12.8395 59.6326C17.4927 61.8576 23.2256 63.0803 29.627 63.0803H29.6233ZM70.9402 38.8583C68.0058 47.0975 59.7057 54.5877 48.7245 58.8946C42.3636 61.3876 35.7786 62.5809 29.6049 62.5809C24.298 62.5736 19.3032 61.6887 15.0247 60.0071C18.6128 61.1747 22.7445 61.7989 27.2728 61.7989C34.9743 61.7989 43.2524 59.919 50.6013 56.519C61.6338 51.4081 69.4711 43.4883 71.5572 35.3298C71.8289 34.2651 71.9905 33.204 72.0567 32.1722C72.1154 34.3458 71.7482 36.5929 70.9438 38.8583H70.9402ZM71.4801 29.5617C71.6857 31.3755 71.5535 33.2664 71.054 35.2087C69.0121 43.2203 61.2812 51.0115 50.3846 56.0564C39.1427 61.2628 26.777 62.5075 17.3164 60.1283C19.6558 60.5872 22.2046 60.8222 24.9187 60.8222C33.8872 60.8222 43.5205 58.3145 52.0556 53.7653C62.8641 48.0008 70.0624 39.9011 71.3038 32.1171C71.4433 31.2506 71.4984 30.3988 71.4837 29.5653L71.4801 29.5617ZM70.7933 32.0364C69.5813 39.6698 62.4785 47.6189 51.8132 53.3137C41.2655 58.9386 29.3332 61.193 19.8174 60.0181C20.7576 60.0842 21.7308 60.1246 22.7371 60.1246C32.5173 60.1246 43.9318 56.7577 53.2712 51.1143C63.7198 44.8027 70.2461 36.6627 70.7382 29.345C70.7859 28.618 70.7529 27.9131 70.6794 27.2265C71.0063 28.7466 71.0577 30.3584 70.7933 32.04V32.0364ZM70.2277 29.312C69.7466 36.4644 63.3122 44.4503 53.0142 50.6737C43.245 56.5741 31.9334 59.6656 22.5168 59.6179C32.6826 59.203 44.692 55.0577 54.2849 48.5735C64.2377 41.8397 70.0845 33.7767 69.9412 26.9988C69.9229 26.3526 69.8347 25.7321 69.7062 25.1336C70.1395 26.4334 70.3269 27.8323 70.2277 29.312ZM69.4271 27.0135C69.574 33.6115 63.808 41.5166 53.9984 48.1513C45.085 54.1838 34.5226 57.951 25.3704 58.9166C35.1506 57.4773 46.2455 52.7959 55.0855 46.1576C64.447 39.1337 69.6327 31.2286 68.9533 25.0198C68.8945 24.425 68.755 23.8669 68.5787 23.3198C69.1002 24.447 69.3903 25.6807 69.4271 27.0135ZM54.7733 45.75C46.5724 51.9074 36.627 56.229 27.7392 57.995C37.1338 55.7369 47.6191 50.5562 55.6878 43.8775C64.3882 36.6737 68.9349 29.0072 67.8405 23.3823C67.7266 22.8168 67.5467 22.2881 67.319 21.7814C67.925 22.7691 68.3106 23.8669 68.4465 25.0822C69.1075 31.1074 63.9916 38.8326 54.7733 45.75ZM36.7298 1.47712C50.3185 1.47712 62.1773 9.0077 68.373 20.1071C66.32 16.9275 63.6794 14.0489 60.5063 11.6072C53.0472 5.85374 43.5498 3.15507 33.7844 4.01424C24.0299 4.86606 15.1569 9.17293 8.79591 16.1454C6.04879 19.1525 3.915 22.4974 2.44229 26.0516C7.30115 11.7835 20.8274 1.47712 36.7298 1.47712ZM9.17419 16.4795C15.447 9.6172 24.2025 5.36174 33.8284 4.5246C34.9816 4.42546 36.1605 4.37039 37.3211 4.37039C45.7938 4.37039 53.7009 7.01766 60.1904 12.0148C62.9559 14.1407 65.3174 16.6007 67.2235 19.3141C59.5477 9.78242 45.6432 4.6017 31.0887 7.06172C20.4418 8.86083 11.106 14.5078 5.47219 22.5525C3.79381 24.9574 2.4937 27.5129 1.59024 30.1528C2.9234 25.1924 5.47586 20.5294 9.17051 16.4832L9.17419 16.4795ZM5.89454 22.8462C11.4475 14.9154 20.6621 9.34182 31.1768 7.56841C33.542 7.1682 35.9365 6.96258 38.309 6.96258C49.0551 6.96258 58.703 11.0565 65.0493 17.6324C56.5692 9.94765 42.628 6.64682 28.6537 10.0872C17.6579 12.8005 8.58657 19.1672 3.75708 27.5569C2.6553 29.4699 1.8106 31.4232 1.22298 33.3949C2.02361 29.7159 3.58447 26.136 5.89087 22.8425L5.89454 22.8462ZM4.20147 27.8103C8.96117 19.538 17.9223 13.2595 28.7823 10.5865C32.4108 9.6943 36.1091 9.23901 39.7817 9.23901C49.1873 9.23901 57.5755 12.1066 63.5362 16.9569C54.4906 10.5388 40.2151 8.66623 26.4795 13.0722C15.436 16.6154 6.51889 23.7531 2.63326 32.1722C1.85467 33.8575 1.29276 35.5575 0.940189 37.2465C1.34785 34.0595 2.43494 30.8871 4.20147 27.814V27.8103ZM3.09601 32.3815C6.93022 24.0946 15.7225 17.056 26.6375 13.5569C31.5588 11.9854 36.6123 11.185 41.6658 11.185C49.0404 11.185 55.7466 12.9107 61.0058 15.9508C51.479 11.2254 37.5304 10.9059 24.5514 15.9985C13.4271 20.3678 5.01312 27.9645 2.03463 36.3359C1.56086 37.676 1.234 39.0015 1.05404 40.316C1.20094 37.6907 1.87303 35.0251 3.09601 32.3852V32.3815ZM2.52308 36.5085C5.45016 28.2766 13.7576 20.7864 24.7387 16.4795C30.872 14.0673 37.479 12.7932 43.8473 12.7932C49.5472 12.7932 54.6999 13.7809 59.0226 15.58C49.1689 12.1396 35.3195 13.0796 22.8657 18.8514C11.8221 23.9661 3.98846 31.8858 1.90609 40.0369C1.63431 41.109 1.46537 42.1628 1.40661 43.2019C1.34785 41.0209 1.71511 38.7775 2.51941 36.5085H2.52308ZM1.98321 45.8124C1.7702 43.9986 1.90976 42.1077 2.40189 40.1618C4.44753 32.1575 12.1747 24.3663 23.075 19.3104C30.3615 15.9361 38.5771 14.0783 46.1978 14.0783C49.8924 14.0783 53.319 14.5042 56.393 15.2973C46.3778 13.2778 33.0498 15.3964 21.4113 21.6088C10.5955 27.3807 3.40084 35.4694 2.1595 43.2643C2.01994 44.1308 1.96485 44.9827 1.97954 45.8161L1.98321 45.8124ZM2.66264 43.3377C3.88195 35.7044 10.9848 27.7479 21.65 22.0568C30.1191 17.5443 39.6716 15.0513 48.5519 15.0513C50.3111 15.0513 52.0042 15.1577 53.6128 15.3597C43.6123 14.64 30.9528 17.7609 20.1847 24.2635C9.73977 30.5787 3.20619 38.7114 2.72141 46.0291C2.67366 46.7634 2.70672 47.461 2.78017 48.155C2.44596 46.6276 2.39454 45.023 2.65897 43.3414L2.66264 43.3377ZM3.22823 46.0584C3.70934 38.906 10.1474 30.9202 20.4491 24.7041C29.7151 19.0974 41.0378 15.7525 50.7261 15.7525C50.7922 15.7525 50.8583 15.7599 50.9244 15.7599C41.0635 16.1674 29.1018 20.0924 19.1747 26.8042C9.22193 33.5381 3.36779 41.601 3.51836 48.3789C3.53305 49.0251 3.62487 49.6383 3.74606 50.2441C3.3127 48.937 3.13274 47.5455 3.22455 46.0584H3.22823ZM19.4612 27.2228C28.0808 21.3959 38.6616 17.4709 48.0635 16.4795C38.5037 17.9005 27.3903 22.4533 18.3741 29.2165C9.00525 36.2478 3.81952 44.1455 4.49895 50.3543C4.56506 50.9528 4.70462 51.5145 4.87723 52.0616C4.35205 50.9344 4.05824 49.7007 4.02886 48.3679C3.87461 41.7626 9.64795 33.8649 19.4575 27.2265L19.4612 27.2228ZM36.7298 73.886C22.9685 73.886 10.9811 66.1755 4.85519 54.8484C6.67681 57.76 8.98321 60.433 11.7303 62.7535C18.4181 68.4005 27.0965 71.5067 36.1716 71.5067C37.3321 71.5067 38.511 71.4517 39.6789 71.3525C49.4481 70.5007 58.3284 66.1938 64.682 59.236C67.3961 56.262 69.5042 52.9502 70.9769 49.4327C66.085 63.642 52.5881 73.8896 36.7335 73.8896L36.7298 73.886ZM64.3001 58.8872C58.0346 65.7533 49.2718 69.9977 39.6312 70.8458C38.4927 70.945 37.3321 70.9927 36.1973 70.9927H36.1716C27.2251 70.9927 18.6642 67.9269 12.0645 62.368C9.90504 60.5432 8.01731 58.4944 6.43074 56.284C12.7844 64.0092 23.3137 68.9145 35.1469 68.9145H35.1542C37.5561 68.9145 39.9801 68.7089 42.3673 68.3087C53.0142 66.5023 62.3536 60.8552 67.9837 52.818C69.6841 50.391 70.9916 47.8062 71.8914 45.1442C70.5729 50.1377 68.0094 54.8301 64.3038 58.8872H64.3001ZM67.5687 52.5206C62.0157 60.4514 52.8011 66.0176 42.2791 67.7984C39.9176 68.1986 37.5194 68.3968 35.1506 68.3968C24.6359 68.3968 15.1826 64.4828 8.82896 58.1602C14.9145 63.4731 23.7434 66.6381 33.6779 66.6381C37.3909 66.6381 41.1333 66.1792 44.7985 65.2723C55.7943 62.5662 64.8657 56.1996 69.6988 47.8098C70.8006 45.8969 71.6453 43.9362 72.2329 41.9645C71.4323 45.6436 69.8678 49.2234 67.565 52.5242L67.5687 52.5206ZM69.2545 47.5565C64.4948 55.8287 55.5409 62.1073 44.681 64.7803C41.0525 65.6725 37.3541 66.1278 33.6852 66.1278H33.6705C24.1842 66.1278 15.7298 63.2088 9.7618 58.2741C15.3882 62.3349 23.1411 64.6921 31.8048 64.6921C36.9061 64.6921 42.011 63.8807 46.9801 62.2909C58.0273 58.744 66.9407 51.6063 70.83 43.1945C71.6086 41.5093 72.1705 39.8093 72.5157 38.1166C72.1154 41.311 71.021 44.4833 69.2545 47.5565Z" fill="#F2F2F2"/>
</g>
<defs>
<clipPath id="clip0_40_311">
<rect width="350" height="73.4332" fill="white" transform="translate(0 0.970703)"/>
</clipPath>
</defs>
</svg>
