<svg viewBox="0 0 1920 1771" fill="none" xmlns="http://www.w3.org/2000/svg">
    <g style="color:black" transform="rotate(0 960 895.5) translate(-50 -300) ">
    <path d="M2082.7 526.518C1998.54 480.968 1911.62 440.444 1822.62 405.273C1783.05 389.645 1742.04 374.867 1699.5 374.697C1590.74 374.271 1505.43 466.653 1447.51 558.703C1394.16 643.482 1350.96 734.658 1319.07 829.615C1287.5 923.726 1266.32 1023.06 1213.68 1107.21C1161.04 1191.37 1065.71 1259.03 967.795 1242.7C909.545 1232.99 858.847 1194.71 823.738 1147.2C788.652 1099.7 767.509 1043.39 750.684 986.765C731.418 921.938 715.439 852.335 668.553 803.6C620.012 753.155 541.036 734.654 475.147 758.316C381.414 791.961 332.897 891.88 281.257 977.059C215.668 1085.26 126.939 1185.01 9.99879 1233.29C-106.941 1281.57 -255.461 1267.37 -342 1175.05" stroke="white" stroke-width="1.5" stroke-miterlimit="10"/>
    <path d="M2082.16 555.528C1998.73 510.24 1912.27 470.614 1823.74 436.852C1784.39 421.854 1743.65 407.814 1701.47 407.833C1665.58 407.858 1632.17 417.778 1601.41 434.32C1539.74 467.477 1488.7 527.157 1449.4 587.006C1395.16 669.657 1351.16 759.039 1317.74 852.161C1290.99 926.695 1270.46 1004.62 1235.58 1075.25C1226.7 1093.24 1216.86 1110.78 1205.74 1127.61C1173.44 1176.45 1126.65 1219.18 1073.57 1241.87C1036.53 1257.73 996.638 1263.91 956.52 1256.23C898.514 1245.12 848.045 1206.14 812.544 1158.51C776.457 1110.23 753.323 1053.59 734.013 997.298C711.756 932.755 692.09 864.647 642.766 818.039C592.017 770.057 512.362 753.188 445.461 775.873C354.176 806.831 306.626 902.335 255.945 982.635C191.569 1084.63 105.375 1178.16 -7.29074 1222.4C-119.956 1266.63 -262.319 1251.06 -345.056 1160.99" stroke="#F6F5F4" stroke-width="1.5" stroke-miterlimit="10"/>
    <path d="M2081.62 584.56C1998.94 539.539 1912.92 500.828 1824.86 468.476C1785.73 454.084 1745.27 440.782 1703.44 440.992C1667.89 441.155 1634.72 450.851 1604.09 466.931C1542.58 499.162 1491.25 557.026 1451.26 615.349C1396.14 695.873 1351.3 783.457 1316.35 874.744C1288 948.824 1265.49 1026.4 1228.88 1096.33C1219.57 1114.14 1209.28 1131.45 1197.71 1148.04C1164.08 1196.18 1116.3 1237.8 1062.56 1258.85C1025.08 1273.56 985.174 1278.42 945.194 1269.76C887.454 1257.26 837.22 1217.57 801.298 1169.84C764.211 1120.78 739.104 1063.84 717.266 1007.84C692.024 943.556 668.667 876.967 616.933 832.466C563.999 786.953 483.659 771.738 415.724 793.443C326.942 821.798 280.279 912.799 230.558 988.218C167.389 1084.03 83.7318 1171.35 -24.6599 1211.53C-133.052 1251.72 -269.233 1234.79 -348.219 1146.98" stroke="#EFEDED" stroke-width="1.5" stroke-miterlimit="10"/>
    <path d="M2081.08 613.569C1999.15 568.84 1913.58 530.996 1825.98 500.054C1787.07 486.292 1746.86 473.723 1705.41 474.128C1670.22 474.458 1637.27 483.902 1606.78 499.495C1545.42 530.825 1493.84 586.83 1453.16 643.627C1397.13 721.995 1351.43 807.824 1315 897.238C1285 970.879 1260.56 1048.06 1222.22 1117.31C1212.48 1134.95 1201.74 1152.05 1189.75 1168.39C1154.81 1215.84 1106.03 1256.33 1051.59 1275.75C1013.66 1289.33 973.723 1292.86 933.909 1283.21C876.408 1269.34 826.437 1228.92 790.095 1181.08C752.007 1131.24 724.908 1073.96 700.585 1018.3C672.353 954.296 645.332 889.207 591.137 846.829C536.045 803.765 455.041 790.233 386.023 810.948C299.799 836.807 253.994 923.202 205.227 993.764C143.266 1083.4 62.1494 1164.48 -41.9683 1200.61C-146.086 1236.74 -276.091 1218.48 -351.294 1132.88" stroke="#E9E7E6" stroke-width="1.5" stroke-miterlimit="10"/>
    <path d="M2080.56 642.607C1999.36 598.14 1914.25 561.193 1827.12 531.661C1788.43 518.528 1748.5 506.697 1707.41 507.292C1672.55 507.761 1639.87 516.963 1609.49 532.112C1548.26 562.513 1496.43 616.71 1455.07 671.981C1398.15 748.222 1351.55 832.239 1313.69 919.836C1282.03 993.039 1255.67 1069.85 1215.58 1138.4C1205.42 1155.86 1194.23 1172.75 1181.81 1188.82C1145.55 1235.57 1095.76 1274.96 1040.66 1292.72C1002.29 1305.16 962.311 1307.36 922.658 1296.74C865.424 1281.47 815.663 1240.33 778.92 1192.42C739.827 1141.82 710.765 1084.2 683.933 1028.86C652.715 965.117 622.078 901.537 565.374 861.272C508.149 820.661 426.5 808.841 356.356 828.533C272.719 852.001 227.742 933.686 179.911 999.363C119.162 1082.8 40.5814 1157.66 -59.2622 1189.74C-159.106 1221.82 -282.93 1202.19 -354.354 1118.84" stroke="#E2E1E0" stroke-width="1.5" stroke-miterlimit="10"/>
    <path d="M2080.01 671.64C1999.57 627.464 1914.9 591.408 1828.26 563.267C1789.77 550.759 1750.13 539.67 1709.4 540.432C1674.91 541.067 1642.44 550.018 1612.21 564.68C1551.12 594.18 1499.02 646.537 1456.97 700.281C1399.15 774.395 1351.63 856.62 1312.33 942.377C1278.99 1015.14 1250.73 1091.56 1208.91 1159.44C1198.29 1176.71 1186.68 1193.39 1173.84 1209.21C1136.28 1255.25 1085.47 1293.54 1029.68 1309.67C990.875 1320.96 950.851 1321.85 911.36 1310.26C854.392 1293.6 804.979 1251.67 767.726 1203.73C727.745 1152.28 696.711 1094.35 667.238 1039.38C633.19 975.86 598.763 913.805 539.565 875.704C480.239 837.505 397.93 827.466 326.646 846.084C245.676 867.249 201.447 944.136 154.571 1004.96C95.0293 1082.21 19.009 1150.86 -76.5796 1178.86C-172.149 1206.9 -289.792 1185.91 -357.466 1104.81" stroke="#DCDADA" stroke-width="1.5" stroke-miterlimit="10"/>
    <path d="M2079.47 700.649C1999.78 656.74 1915.56 621.577 1829.37 594.869C1791.11 582.991 1751.75 572.639 1711.37 573.591C1677.21 574.365 1644.99 583.092 1614.91 597.296C1553.98 625.895 1501.61 676.416 1458.88 728.635C1400.15 800.593 1351.67 881.044 1310.99 964.97C1275.95 1037.28 1245.83 1113.35 1202.26 1180.52C1191.2 1197.61 1179.15 1214.07 1165.86 1229.65C1126.97 1275 1075.17 1312.17 1018.72 1326.66C979.473 1336.8 939.433 1336.38 900.081 1323.8C843.356 1305.75 794.201 1263.11 756.528 1215.06C715.55 1162.81 682.544 1104.58 650.567 1049.92C613.533 986.652 575.517 926.088 513.783 890.118C452.352 854.354 369.43 846.106 296.96 863.64C218.686 882.607 175.176 954.591 129.235 1010.53C70.9058 1081.58 -2.57822 1144.01 -93.8928 1167.96C-185.188 1191.95 -296.678 1169.62 -360.545 1090.74" stroke="#D7D5D4" stroke-width="1.5" stroke-miterlimit="10"/>
    <path d="M2078.93 729.682C1999.97 686.035 1916.21 651.768 1830.49 626.471C1792.45 615.222 1753.36 605.608 1713.34 606.727C1679.55 607.667 1647.56 616.147 1617.61 629.86C1556.8 657.529 1504.17 706.215 1460.75 756.908C1401.14 826.738 1351.66 905.36 1309.64 987.487C1272.85 1059.34 1240.89 1135.03 1195.59 1201.56C1184.11 1218.44 1171.6 1234.71 1157.9 1250.02C1117.69 1294.68 1064.89 1330.75 1007.75 1343.59C968.058 1352.6 927.978 1350.84 888.764 1337.29C832.305 1317.84 783.385 1274.49 745.292 1226.34C703.337 1173.32 668.316 1114.74 633.829 1060.41C593.834 997.411 552.216 938.285 487.931 904.518C424.427 871.146 340.88 864.76 267.204 881.182C191.66 898.029 148.83 965.055 103.824 1016.11C46.703 1080.98 -24.2403 1137.17 -111.262 1157.1C-198.26 1177.04 -303.592 1153.34 -363.708 1076.73" stroke="#D1CFCE" stroke-width="1.5" stroke-miterlimit="10"/>
    <path d="M2078.39 758.691C2000.18 715.335 1916.84 681.955 1831.61 658.048C1793.79 647.429 1754.95 638.548 1715.31 639.862C1681.86 640.941 1650.11 649.198 1620.3 662.448C1559.64 689.215 1506.75 736.065 1462.64 785.232C1402.15 852.912 1351.62 929.741 1308.27 1010.05C1269.74 1081.45 1235.96 1156.79 1188.89 1222.61C1176.98 1239.31 1164.02 1255.38 1149.88 1270.43C1108.36 1314.39 1054.55 1349.35 996.75 1360.54C956.613 1368.41 916.495 1365.33 877.442 1350.8C821.227 1329.96 772.569 1285.88 734.051 1237.64C691.095 1183.84 654.107 1124.94 617.111 1070.93C574.13 1008.19 528.956 950.515 462.102 918.923C396.53 887.918 312.395 883.451 237.47 898.729C164.709 913.564 122.488 975.496 78.4651 1021.67C22.5515 1080.37 -45.8554 1130.34 -128.598 1146.2C-211.322 1162.08 -310.474 1137.03 -366.811 1062.66" stroke="#CCC9C9" stroke-width="1.5" stroke-miterlimit="10"/>
    <path d="M2077.86 787.729C2000.42 744.64 1917.51 712.152 1832.75 689.655C1795.15 679.666 1756.59 671.522 1717.3 673.026C1684.21 674.272 1652.68 682.277 1623.01 695.041C1562.48 720.879 1509.35 765.921 1464.56 813.562C1403.15 879.11 1351.58 954.101 1306.96 1032.63C1266.64 1103.53 1231.07 1178.53 1182.26 1243.68C1169.92 1260.2 1156.51 1276.06 1141.96 1290.83C1099.11 1334.08 1044.31 1367.94 985.819 1377.5C945.244 1384.22 905.077 1379.85 866.19 1364.33C810.237 1342.12 761.818 1297.3 722.88 1248.96C678.924 1194.38 639.944 1135.15 600.463 1081.47C554.496 1018.99 505.744 962.755 436.339 933.365C366.935 903.976 283.987 902.255 207.807 916.29C137.839 929.19 96.2403 985.956 53.1529 1027.25C-1.54848 1079.74 -67.4191 1123.49 -145.888 1135.3C-224.338 1147.14 -317.313 1120.75 -369.895 1048.61" stroke="#C6C4C3" stroke-width="1.5" stroke-miterlimit="10"/>
    <path d="M2077.32 816.736C2000.61 773.934 1918.17 742.342 1833.89 721.26C1796.51 711.9 1758.22 704.494 1719.3 706.165C1686.55 707.55 1655.28 715.336 1625.72 727.632C1565.34 752.569 1511.93 795.77 1466.45 841.886C1404.15 905.306 1351.49 978.449 1305.6 1055.17C1263.49 1125.61 1226.15 1200.26 1175.59 1264.71C1162.82 1281.05 1148.96 1296.7 1133.97 1311.22C1089.81 1353.77 1034 1386.53 974.846 1394.44C933.827 1400.01 893.645 1394.32 854.901 1377.8C799.215 1354.19 751.002 1308.68 711.672 1260.22C666.715 1204.86 625.768 1145.3 583.754 1091.94C534.801 1029.72 482.502 974.889 410.52 947.722C338.537 920.554 255.56 921.03 178.083 933.788C110.937 944.855 69.9313 996.353 27.7985 1032.79C-25.6952 1079.1 -89.025 1116.61 -163.22 1124.37C-237.396 1132.16 -324.213 1104.4 -372.993 1034.51" stroke="#C1BFBE" stroke-width="1.5" stroke-miterlimit="10"/>
    <path d="M2076.78 845.771C2000.82 803.236 1918.82 772.536 1835 752.864C1797.85 744.134 1759.84 737.465 1721.27 739.326C1688.87 740.878 1657.83 748.389 1628.41 760.222C1568.18 784.234 1514.51 825.6 1468.34 870.189C1405.16 931.458 1351.36 1002.74 1304.25 1077.71C1260.29 1147.65 1221.21 1221.97 1168.92 1285.75C1155.72 1301.91 1141.42 1317.32 1126.01 1331.62C1080.53 1373.48 1023.71 1405.12 963.896 1411.37C922.434 1415.81 882.213 1408.79 843.631 1391.3C788.188 1366.3 740.233 1320.08 700.483 1271.51C654.549 1215.37 611.586 1155.48 567.087 1102.45C515.121 1040.51 459.308 987.036 384.738 962.138C313.022 938.177 227.18 939.939 148.397 951.346C84.1064 960.661 43.66 1006.81 2.46277 1038.36C-49.8187 1078.47 -110.617 1109.79 -180.533 1113.48C-250.435 1117.21 -331.071 1088.1 -376.096 1020.44" stroke="#BCB9B9" stroke-width="1.5" stroke-miterlimit="10"/>
    <path d="M2076.24 874.781C2001.03 832.513 1919.48 802.704 1836.12 784.442C1799.17 776.337 1761.45 770.411 1723.24 772.438C1691.19 774.128 1660.39 781.416 1631.1 792.786C1571 815.892 1517.07 855.423 1470.21 898.486C1406.14 957.628 1351.19 1027.03 1302.89 1100.25C1257.08 1169.67 1216.28 1243.71 1162.24 1306.8C1148.61 1322.79 1133.86 1337.99 1118.02 1352.01C1071.23 1393.18 1013.4 1423.69 952.894 1428.32C910.995 1431.6 870.73 1423.28 832.309 1404.82C777.132 1378.42 729.389 1331.48 689.242 1282.81C642.284 1225.89 597.349 1165.69 550.373 1112.95C495.417 1051.3 436.067 999.172 358.914 976.519C285.166 954.86 198.792 958.894 118.668 968.87C57.2432 976.507 17.3463 1017.23 -22.8963 1043.92C-73.9701 1077.86 -132.227 1102.93 -197.874 1102.59C-263.502 1102.28 -337.962 1071.83 -379.207 1006.41" stroke="#B7B4B4" stroke-width="1.5" stroke-miterlimit="10"/>
    <path d="M2075.72 903.817C2001.24 861.835 1920.15 832.923 1837.26 816.047C1800.53 808.572 1763.07 803.355 1725.23 805.601C1693.54 807.458 1662.96 814.494 1633.82 825.378C1573.86 847.559 1519.67 885.277 1472.13 926.815C1407.14 983.824 1351.04 1051.32 1301.55 1122.82C1253.86 1191.7 1211.36 1265.45 1155.59 1327.87C1141.53 1343.67 1126.33 1358.67 1110.07 1372.43C1061.95 1412.88 1003.13 1442.3 941.964 1445.29C899.621 1447.43 859.317 1437.78 821.058 1418.34C766.125 1390.55 718.639 1342.9 678.072 1294.13C630.108 1236.45 583.187 1175.9 533.702 1123.48C475.76 1062.09 412.873 1011.32 333.128 990.956C257.326 971.595 170.443 978.026 88.978 986.449C30.4239 992.507 -8.95277 1027.71 -48.2363 1049.52C-98.1023 1077.27 -153.819 1096.11 -215.191 1091.72C-276.545 1087.36 -344.824 1055.54 -382.291 992.365" stroke="#B2B0AF" stroke-width="1.5" stroke-miterlimit="10"/>
    <path d="M2075.18 932.827C2001.45 891.112 1920.8 863.092 1838.38 847.649C1801.87 840.78 1764.68 836.325 1727.2 838.761C1695.85 840.756 1665.53 847.573 1636.5 857.989C1576.69 879.27 1522.24 915.129 1474.01 955.164C1408.14 1010.02 1350.83 1075.62 1300.19 1145.41C1249.54 1215.19 1206.41 1287.23 1148.91 1348.95C1134.43 1364.55 1118.77 1379.36 1102.07 1392.85C1052.65 1432.6 992.816 1460.92 930.957 1462.26C888.172 1463.27 847.852 1452.29 809.732 1431.88C755.065 1402.69 707.786 1354.35 666.826 1305.45C617.862 1247 568.851 1186.24 516.979 1134.03C455.902 1073.04 389.631 1023.45 307.294 1005.38C229.465 988.302 142.053 997.249 59.2446 1004C3.57158 1008.55 -35.2712 1038.15 -73.6001 1055.1C-122.254 1076.66 -175.439 1089.3 -232.533 1080.84C-289.612 1072.43 -351.711 1039.25 -385.426 978.334" stroke="#ADABAA" stroke-width="1.5" stroke-miterlimit="10"/>
    <path d="M2074.63 961.86C2001.64 920.431 1921.46 893.283 1839.52 879.255C1803.23 873.016 1766.32 869.298 1729.2 871.901C1698.2 874.063 1668.1 880.628 1639.22 890.558C1579.53 910.932 1524.82 944.956 1475.91 983.441C1409.15 1036.17 1350.63 1099.83 1298.86 1167.93C1247.33 1235.69 1201.52 1308.92 1142.27 1369.96C1127.33 1385.38 1111.25 1399.96 1094.13 1413.22C1043.4 1452.29 982.558 1479.48 920.036 1479.18C876.808 1479.05 836.449 1466.74 798.466 1445.35C744.061 1414.8 696.909 1365.8 655.641 1316.72C605.555 1257.61 554.674 1196.39 500.293 1144.51C436.226 1083.8 366.642 1034.14 281.493 1019.77C201.394 1006.24 113.691 1016.58 29.5394 1021.52C-23.2614 1024.62 -61.5613 1048.58 -98.9547 1060.65C-146.401 1076.02 -197.045 1082.42 -249.865 1069.91C-302.647 1057.45 -358.616 1022.93 -388.525 964.236" stroke="#A8A6A6" stroke-width="1.5" stroke-miterlimit="10"/>
    <path d="M2074.09 990.869C2001.85 949.708 1922.08 923.471 1840.64 910.833C1804.58 905.224 1767.94 902.243 1731.17 905.037C1700.52 907.337 1670.65 913.679 1641.9 923.146C1582.38 942.595 1527.4 974.807 1477.8 1011.77C1410.13 1062.37 1350.39 1124.05 1297.5 1190.49C1244.6 1256.94 1196.57 1330.67 1135.6 1391.02C1120.23 1406.25 1103.7 1420.63 1086.14 1433.63C1034.07 1472 972.267 1498.09 909.03 1496.15C865.363 1494.86 824.961 1481.25 787.14 1458.89C732.978 1426.94 686.084 1377.23 644.396 1328.04C593.309 1268.16 540.432 1206.63 483.57 1155.06C416.518 1094.61 343.143 1047.63 255.66 1034.2C173.74 1021.62 85.3171 1036.1 -0.174608 1039.1C-50.0979 1040.84 -87.8604 1059.05 -124.295 1066.24C-170.529 1075.42 -218.636 1075.6 -267.182 1059.03C-315.69 1042.53 -365.478 1006.64 -391.636 950.209" stroke="#A3A1A1" stroke-width="1.5" stroke-miterlimit="10"/>
    <path d="M2073.55 1019.9C2002.07 979.008 1922.74 953.663 1841.76 942.435C1805.91 937.455 1769.55 935.213 1733.14 938.196C1702.84 940.664 1673.22 946.758 1644.59 955.734C1585.21 974.282 1529.95 1004.65 1479.67 1040.09C1411.11 1088.54 1350.11 1148.24 1296.14 1213.03C1242.17 1277.83 1191.66 1352.39 1128.93 1412.05C1113.13 1427.11 1096.15 1441.28 1078.18 1454C1024.8 1491.66 961.981 1516.67 898.085 1513.07C853.975 1510.64 813.557 1495.71 775.874 1472.37C721.979 1439.02 675.315 1388.62 633.211 1339.31C581.124 1278.64 526.279 1216.79 466.908 1165.54C396.889 1105.38 319.943 1059.67 229.883 1048.59C145.894 1038.25 56.9867 1055.77 -29.8562 1056.63C-76.9154 1057.09 -114.127 1069.48 -149.63 1071.81C-194.656 1074.81 -240.228 1068.77 -284.5 1048.16C-328.734 1027.6 -372.341 990.357 -394.72 936.163" stroke="#9F9D9C" stroke-width="1.5" stroke-miterlimit="10"/>
    <path d="M2073.03 1048.92C2002.28 1008.31 1923.42 983.834 1842.9 974.041C1807.28 969.69 1771.16 968.18 1735.13 971.335C1705.18 973.941 1675.8 979.789 1647.33 988.33C1588.08 1005.95 1532.58 1034.49 1481.61 1068.42C1412.16 1114.74 1349.91 1172.44 1294.83 1235.61C1239.75 1298.77 1186.75 1374.15 1122.29 1433.14C1106.06 1448.02 1088.64 1461.98 1070.22 1474.45C1015.54 1511.41 951.71 1535.3 887.126 1530.05C842.574 1526.48 802.117 1510.22 764.6 1485.89C710.948 1451.15 664.541 1400.04 622.018 1350.62C568.925 1289.2 512.089 1227.01 450.218 1176.04C377.213 1116.14 296.72 1071.71 204.083 1062.97C118.052 1054.87 28.5875 1075.68 -59.5568 1074.13C-103.789 1073.37 -140.436 1079.88 -174.98 1077.33C-218.799 1074.15 -261.806 1061.87 -301.804 1037.21C-341.764 1012.6 -379.194 974.022 -397.814 922.041" stroke="#9A9898" stroke-width="1.5" stroke-miterlimit="10"/>
    <path d="M2072.49 1077.95C2002.49 1037.61 1924.06 1014.05 1844.01 1005.64C1808.61 1001.92 1772.77 1001.15 1737.1 1004.5C1707.51 1007.27 1678.35 1012.86 1650.02 1020.92C1590.91 1037.64 1535.16 1064.34 1483.5 1096.72C1413.14 1140.91 1349.61 1196.58 1293.47 1258.15C1234.01 1323.36 1181.84 1395.86 1115.62 1454.18C1098.96 1468.87 1081.09 1482.6 1062.26 1494.82C1006.26 1531.09 941.428 1553.86 876.175 1546.99C831.185 1542.26 790.684 1524.69 753.329 1499.39C699.944 1463.26 653.749 1411.42 610.828 1361.91C556.735 1299.71 497.931 1237.19 433.551 1186.55C357.556 1126.94 273.497 1083.75 178.301 1077.39C90.2058 1071.5 0.152945 1095.89 -89.243 1091.69C-130.657 1089.75 -166.707 1090.34 -200.297 1082.93C-242.903 1073.54 -283.374 1055.05 -319.098 1026.34C-354.784 997.682 -386.033 957.741 -400.878 908.024" stroke="#959494" stroke-width="1.5" stroke-miterlimit="10"/>
    <path d="M2071.95 1106.96C2002.7 1066.91 1924.72 1044.22 1845.16 1037.22C1809.96 1034.13 1774.42 1034.1 1739.1 1037.61C1709.85 1040.52 1680.95 1045.9 1652.73 1053.49C1593.78 1069.28 1537.74 1094.17 1485.4 1125.02C1414.15 1167.06 1349.33 1220.68 1292.14 1280.69C1230.66 1345.18 1176.92 1417.6 1108.98 1475.22C1091.89 1489.71 1073.57 1503.25 1054.3 1515.22C996.962 1550.79 931.138 1572.46 865.202 1563.92C819.769 1558.06 779.229 1539.16 742.036 1512.88C688.917 1475.36 642.956 1422.81 599.616 1373.19C544.521 1310.21 483.726 1247.37 416.837 1197.05C337.857 1137.69 250.234 1095.62 152.477 1091.77C62.3204 1087.96 -28.4018 1116.36 -118.972 1109.21C-157.629 1106.17 -193.021 1100.76 -225.675 1088.46C-267.074 1072.9 -305.008 1048.19 -336.453 1015.41C-367.861 982.675 -392.957 941.392 -404.024 893.916" stroke="#91908F" stroke-width="1.5" stroke-miterlimit="10"/>
    <path d="M2071.4 1135.99C1947.56 1064.08 1794.26 1050.96 1655.42 1086.1C1516.58 1121.23 1391.86 1201.84 1290.77 1303.28C1227.24 1367.03 1171.99 1439.36 1102.3 1496.3C1032.6 1553.24 943.188 1594.49 854.239 1580.93C742.901 1563.93 662.811 1469.11 588.413 1384.55C466.058 1245.48 311.899 1109.21 126.681 1106.26C34.4378 1104.79 -57.0045 1137.33 -148.671 1126.84C-275.766 1112.29 -386.758 1006.24 -407.102 879.97" stroke="#8D8C8B" stroke-width="1.5" stroke-miterlimit="10"/>
    </g>
</svg>