<svg width="1920" height="712" viewBox="0 0 1920 712" fill="none" xmlns="http://www.w3.org/2000/svg">

<g style="mix-blend-mode:color-dodge" opacity="0.3">
<path opacity="0.06" d="M-157.247 707.387H46.9823C60.2202 707.387 528.905 663.3 539.28 663.3C549.655 663.3 1009.06 707.387 1016.02 707.387C1022.97 707.387 1390.96 676.253 1400.43 676.253C1409.9 676.253 1775.07 703.062 1783.79 703.062H1991.31" stroke="#2E2E2E" stroke-width="1.5" stroke-miterlimit="10"/>
<path opacity="0.12" d="M-157.247 707.322H55.0757C81.5514 707.322 517.324 619.147 538.075 619.147C558.825 619.147 991.025 707.322 1004.91 707.322C1018.79 707.322 1369.09 645.032 1388.05 645.032C1407.02 645.032 1757.51 698.651 1774.94 698.651H1990.69" stroke="#2E2E2E" stroke-width="1.5" stroke-miterlimit="10"/>
<path opacity="0.19" d="M-157.247 707.258H63.1691C102.904 707.258 505.722 574.996 536.869 574.996C568.016 574.996 972.965 707.258 993.801 707.258C1014.64 707.258 1347.24 613.833 1375.68 613.833C1404.11 613.833 1739.94 694.262 1766.1 694.262H1990.04" stroke="#2E2E2E" stroke-width="1.5" stroke-miterlimit="10"/>
<path opacity="0.25" d="M-157.247 707.193H71.284C124.257 707.193 494.164 530.844 535.685 530.844C577.207 530.844 954.949 707.193 982.716 707.193C1010.48 707.193 1325.39 582.634 1363.32 582.634C1401.25 582.634 1722.4 689.894 1757.29 689.894H1989.46" stroke="#2E2E2E" stroke-width="1.5" stroke-miterlimit="10"/>
<path opacity="0.31" d="M-157.247 707.129H79.3774C145.588 707.129 482.562 486.692 534.458 486.692C586.355 486.692 936.889 707.129 971.588 707.129C1006.29 707.129 1303.52 551.414 1350.9 551.414C1398.28 551.414 1704.79 685.483 1748.4 685.483H1988.79" stroke="#2E2E2E" stroke-width="1.5" stroke-miterlimit="10"/>
<path opacity="0.38" d="M-157.247 707.065H87.4708C166.919 707.065 470.981 442.541 533.253 442.541C595.525 442.541 918.83 707.065 960.502 707.065C1002.17 707.065 1281.68 520.216 1338.55 520.216C1395.41 520.216 1687.25 681.094 1739.58 681.094H1988.17" stroke="#2E2E2E" stroke-width="1.5" stroke-miterlimit="10"/>
<path opacity="0.44" d="M-157.247 706.999H95.5641C188.272 706.999 459.379 398.388 532.047 398.388C604.716 398.388 900.792 706.999 949.395 706.999C997.999 706.999 1259.81 489.015 1326.17 489.015C1392.53 489.015 1669.71 676.704 1730.73 676.704H1987.54" stroke="#2E2E2E" stroke-width="1.5" stroke-miterlimit="10"/>
<path opacity="0.5" d="M-157.247 706.935H103.658C209.603 706.935 447.799 354.236 530.842 354.236C613.885 354.236 882.754 706.935 938.288 706.935C993.823 706.935 1237.96 457.817 1313.79 457.817C1389.62 457.817 1652.14 672.315 1721.9 672.315H1986.94" stroke="#2E2E2E" stroke-width="1.5" stroke-miterlimit="10"/>
<path opacity="0.56" d="M-157.247 706.87H111.772C230.956 706.87 436.24 310.084 529.658 310.084C623.077 310.084 864.716 706.87 927.203 706.87C989.69 706.87 1216.11 426.596 1301.41 426.596C1386.72 426.596 1634.58 667.904 1713.06 667.904H1986.3" stroke="#2E2E2E" stroke-width="1.5" stroke-miterlimit="10"/>
<path opacity="0.62" d="M-157.247 706.784H119.866C252.287 706.784 424.638 265.911 528.431 265.911C632.225 265.911 846.657 706.784 916.096 706.784C985.536 706.784 1194.26 395.376 1289.04 395.376C1383.81 395.376 1617.01 663.515 1704.21 663.515H1985.67" stroke="#2E2E2E" stroke-width="1.5" stroke-miterlimit="10"/>
<path opacity="0.69" d="M-157.247 706.72H127.959C273.64 706.72 413.057 221.76 527.226 221.76C641.394 221.76 828.619 706.72 904.989 706.72C981.36 706.72 1172.39 364.177 1276.66 364.177C1380.93 364.177 1599.45 659.126 1695.36 659.126H1985.03" stroke="#2E2E2E" stroke-width="1.5" stroke-miterlimit="10"/>
<path opacity="0.75" d="M-157.247 706.655H136.053C294.971 706.655 401.455 177.607 526.02 177.607C650.585 177.607 810.559 706.655 893.882 706.655C977.205 706.655 1150.55 332.957 1264.28 332.957C1378.02 332.957 1581.88 654.714 1686.54 654.714H1984.42" stroke="#2E2E2E" stroke-width="1.5" stroke-miterlimit="10"/>
<path opacity="0.81" d="M-157.247 706.59H144.168C316.324 706.59 389.897 133.455 524.837 133.455C659.777 133.455 792.543 706.59 882.797 706.59C973.051 706.59 1128.7 301.757 1251.91 301.757C1375.12 301.757 1564.32 650.325 1677.69 650.325H1983.8" stroke="#2E2E2E" stroke-width="1.5" stroke-miterlimit="10"/>
<path opacity="0.88" d="M-157.247 706.526H152.261C337.655 706.526 378.295 89.3037 523.631 89.3037C668.968 89.3037 774.505 706.526 871.69 706.526C968.875 706.526 1106.83 270.559 1239.53 270.559C1372.23 270.559 1546.76 645.936 1668.85 645.936H1983.15" stroke="#2E2E2E" stroke-width="1.5" stroke-miterlimit="10"/>
<path opacity="0.94" d="M-157.247 706.461H160.354C359.008 706.461 366.714 45.1514 522.404 45.1514C678.095 45.1514 756.424 706.461 860.583 706.461C964.743 706.461 1084.98 239.338 1227.15 239.338C1369.33 239.338 1529.21 641.524 1660 641.524H1982.53" stroke="#2E2E2E" stroke-width="1.5" stroke-miterlimit="10"/>
<path d="M-157.247 706.397H168.448C380.34 706.397 355.134 1 521.199 1C687.264 1 738.386 706.397 849.476 706.397C960.567 706.397 1063.11 208.139 1214.78 208.139C1366.44 208.139 1511.65 637.157 1651.15 637.157H1981.91" stroke="#2E2E2E" stroke-width="1.5" stroke-miterlimit="10"/>
</g>

<g>
<path opacity="0.06" d="M-18.4752 604.409C-13.3738 604.452 85.7272 524.497 152.476 524.927C198.152 525.228 277.02 595.351 365.487 653.144C413.617 684.58 464.825 713.369 516.119 716.037C536.848 717.113 556.586 713.024 575.399 704.676C684.982 656.049 753.948 452.89 833.397 453.428C923.78 454.03 1072.3 717.564 1213.27 727.742C1263.34 731.357 1310.78 700.76 1355.72 658.781C1440.14 579.923 1503.96 460.829 1547.34 461.109C1612.84 461.54 1662.75 666.334 1829.92 667.452" stroke="#2E2E2E" stroke-width="1.5" stroke-miterlimit="10"/>
<path opacity="0.12" d="M-21.7685 606.345C-11.5657 606.41 86.9326 536.352 155.963 536.825C205.32 537.148 285.651 588.637 374.097 642.17C423.045 671.798 474.92 703.729 527.635 708.764C548.665 710.765 568.941 707.645 588.378 699.748C698.371 655.059 764.324 435.375 843.923 435.892C932.111 436.472 1073.72 697.489 1209.7 716.79C1258.34 723.696 1304.3 697.511 1349.33 658.867C1436.33 584.226 1495.98 463.992 1539.44 464.272C1603.56 464.702 1653.69 667.969 1819.07 669.066" stroke="#2E2E2E" stroke-width="1.5" stroke-miterlimit="10"/>
<path opacity="0.19" d="M-25.0834 608.304C-9.77912 608.412 88.1164 548.251 159.429 548.725C212.466 549.069 294.304 581.882 382.664 631.198C432.451 658.997 484.972 694.047 539.108 701.492C560.439 704.418 581.21 702.267 601.315 694.843C711.652 654.005 774.655 417.861 854.384 418.399C940.398 418.98 1075.12 677.544 1206.04 705.903C1253.31 716.145 1297.82 694.349 1342.85 659.04C1432.61 588.638 1487.91 467.242 1531.47 467.522C1594.24 467.93 1644.57 669.691 1808.16 670.766" stroke="#2E2E2E" stroke-width="1.5" stroke-miterlimit="10"/>
<path opacity="0.25" d="M-28.3766 610.24C-7.97098 610.369 89.3219 560.128 162.916 560.623C219.634 561.01 303.065 575.082 391.253 620.245C441.901 646.173 495.025 684.386 550.602 694.241C572.213 698.071 593.501 696.909 614.251 689.937C724.868 652.843 785.009 400.347 864.845 400.885C948.685 401.444 1076.59 657.684 1202.4 694.972C1248.29 708.571 1291.47 691.207 1336.37 659.169C1429.06 593.006 1479.81 470.447 1523.49 470.727C1584.88 471.136 1635.42 671.347 1797.22 672.423" stroke="#2E2E2E" stroke-width="1.5" stroke-miterlimit="10"/>
<path opacity="0.31" d="M-31.6915 612.176C-6.18443 612.349 90.5057 572.005 166.381 572.5C226.802 572.909 311.847 568.197 399.82 609.25C451.372 633.306 505.055 674.639 562.075 686.946C583.987 691.68 605.749 691.465 627.188 684.988C738.02 651.53 795.341 382.811 875.306 383.348C956.95 383.886 1078.09 637.953 1198.76 684.02C1243.3 701.018 1285.21 688.108 1329.91 659.255C1425.68 597.416 1471.76 473.61 1515.52 473.89C1575.54 474.299 1626.29 672.982 1786.29 674.036" stroke="#2E2E2E" stroke-width="1.5" stroke-miterlimit="10"/>
<path opacity="0.38" d="M-34.9848 614.114C-4.37629 614.307 91.7112 583.862 169.868 584.399C233.97 584.83 320.715 561.269 408.43 598.278C460.907 620.418 515.15 664.893 573.591 679.675C595.783 685.29 618.04 686.043 640.167 680.083C751.172 650.154 805.716 365.297 885.81 365.835C965.281 366.373 1079.62 618.352 1195.17 673.112C1238.35 693.574 1279.09 685.14 1323.48 659.406C1422.49 602 1463.73 476.838 1507.6 477.118C1566.24 477.505 1617.21 674.683 1775.42 675.715" stroke="#2E2E2E" stroke-width="1.5" stroke-miterlimit="10"/>
<path opacity="0.44" d="M-38.2782 616.05C-2.54674 616.287 92.9165 595.738 173.355 596.276C241.137 596.728 329.605 554.255 417.018 587.282C470.443 607.486 525.224 655.102 585.085 672.38C607.579 678.878 630.309 680.578 653.125 675.134C764.259 648.626 816.091 347.761 896.293 348.277C973.568 348.793 1081.11 598.858 1191.55 662.138C1233.37 686.108 1273.02 682.17 1317.04 659.47C1419.48 606.626 1455.71 479.98 1499.66 480.259C1556.92 480.647 1608.12 676.275 1764.52 677.329" stroke="#2E2E2E" stroke-width="1.5" stroke-miterlimit="10"/>
<path opacity="0.5" d="M-41.593 617.986C-0.76015 618.266 94.1004 607.615 176.821 608.175C248.305 608.648 338.538 547.175 425.585 576.309C480 594.512 535.276 645.312 596.558 665.107C619.353 672.466 642.557 675.113 666.062 670.207C777.303 647.055 826.423 330.224 906.776 330.762C981.876 331.257 1082.55 579.515 1187.91 651.208C1228.34 678.706 1267.02 679.351 1310.56 659.599C1416.55 611.51 1447.61 483.185 1491.7 483.465C1547.57 483.831 1599 677.953 1753.59 678.986" stroke="#2E2E2E" stroke-width="1.5" stroke-miterlimit="10"/>
<path opacity="0.56" d="M-44.8864 619.923C1.04793 620.225 95.3273 619.493 180.308 620.053C255.473 620.547 347.492 540.011 434.195 565.315C489.6 581.495 545.371 635.48 608.074 657.814C631.17 666.033 654.826 669.605 679.02 665.28C790.369 645.356 836.798 312.689 917.258 313.227C990.185 313.722 1083.9 560.258 1184.3 640.278C1223.32 671.369 1261.08 676.641 1304.13 659.708C1413.8 616.588 1439.58 486.371 1483.75 486.65C1538.25 487.016 1589.89 679.61 1742.7 680.621" stroke="#2E2E2E" stroke-width="1.5" stroke-miterlimit="10"/>
<path opacity="0.62" d="M-48.2012 621.86C2.83454 622.204 96.5112 631.37 183.773 631.929C262.619 632.446 356.447 532.781 442.762 554.341C499.157 568.434 555.445 625.647 619.547 650.52C642.944 659.6 667.052 664.075 691.957 660.331C803.391 643.57 847.13 295.153 927.72 295.691C998.451 296.164 1085.13 541.087 1180.66 629.326C1218.22 664.032 1255.14 673.994 1297.65 659.815C1411.11 621.946 1431.51 489.555 1475.79 489.834C1528.91 490.179 1580.77 681.245 1731.78 682.257" stroke="#2E2E2E" stroke-width="1.5" stroke-miterlimit="10"/>
<path opacity="0.69" d="M-51.4945 623.796C4.64262 624.162 97.7166 643.225 187.26 643.828C269.809 644.387 365.444 525.487 451.35 543.367C508.757 555.309 565.54 615.813 631.041 643.247C654.74 653.166 679.321 658.545 704.914 655.404C816.435 641.741 857.483 277.617 938.202 278.155C1006.76 278.607 1086.29 521.937 1177.04 618.374C1213.12 656.716 1249.26 671.455 1291.21 659.901C1408.5 627.605 1423.48 492.718 1467.85 492.997C1519.59 493.341 1571.66 682.88 1720.87 683.87" stroke="#2E2E2E" stroke-width="1.5" stroke-miterlimit="10"/>
<path opacity="0.75" d="M-54.7878 625.755C6.45076 626.164 98.922 655.125 190.769 655.727C276.998 656.308 374.463 518.108 459.982 532.395C518.401 542.163 575.7 605.96 642.578 635.975C666.579 646.755 691.612 653.016 717.916 650.499C829.523 639.848 867.902 260.103 948.728 260.641C1015.09 261.093 1087.39 502.831 1173.45 607.466C1208 649.444 1243.38 669.067 1284.78 660.052C1405.92 633.651 1415.43 495.946 1459.9 496.225C1510.29 496.57 1562.56 684.581 1709.98 685.549" stroke="#2E2E2E" stroke-width="1.5" stroke-miterlimit="10"/>
<path opacity="0.81" d="M-58.1027 627.691C8.2373 628.143 100.106 667.002 194.235 667.626C284.144 668.228 383.417 510.663 468.549 521.421C527.979 528.93 585.795 596.105 654.051 628.702C678.374 640.321 703.838 647.443 730.852 645.571C842.588 637.847 878.234 242.589 959.189 243.127C1023.38 243.557 1088.34 483.746 1169.81 596.535C1202.77 642.172 1237.44 666.743 1278.32 660.181C1403.29 640.063 1407.38 499.151 1451.96 499.453C1500.97 499.775 1553.45 686.259 1699.09 687.227" stroke="#2E2E2E" stroke-width="1.5" stroke-miterlimit="10"/>
<path opacity="0.88" d="M-61.396 629.627C10.0454 630.101 101.311 678.879 197.722 679.503C291.334 680.127 392.372 503.132 477.137 510.426C537.558 515.633 595.934 586.207 665.545 621.408C690.17 633.866 716.108 641.827 743.789 640.644C855.654 635.803 888.566 225.052 969.672 225.59C1031.66 225.999 1089.22 464.596 1166.19 585.605C1197.56 634.877 1231.5 664.527 1271.86 660.288C1400.58 646.819 1399.33 502.336 1444 502.637C1491.63 502.96 1544.32 687.916 1688.18 688.862" stroke="#2E2E2E" stroke-width="1.5" stroke-miterlimit="10"/>
<path opacity="0.94" d="M-64.7108 631.564C11.832 632.08 102.495 690.734 201.187 691.401C298.48 692.046 401.283 495.558 485.726 499.452C547.115 502.292 606.136 576.202 677.04 614.135C702.009 627.389 728.377 636.233 756.747 635.716C868.763 633.694 898.941 207.538 980.154 208.076C1039.97 208.463 1090.02 445.467 1162.58 574.674C1192.28 627.583 1225.47 662.354 1265.42 660.417C1397.78 653.962 1391.3 505.541 1436.07 505.843C1482.33 506.144 1535.24 689.594 1677.28 690.54" stroke="#2E2E2E" stroke-width="1.5" stroke-miterlimit="10"/>
<path d="M-68.0042 633.5C13.6401 634.038 103.701 702.611 204.674 703.278C305.648 703.945 410.173 487.919 494.314 488.479C578.455 489.038 657.516 630.057 769.705 630.81C881.893 631.563 909.294 190.023 990.637 190.561C1071.98 191.099 1123.17 659.621 1258.97 660.525C1394.77 661.428 1383.23 508.726 1428.11 509.027C1472.99 509.328 1526.14 691.229 1666.37 692.175" stroke="#2E2E2E" stroke-width="1.5" stroke-miterlimit="10"/>
</g>

<g>
<path opacity="0.06" d="M-66.2391 707.065C-54.4649 707.065 294.519 685.097 302.268 685.097C310.017 685.097 808.385 711.411 820.762 711.411C833.139 711.411 1346.92 679.201 1356.67 679.201C1366.42 679.201 1883.82 711.411 1901.7 711.411" stroke="#2E2E2E" stroke-width="1.5" stroke-linecap="round" stroke-linejoin="round"/>
<path opacity="0.12" d="M-64.4525 705.709C-40.9041 705.709 287.761 661.751 303.259 661.751C318.757 661.751 801.11 714.359 825.863 714.359C850.617 714.359 1341.92 649.96 1361.4 649.96C1380.88 649.96 1869.95 714.359 1905.73 714.359" stroke="#2E2E2E" stroke-width="1.5" stroke-linecap="round" stroke-linejoin="round"/>
<path opacity="0.19" d="M-62.6874 704.353C-27.365 704.353 280.98 638.427 304.249 638.427C327.517 638.427 793.856 717.349 830.986 717.349C868.117 717.349 1336.95 620.762 1366.16 620.762C1395.37 620.762 1856.13 717.349 1909.77 717.349" stroke="#2E2E2E" stroke-width="1.5" stroke-linecap="round" stroke-linejoin="round"/>
<path opacity="0.25" d="M-60.9224 702.998C-13.8258 702.998 274.2 615.081 305.217 615.081C336.235 615.081 786.58 720.297 836.088 720.297C885.595 720.297 1331.96 591.499 1370.9 591.499C1409.84 591.499 1842.27 720.297 1913.8 720.297" stroke="#2E2E2E" stroke-width="1.5" stroke-linecap="round" stroke-linejoin="round"/>
<path opacity="0.31" d="M-59.1573 701.642C-0.286486 701.642 267.42 591.757 306.186 591.757C344.953 591.757 779.305 723.287 841.189 723.287C903.074 723.287 1326.96 562.301 1375.63 562.301C1424.3 562.301 1828.43 723.287 1917.83 723.287" stroke="#2E2E2E" stroke-width="1.5" stroke-linecap="round" stroke-linejoin="round"/>
<path opacity="0.38" d="M-57.3707 700.287C13.2742 700.287 260.661 568.434 307.198 568.434C353.735 568.434 772.072 726.257 846.312 726.257C920.552 726.257 1321.99 533.061 1380.39 533.061C1438.79 533.061 1814.59 726.257 1921.87 726.257" stroke="#2E2E2E" stroke-width="1.5" stroke-linecap="round" stroke-linejoin="round"/>
<path opacity="0.44" d="M-55.6057 698.932C26.8134 698.932 253.88 545.089 308.166 545.089C362.452 545.089 764.776 729.227 851.414 729.227C938.052 729.227 1317 503.842 1385.13 503.842C1453.25 503.842 1800.75 729.227 1925.9 729.227" stroke="#2E2E2E" stroke-width="1.5" stroke-linecap="round" stroke-linejoin="round"/>
<path opacity="0.5" d="M-53.8406 697.576C40.3526 697.576 247.122 521.765 309.135 521.765C371.148 521.765 757.5 732.196 856.515 732.196C955.53 732.196 1312 474.601 1389.86 474.601C1467.72 474.601 1786.89 732.196 1929.92 732.196" stroke="#2E2E2E" stroke-width="1.5" stroke-linecap="round" stroke-linejoin="round"/>
<path opacity="0.56" d="M-52.0541 696.22C53.9134 696.22 240.363 498.441 310.147 498.441C379.931 498.441 750.268 735.187 861.638 735.187C973.008 735.187 1307.03 445.402 1394.62 445.402C1482.2 445.402 1773.05 735.187 1933.97 735.187" stroke="#2E2E2E" stroke-width="1.5" stroke-linecap="round" stroke-linejoin="round"/>
<path opacity="0.62" d="M-50.2891 694.864C67.4525 694.864 233.582 475.095 311.115 475.095C388.648 475.095 742.992 738.134 866.739 738.134C990.486 738.134 1302.04 416.14 1399.35 416.14C1496.67 416.14 1759.21 738.134 1937.99 738.134" stroke="#2E2E2E" stroke-width="1.5" stroke-linecap="round" stroke-linejoin="round"/>
<path opacity="0.69" d="M-48.524 693.509C80.9917 693.509 226.802 451.771 312.105 451.771C397.409 451.771 735.717 741.125 871.862 741.125C1008.01 741.125 1297.07 386.941 1404.11 386.941C1511.15 386.941 1745.37 741.125 1942.06 741.125" stroke="#2E2E2E" stroke-width="1.5" stroke-linecap="round" stroke-linejoin="round"/>
<path opacity="0.75" d="M-46.7374 692.154C94.5525 692.154 220.043 428.426 313.096 428.426C406.148 428.426 728.463 744.073 876.985 744.073C1025.51 744.073 1292.09 357.68 1408.87 357.68C1525.64 357.68 1731.55 744.073 1946.11 744.073" stroke="#2E2E2E" stroke-width="1.5" stroke-linecap="round" stroke-linejoin="round"/>
<path opacity="0.81" d="M-44.9724 690.799C108.07 690.799 213.263 405.103 314.064 405.103C414.866 405.103 721.187 747.064 882.065 747.064C1042.94 747.064 1287.08 328.482 1413.58 328.482C1540.08 328.482 1717.66 747.064 1950.11 747.064" stroke="#2E2E2E" stroke-width="1.5" stroke-linecap="round" stroke-linejoin="round"/>
<path opacity="0.88" d="M-43.2073 689.443C121.609 689.443 206.482 381.779 315.054 381.779C423.626 381.779 713.934 750.034 887.188 750.034C1060.44 750.034 1282.11 299.241 1418.34 299.241C1554.57 299.241 1703.82 750.034 1954.16 750.034" stroke="#2E2E2E" stroke-width="1.5" stroke-linecap="round" stroke-linejoin="round"/>
<path opacity="0.94" d="M-41.4208 688.087C135.17 688.087 199.745 358.433 316.044 358.433C432.344 358.433 706.68 753.002 892.311 753.002C1077.94 753.002 1277.13 270.021 1423.1 270.021C1569.06 270.021 1690 753.002 1958.21 753.002" stroke="#2E2E2E" stroke-width="1.5" stroke-linecap="round" stroke-linejoin="round"/>
<path d="M-39.6557 686.731C148.709 686.731 192.965 335.109 317.013 335.109C441.061 335.109 699.383 755.972 897.412 755.972C1095.44 755.972 1272.14 240.78 1427.83 240.78C1583.52 240.78 1676.14 755.972 1962.23 755.972" stroke="#2E2E2E" stroke-width="1.5" stroke-linecap="round" stroke-linejoin="round"/>
</g>
<path opacity="0.12" d="M-31.304 634.446C-31.304 634.446 68.3997 544.593 132.867 545.023C197.313 545.454 345.448 754.357 488.503 755.304C631.558 756.251 714.235 502.313 806.814 502.937C899.371 503.561 1054.93 769.677 1200.79 770.667C1346.64 771.635 1472.3 489.468 1539.18 489.898C1606.06 490.35 1655.76 696.672 1824.73 697.79" stroke="#2E2E2E" stroke-width="1.5" stroke-miterlimit="10"/>
<path opacity="0.17" d="M1830.74 698.328C1669.81 697.253 1606.68 500.764 1542.99 500.334C1479.3 499.903 1340.16 768.644 1201.26 767.719C1062.36 766.794 893.301 513.329 805.156 512.749C717.012 512.168 620.192 753.992 483.961 753.088C347.729 752.184 188.552 553.243 127.163 552.834C65.7736 552.425 -37.3525 637.996 -37.3525 637.996" stroke="#2E2E2E" stroke-width="1.47" stroke-miterlimit="10"/>
<path opacity="0.21" d="M1836.78 698.909C1683.91 697.898 1607.35 511.221 1546.84 510.812C1486.34 510.403 1333.74 765.718 1201.78 764.836C1069.81 763.954 887.274 523.162 803.52 522.603C719.767 522.044 608.87 751.797 479.441 750.936C350.011 750.076 179.813 561.075 121.502 560.687C63.1907 560.3 -43.358 641.589 -43.358 641.589" stroke="#2E2E2E" stroke-width="1.44" stroke-miterlimit="10"/>
<path opacity="0.25" d="M1842.81 699.469C1697.99 698.5 1607.99 521.656 1550.65 521.269C1493.33 520.882 1327.29 762.749 1202.27 761.91C1077.25 761.07 881.226 532.974 801.885 532.436C722.544 531.898 597.527 749.559 474.92 748.741C352.314 747.924 171.074 568.864 115.819 568.498C60.5861 568.132 -49.385 645.161 -49.385 645.161" stroke="#2E2E2E" stroke-width="1.41" stroke-miterlimit="10"/>
<path opacity="0.29" d="M1848.84 700.028C1712.05 699.124 1608.62 532.092 1554.48 531.748C1500.35 531.382 1320.83 759.822 1202.77 759.026C1084.7 758.23 875.177 542.807 800.227 542.291C725.299 541.796 586.161 747.364 470.357 746.59C354.553 745.815 162.27 576.717 110.115 576.373C57.9385 576.028 -55.455 648.776 -55.455 648.776" stroke="#2E2E2E" stroke-width="1.37" stroke-miterlimit="10"/>
<path opacity="0.33" d="M1854.86 700.609C1726.12 699.748 1609.26 542.549 1558.32 542.226C1507.37 541.882 1314.39 756.875 1203.26 756.143C1092.13 755.412 869.107 552.64 798.591 552.167C728.076 551.693 574.818 745.17 465.837 744.438C356.856 743.707 153.531 584.549 104.433 584.226C55.334 583.903 -61.482 652.369 -61.482 652.369" stroke="#2E2E2E" stroke-width="1.34" stroke-miterlimit="10"/>
<path opacity="0.38" d="M1860.91 701.168C1740.22 700.372 1609.93 552.984 1562.15 552.683C1514.38 552.36 1307.96 753.927 1203.78 753.217C1099.6 752.507 863.08 562.43 796.977 561.978C730.874 561.526 563.517 742.91 461.338 742.243C359.159 741.555 144.813 592.359 98.7714 592.037C52.7295 591.735 -67.4875 655.919 -67.4875 655.919" stroke="#2E2E2E" stroke-width="1.31" stroke-miterlimit="10"/>
<path opacity="0.42" d="M1866.94 701.728C1754.3 700.975 1610.58 563.441 1565.98 563.14C1521.38 562.839 1301.5 750.958 1204.27 750.312C1107.04 749.667 857.032 572.241 795.32 571.833C733.607 571.424 552.152 740.716 456.775 740.07C361.398 739.446 136.031 600.17 93.0673 599.89C50.1034 599.61 -73.536 659.512 -73.536 659.512" stroke="#2E2E2E" stroke-width="1.28" stroke-miterlimit="10"/>
<path opacity="0.46" d="M1872.97 702.287C1768.38 701.599 1611.2 573.877 1569.81 573.597C1528.4 573.317 1295.06 748.01 1204.77 747.407C1114.47 746.805 850.983 582.053 793.684 581.666C736.384 581.278 540.808 738.478 452.255 737.897C363.701 737.316 127.292 608.002 87.3847 607.722C47.4774 607.464 -79.5845 663.084 -79.5845 663.084" stroke="#2E2E2E" stroke-width="1.25" stroke-miterlimit="10"/>
<path opacity="0.5" d="M1879.02 702.869C1782.45 702.224 1611.87 584.335 1573.64 584.076C1535.41 583.818 1288.63 745.063 1205.28 744.504C1121.94 743.944 844.956 591.866 792.048 591.521C739.139 591.177 529.464 736.263 447.734 735.725C365.982 735.187 118.553 615.813 81.7236 615.577C44.8944 615.34 -85.59 666.678 -85.59 666.678" stroke="#2E2E2E" stroke-width="1.22" stroke-miterlimit="10"/>
<path opacity="0.54" d="M1885.04 703.428C1796.53 702.847 1612.52 594.769 1577.47 594.533C1542.43 594.296 1282.17 742.114 1205.78 741.598C1129.39 741.081 838.908 601.676 790.412 601.353C741.916 601.03 518.121 734.046 443.192 733.551C368.264 733.056 109.771 623.623 76.0195 623.408C42.2684 623.192 -91.6385 670.249 -91.6385 670.249" stroke="#2E2E2E" stroke-width="1.18" stroke-miterlimit="10"/>
<path opacity="0.58" d="M1891.07 703.988C1810.61 703.45 1613.14 605.206 1581.3 604.99C1549.45 604.775 1275.74 739.146 1206.27 738.694C1136.81 738.242 832.838 611.51 788.776 611.209C744.693 610.908 506.799 731.83 438.672 731.378C370.546 730.927 101.032 631.456 70.3369 631.241C39.6423 631.047 -97.6655 673.822 -97.6655 673.822" stroke="#2E2E2E" stroke-width="1.15" stroke-miterlimit="10"/>
<path opacity="0.62" d="M1897.1 704.569C1824.69 704.095 1613.79 615.663 1585.11 615.469C1556.44 615.275 1269.28 736.22 1206.77 735.789C1144.26 735.38 826.789 621.322 787.118 621.042C747.448 620.762 495.434 729.614 434.13 729.205C372.827 728.796 92.2708 639.266 64.6543 639.094C37.0378 638.9 -103.714 677.415 -103.714 677.415" stroke="#2E2E2E" stroke-width="1.12" stroke-miterlimit="10"/>
<path opacity="0.67" d="M1903.15 705.127C1838.79 704.697 1614.45 626.097 1588.97 625.925C1563.48 625.753 1262.84 733.249 1207.29 732.884C1151.73 732.518 820.762 631.132 785.504 630.895C750.246 630.659 484.111 727.397 429.61 727.031C375.109 726.665 83.5317 647.097 58.9717 646.925C34.4117 646.753 -109.741 680.986 -109.741 680.986" stroke="#2E2E2E" stroke-width="1.09" stroke-miterlimit="10"/>
<path opacity="0.71" d="M1909.17 705.688C1852.84 705.322 1615.1 636.534 1592.8 636.383C1570.5 636.232 1256.41 730.303 1207.78 729.98C1159.16 729.657 814.714 640.945 783.868 640.729C753.023 640.514 472.768 725.16 425.09 724.859C377.412 724.536 74.7926 654.909 53.2892 654.758C31.8073 654.607 -115.768 684.558 -115.768 684.558" stroke="#2E2E2E" stroke-width="1.06" stroke-miterlimit="10"/>
<path opacity="0.75" d="M1915.2 706.269C1866.92 705.946 1615.72 646.991 1596.61 646.861C1577.49 646.732 1249.95 727.355 1208.28 727.075C1166.6 726.795 808.665 650.756 782.211 650.584C755.757 650.412 461.424 722.965 420.548 722.686C379.672 722.406 66.0104 662.719 47.6065 662.612C29.2027 662.482 -121.817 688.173 -121.817 688.173" stroke="#2E2E2E" stroke-width="1.03" stroke-miterlimit="10"/>
<path opacity="0.79" d="M1921.25 706.827C1881.02 706.569 1616.39 657.425 1600.46 657.339C1584.53 657.231 1243.51 724.427 1208.79 724.191C1174.07 723.954 802.638 660.588 780.596 660.437C758.555 660.287 450.102 720.748 416.028 720.533C381.975 720.296 57.2712 670.572 41.9239 670.464C26.5766 670.356 -127.844 691.765 -127.844 691.765" stroke="#2E2E2E" stroke-width="0.99" stroke-miterlimit="10"/>
<path opacity="0.83" d="M1927.27 707.386C1895.09 707.171 1617.04 667.882 1604.29 667.796C1591.55 667.71 1237.08 721.458 1209.29 721.265C1181.5 721.071 796.568 670.378 778.939 670.27C761.31 670.163 438.737 718.51 411.486 718.338C384.236 718.166 48.5105 678.361 36.2413 678.296C23.9721 678.21 -133.871 695.337 -133.871 695.337" stroke="#2E2E2E" stroke-width="0.96" stroke-miterlimit="10"/>
<path opacity="0.87" d="M1933.3 707.946C1909.17 707.795 1617.66 678.318 1608.1 678.253C1598.55 678.188 1230.62 718.51 1209.78 718.36C1188.95 718.231 790.519 680.211 777.303 680.103C764.087 679.996 427.393 716.294 406.966 716.165C386.539 716.036 39.7714 686.193 30.5587 686.128C21.346 686.064 -139.898 698.909 -139.898 698.909" stroke="#2E2E2E" stroke-width="0.93" stroke-miterlimit="10"/>
<path opacity="0.92" d="M1939.33 708.527C1923.23 708.419 1618.31 688.775 1611.93 688.731C1605.56 688.688 1224.16 715.563 1210.28 715.476C1196.39 715.39 784.471 690.044 775.667 689.979C766.864 689.915 416.049 714.099 402.424 714.013C388.799 713.927 31.0108 694.025 24.8547 693.982C18.72 693.938 -145.968 702.502 -145.968 702.502" stroke="#2E2E2E" stroke-width="0.9" stroke-miterlimit="10"/>
<path opacity="0.96" d="M1945.38 709.087C1937.33 709.044 1618.97 699.211 1615.79 699.189C1612.6 699.189 1217.75 712.616 1210.79 712.551C1203.84 712.487 778.444 699.835 774.031 699.792C769.619 699.749 404.727 711.863 397.904 711.82C391.102 711.777 22.2501 701.836 19.1935 701.814C16.1155 701.814 -151.973 706.075 -151.973 706.075" stroke="#2E2E2E" stroke-width="0.87" stroke-miterlimit="10"/>
<path d="M1951.4 709.646H-158" stroke="#2E2E2E" stroke-width="0.84" stroke-miterlimit="10"/>
<path opacity="0.06" d="M-33.3488 790.936C93.8853 790.936 102.56 658.093 153.423 656.608C203.533 655.167 214.748 740.501 292.475 738.866C371.17 737.209 464.244 624.097 502.709 624.097C543.348 624.097 575.657 678.189 634.593 680.728C643.525 681.116 652.717 679.631 662.102 676.705C716.732 659.621 772.116 591.456 811.033 591.456C855.59 591.456 879.267 671.584 1006.07 673.305C1012.74 673.391 1019.33 673.241 1025.83 672.746C1085.71 668.378 1135.39 640.363 1177.86 617.513C1222.03 593.737 1257.78 573.899 1285.96 577.148C1309.47 579.859 1342.64 601.461 1380.67 623.623C1436.51 656.156 1497.81 684.773 1551.38 684.773C1640.97 684.773 1740.29 592.833 1839.43 592.833" stroke="#2E2E2E" stroke-width="0.84" stroke-miterlimit="10"/>
<path opacity="0.12" d="M-26.7192 790.355C94.531 790.355 104.971 664.57 154.693 661.6C202.866 658.739 214.769 737.726 288.622 734.477C364.454 731.142 453.503 623.236 491.538 623.236C533.942 623.236 568.597 681.74 629.879 686.775C639.35 687.549 649.1 686.43 659.109 683.719C718.303 667.646 775.301 592.059 816.263 592.059C862.068 592.059 889.491 673.671 1013.2 677.006C1019.95 677.178 1026.63 677.135 1033.21 676.683C1095.01 672.617 1144.13 641.074 1186.58 619.471C1229.63 597.567 1264.61 583.044 1293.26 589.563C1316.93 594.964 1349.85 617.75 1388.03 638.147C1445.76 668.98 1505.36 684.688 1557.71 684.688C1643.64 684.688 1735.7 605.141 1830.78 605.141" stroke="#2E2E2E" stroke-width="0.84" stroke-miterlimit="10"/>
<path opacity="0.19" d="M-20.0679 789.795C95.2198 789.795 107.36 671.089 155.985 666.635C202.22 662.375 214.813 734.95 284.79 730.13C357.76 725.095 442.783 622.397 480.409 622.397C524.578 622.397 561.58 685.376 625.186 692.863C635.195 694.047 645.506 693.294 656.139 690.776C719.918 675.758 778.508 592.704 821.515 592.704C868.59 592.704 899.737 675.844 1020.34 680.75C1027.16 681.029 1033.92 681.072 1040.6 680.664C1104.31 676.877 1152.83 641.848 1195.3 621.472C1237.16 601.397 1271.43 592.188 1300.58 601.999C1324.42 610.046 1357.14 634.037 1395.39 652.692C1455.06 681.782 1512.94 684.623 1564.02 684.623C1646.31 684.623 1731.1 617.448 1822.1 617.448" stroke="#2E2E2E" stroke-width="0.84" stroke-miterlimit="10"/>
<path opacity="0.25" d="M-13.4167 789.214C95.9086 789.214 109.749 677.63 157.255 671.627C201.532 666.032 214.877 732.11 280.937 725.762C351.087 719.006 432.043 621.558 469.238 621.558C515.172 621.558 554.52 689.055 620.451 698.931C630.976 700.502 641.868 700.136 653.126 697.834C721.489 683.87 781.673 593.35 826.724 593.35C875.07 593.35 909.94 678.103 1027.44 684.494C1034.35 684.859 1041.18 685.01 1047.96 684.623C1113.59 681.137 1161.48 642.558 1203.99 623.473C1244.67 605.205 1278.23 601.289 1307.85 614.457C1331.87 625.129 1364.42 650.304 1402.73 667.28C1464.38 694.585 1520.5 684.601 1570.33 684.601C1648.96 684.601 1726.51 629.82 1813.43 629.82" stroke="#2E2E2E" stroke-width="0.84" stroke-miterlimit="10"/>
<path opacity="0.31" d="M-6.7655 788.633C96.5759 788.633 112.117 684.192 158.546 676.619C200.843 669.712 214.963 729.205 277.106 721.373C344.457 712.874 421.323 620.697 458.109 620.697C505.809 620.697 547.502 692.734 615.758 704.999C626.822 706.978 638.252 706.957 650.134 704.87C723.082 692.003 784.858 593.974 831.955 593.974C881.57 593.974 920.186 680.427 1034.57 688.216C1041.57 688.689 1048.47 688.926 1055.32 688.582C1122.86 685.247 1170.13 643.268 1212.69 625.452C1252.14 608.949 1285.03 610.348 1315.13 626.872C1339.32 640.148 1371.72 666.484 1410.07 681.804C1473.76 707.258 1528.05 684.537 1576.63 684.537C1651.63 684.537 1721.9 642.149 1804.75 642.149" stroke="#2E2E2E" stroke-width="0.84" stroke-miterlimit="10"/>
<path opacity="0.38" d="M-0.114258 788.074C97.2647 788.074 114.485 690.819 159.816 681.632C200.133 673.456 215.028 726.279 273.253 717.005C337.849 706.72 410.582 619.858 446.959 619.858C496.445 619.858 540.464 696.457 611.066 711.067C622.668 713.476 634.657 713.821 647.163 711.906C724.718 700.158 788.044 594.576 837.207 594.576C886.37 594.576 930.432 682.794 1041.72 691.917C1048.78 692.498 1055.77 692.821 1062.72 692.519C1132.19 689.464 1178.79 643.914 1221.43 627.432C1259.66 612.65 1291.9 619.385 1322.47 639.309C1346.83 655.188 1379.12 682.643 1417.48 696.371C1483.26 719.931 1535.67 684.494 1583 684.494C1654.34 684.494 1717.38 654.478 1796.14 654.478" stroke="#2E2E2E" stroke-width="0.84" stroke-miterlimit="10"/>
<path opacity="0.44" d="M6.53687 787.493C97.9534 787.493 116.831 697.468 161.108 686.624C199.444 677.221 215.157 723.288 269.421 712.637C331.263 700.502 399.863 618.997 435.809 618.997C487.06 618.997 533.425 700.179 606.352 717.134C618.47 719.953 631.041 720.663 644.171 718.963C726.31 708.334 791.23 595.222 842.438 595.222C893.646 595.222 940.678 685.268 1048.84 695.661C1055.99 696.349 1063.07 696.758 1070.09 696.478C1141.46 693.703 1187.38 644.559 1230.12 629.411C1267.08 616.329 1298.72 628.422 1329.74 651.724C1354.3 670.164 1386.48 698.716 1424.82 710.894C1492.73 732.475 1543.23 684.408 1589.29 684.408C1656.96 684.408 1712.76 666.786 1787.45 666.786" stroke="#2E2E2E" stroke-width="0.84" stroke-miterlimit="10"/>
<path opacity="0.5" d="M13.1881 786.934C98.6208 786.934 119.177 704.203 162.399 691.637C198.755 681.073 215.286 720.233 265.59 708.269C324.698 694.219 389.143 618.158 424.681 618.158C477.697 618.158 526.408 703.945 601.659 723.202C614.316 726.429 627.446 727.505 641.201 725.999C727.946 716.51 794.437 595.846 847.69 595.846C900.943 595.846 950.924 687.764 1055.99 699.383C1063.22 700.179 1070.37 700.674 1077.49 700.437C1150.78 697.942 1195.96 645.162 1238.86 631.412C1274.53 619.987 1305.59 637.459 1337.08 664.182C1361.84 685.204 1393.93 714.81 1432.22 725.483C1502.26 745.02 1550.85 684.386 1595.66 684.386C1659.7 684.386 1708.22 679.158 1778.84 679.158" stroke="#2E2E2E" stroke-width="0.84" stroke-miterlimit="10"/>
<path opacity="0.56" d="M19.8178 786.353C99.288 786.353 121.523 710.959 163.648 696.629C198.045 684.946 215.351 717.07 261.715 703.88C318.089 687.85 378.381 617.298 413.51 617.298C468.291 617.298 519.326 707.71 596.924 729.27C610.097 732.927 623.809 734.348 638.166 733.035C729.496 724.708 797.58 596.47 852.877 596.47C908.175 596.47 961.105 690.346 1063.07 703.106C1070.37 704.009 1077.6 704.59 1084.81 704.397C1160.04 702.202 1204.47 645.7 1247.52 633.392C1281.87 623.559 1312.41 646.474 1344.31 676.597C1369.28 700.179 1401.29 730.797 1439.5 740.006C1511.71 757.413 1558.32 684.3 1601.9 684.3C1662.28 684.3 1703.57 691.444 1770.1 691.444" stroke="#2E2E2E" stroke-width="0.84" stroke-miterlimit="10"/>
<path opacity="0.62" d="M26.469 785.793C99.9768 785.793 123.891 717.78 164.939 701.642C197.377 688.883 215.48 713.842 257.884 699.512C311.524 681.417 367.661 616.459 402.36 616.459C458.906 616.459 512.266 711.519 592.231 735.337C605.943 739.425 620.214 741.211 635.195 740.092C731.132 732.927 800.787 597.094 858.129 597.094C915.472 597.094 971.329 692.993 1070.21 706.828C1077.6 707.861 1084.92 708.528 1092.21 708.334C1169.36 706.591 1213.03 646.194 1256.28 635.372C1289.3 627.109 1319.34 655.468 1351.65 689.034C1376.84 715.176 1408.74 746.784 1446.9 754.573C1521.31 769.764 1565.94 684.257 1608.27 684.257C1665.01 684.257 1699.02 703.794 1761.49 703.794" stroke="#2E2E2E" stroke-width="0.84" stroke-miterlimit="10"/>
<path opacity="0.69" d="M33.1202 785.212C100.666 785.212 126.302 724.664 166.209 706.633C196.71 692.841 215.544 710.485 254.031 695.144C304.916 674.853 356.899 615.597 391.21 615.597C449.521 615.597 505.184 715.304 587.517 741.404C601.745 745.922 616.598 748.053 632.203 747.127C732.725 741.124 803.972 597.717 863.36 597.717C922.747 597.717 981.532 695.681 1077.36 710.549C1084.83 711.711 1092.21 712.443 1099.6 712.292C1178.66 710.829 1221.58 646.624 1264.99 637.35C1296.68 630.594 1326.23 664.483 1358.97 701.448C1384.39 730.151 1416.19 762.684 1454.29 769.096C1530.87 781.984 1573.53 684.17 1614.62 684.17C1667.71 684.17 1694.48 716.101 1752.86 716.101" stroke="#2E2E2E" stroke-width="0.84" stroke-miterlimit="10"/>
<path opacity="0.75" d="M39.7715 784.631C101.333 784.631 128.756 731.614 167.501 711.625C196.107 696.865 215.587 707.042 250.2 690.754C298.265 668.14 346.179 614.736 380.06 614.736C440.136 614.736 498.124 719.091 582.803 747.45C597.57 752.399 612.981 754.895 629.211 754.163C734.339 749.344 807.137 598.341 868.59 598.341C930.044 598.341 991.735 698.414 1084.49 714.272C1092.02 715.563 1099.51 716.38 1106.98 716.251C1187.96 715.089 1230.08 646.968 1273.71 639.33C1304.06 634.015 1333.14 673.476 1366.27 713.884C1391.93 745.148 1423.59 778.585 1461.65 783.663C1540.43 794.141 1581.11 684.127 1620.93 684.127C1670.35 684.127 1689.88 728.43 1744.18 728.43" stroke="#2E2E2E" stroke-width="0.84" stroke-miterlimit="10"/>
<path opacity="0.81" d="M46.4227 784.072C102.022 784.072 131.253 738.651 168.771 716.64C195.505 700.954 215.566 703.514 246.347 686.387C291.506 661.278 335.438 613.898 368.91 613.898C430.751 613.898 491.043 722.922 578.09 753.54C593.372 758.919 609.365 761.781 626.219 761.222C735.932 757.607 810.322 598.987 873.843 598.987C933.553 598.987 1001.92 701.234 1091.63 718.017C1099.25 719.437 1106.81 720.319 1114.38 720.211C1197.28 719.329 1238.63 647.227 1282.45 641.332C1311.45 637.437 1340.07 682.514 1373.61 726.322C1399.5 760.167 1431.04 794.465 1469.05 798.209C1550.01 806.213 1588.73 684.085 1627.3 684.085C1673.09 684.085 1685.33 740.781 1735.57 740.781" stroke="#2E2E2E" stroke-width="0.84" stroke-miterlimit="10"/>
<path opacity="0.88" d="M53.0739 783.491C102.71 783.491 133.836 745.73 170.062 721.631C194.988 705.042 215.458 699.857 242.515 682.02C284.618 654.263 324.719 613.059 357.781 613.059C421.388 613.059 483.961 726.752 573.419 759.608C589.218 765.418 605.771 768.667 623.249 768.258C737.547 765.998 813.53 599.611 879.095 599.611C940.075 599.611 1012.1 704.096 1098.78 721.739C1106.46 723.31 1114.1 724.235 1121.77 724.17C1206.58 723.589 1247.15 647.378 1291.17 643.311C1318.83 640.751 1346.98 691.508 1380.91 738.759C1407.04 775.165 1438.44 810.279 1476.41 812.754C1559.52 818.176 1596.31 684.021 1633.63 684.021C1675.76 684.021 1680.77 753.11 1726.92 753.11" stroke="#2E2E2E" stroke-width="0.84" stroke-miterlimit="10"/>
<path opacity="0.94" d="M59.7251 782.931C103.378 782.931 136.505 752.894 171.354 726.644C194.514 709.194 215.2 696.176 238.684 677.651C277.472 647.054 314 612.198 346.631 612.198C412.003 612.198 476.836 730.667 568.705 765.675C585.021 771.936 602.154 775.508 620.257 775.314C739.139 774.195 816.715 600.234 884.325 600.234C946.554 600.234 1022.24 706.978 1105.9 725.46C1113.65 727.182 1121.4 728.15 1129.15 728.128C1215.87 727.827 1255.7 647.399 1299.89 645.311C1326.23 644.064 1353.98 700.501 1388.2 751.194C1414.61 790.139 1445.83 826.093 1483.75 827.32C1568.99 830.074 1603.86 683.977 1639.94 683.977C1678.42 683.977 1676.16 765.438 1718.25 765.438" stroke="#2E2E2E" stroke-width="0.84" stroke-miterlimit="10"/>
<path d="M66.3763 782.35C170.859 782.35 256.334 611.358 335.503 611.358C414.672 611.358 493.798 782.35 617.287 782.35C740.775 782.35 819.923 600.858 889.577 600.858C959.232 600.858 1047.87 732.088 1136.53 732.088C1225.19 732.088 1264.28 647.291 1308.6 647.291C1352.92 647.291 1403.79 841.865 1491.14 841.865C1578.48 841.865 1611.44 683.912 1646.27 683.912C1681.09 683.912 1671.6 777.767 1709.59 777.767" stroke="#2E2E2E" stroke-width="0.84" stroke-miterlimit="10"/>
</svg>