<svg width="55" height="43" viewBox="0 0 55 43" fill="none" xmlns="http://www.w3.org/2000/svg">
<path d="M55 33.2974C54.7323 33.8288 54.2897 33.9673 53.7166 33.9633C50.9965 33.9431 48.275 33.9539 45.5549 33.9539H44.9118C44.9118 34.196 44.9118 34.387 44.9118 34.5781C44.9118 36.7076 44.9132 38.8385 44.9118 40.9681C44.9118 41.9165 44.6119 42.2111 43.654 42.2111C32.8959 42.2111 22.1378 42.2111 11.3798 42.2111C10.3843 42.2111 10.0964 41.9259 10.095 40.9398C10.0937 38.8278 10.095 36.7157 10.095 34.6036C10.095 34.4099 10.095 34.2175 10.095 33.9539C9.85827 33.9539 9.66858 33.9539 9.47756 33.9539C6.7386 33.9539 3.99964 33.9539 1.26202 33.9539C0.301501 33.9539 0.00823265 33.6619 0.00688738 32.7095C0.00419685 31.1167 -0.00791054 29.5226 0.00823265 27.9298C0.0674243 22.2164 2.58307 17.9735 7.62782 15.256C7.72198 15.2049 7.81481 15.1524 7.85248 15.1323C7.33186 14.3197 6.72783 13.5543 6.3108 12.6987C3.90278 7.7602 7.15025 1.7926 12.6013 1.05943C14.4806 0.80652 16.2281 1.17243 17.8747 2.08183C18.4168 2.38183 18.5985 2.8567 18.3725 3.33024C18.1397 3.81722 17.607 4.00153 17.0514 3.70422C15.6833 2.97374 14.2613 2.65626 12.7075 2.88899C9.75872 3.33024 7.45159 5.9562 7.33993 9.04896C7.23231 12.0395 9.43585 14.8699 12.3322 15.4632C13.3465 15.6704 14.3555 15.665 15.3644 15.4269C16.0384 15.2681 16.5254 15.5089 16.6519 16.0363C16.7891 16.6067 16.4554 17.0304 15.7653 17.1972C13.7945 17.6721 11.9044 17.4703 10.0802 16.5717C9.8623 16.4641 9.51388 16.456 9.29056 16.5529C4.69514 18.5533 2.20371 22.0738 1.87008 27.0661C1.75977 28.7208 1.85259 30.3876 1.85259 32.0866H10.169C11.073 25.6522 14.4483 21.0178 20.2787 18.0999C17.9191 15.4995 16.9532 12.47 17.6393 9.0086C18.1115 6.62614 19.3316 4.64322 21.2607 3.1567C25.3974 -0.0329254 30.9803 0.307427 34.6192 3.91946C38.203 7.47769 38.8595 13.6794 34.7363 18.0945C40.537 20.9936 43.9002 25.6536 44.8352 32.0947H53.0911C53.1086 32.0759 53.1529 32.049 53.1516 32.0234C53.1018 29.3853 53.4651 26.7177 52.6552 24.1321C51.5238 20.516 49.1992 17.9735 45.6935 16.5327C45.4822 16.4452 45.1567 16.46 44.9509 16.5609C43.1105 17.4703 41.2043 17.6761 39.2147 17.1932C38.5568 17.0331 38.234 16.6215 38.3496 16.0632C38.46 15.5278 38.9523 15.2762 39.6155 15.4161C43.2209 16.1721 46.3849 14.3708 47.4073 10.9821C48.127 8.59695 47.332 5.89162 45.3491 4.30017C43.2464 2.61187 40.9245 2.35223 38.4573 3.45535C38.2299 3.55759 38.012 3.68673 37.7793 3.77283C37.3124 3.94772 36.8537 3.77014 36.6412 3.35445C36.4273 2.93608 36.5241 2.41949 36.9761 2.1908C37.6891 1.82892 38.4209 1.45897 39.1891 1.25987C42.8253 0.315498 46.4105 1.82489 48.3638 5.06159C50.2041 8.11266 49.7831 12.0247 47.3185 14.765C47.2365 14.8565 47.1611 14.9547 47.1127 15.0125C48.0557 15.6435 49.0378 16.199 49.9028 16.8986C52.8032 19.2474 54.4579 22.3052 54.9018 26.0141C54.9179 26.1527 54.9664 26.2872 54.9987 26.4231V33.2974H55ZM43.0608 40.3573C43.0688 40.2067 43.0796 40.0856 43.0796 39.9645C43.0796 37.9251 43.1482 35.883 43.0662 33.8462C42.7944 27.1805 39.6048 22.4384 33.5497 19.6214C33.2215 19.4694 32.9699 19.4721 32.6672 19.6671C31.4592 20.4434 30.1274 20.886 28.7041 21.0501C26.4239 21.3137 24.297 20.8658 22.3262 19.6779C22.1526 19.573 21.8728 19.4869 21.706 19.5528C19.6491 20.3626 17.8303 21.5492 16.3034 23.15C13.321 26.2778 11.9004 30.0257 11.9232 34.3373C11.9327 36.144 11.9246 37.952 11.9246 39.7587V40.3573H43.0608ZM27.4342 19.2999C31.8883 19.3954 35.6605 15.6986 35.756 11.1435C35.8488 6.66784 32.1655 2.88899 27.6238 2.8002C23.1038 2.71142 19.3505 6.3665 19.2482 10.9539C19.1487 15.4457 22.832 19.2003 27.4328 19.2999H27.4342Z" fill="#ABABAB"/>
</svg>
