<svg width="25" height="25" viewBox="0 0 25 25" fill="none" xmlns="http://www.w3.org/2000/svg">
<path d="M24.9963 12.2068C24.9937 12.1431 24.9912 12.0781 24.99 12.0143C24.99 11.998 24.99 11.983 24.9875 11.9668C24.9825 11.8443 24.9737 11.7243 24.9675 11.6017C24.9625 11.538 24.9612 11.4742 24.9537 11.4092C24.9512 11.3842 24.9487 11.3567 24.945 11.3317C24.9337 11.1904 24.915 11.0529 24.8975 10.9116C24.8925 10.8804 24.8912 10.8454 24.8862 10.8141C24.8725 10.7191 24.8587 10.6241 24.845 10.5303C24.1075 5.89338 20.8148 2.09906 16.4596 0.640096C16.3708 0.610091 16.2821 0.581337 16.1921 0.553833C15.8408 0.445067 15.4845 0.351303 15.1208 0.272541C15.107 0.270041 15.0933 0.26754 15.082 0.26629C14.9932 0.247537 14.9045 0.230035 14.8145 0.213782C14.7232 0.195029 14.6332 0.180027 14.542 0.166275C14.4445 0.147522 14.347 0.13502 14.2495 0.121268C14.1607 0.107516 14.0745 0.0962644 13.9857 0.0850127C13.9657 0.0850127 13.9444 0.0825124 13.9244 0.0787618C13.8407 0.0700105 13.7569 0.060009 13.6719 0.0537581C13.5769 0.0450067 13.4794 0.0375056 13.3819 0.0312547C13.0919 0.0112517 12.7981 0 12.5019 0C12.1769 0 11.8568 0.0112517 11.5393 0.0362554C11.3281 0.0525079 11.1193 0.0750112 10.9105 0.100015C10.493 0.155023 10.0818 0.227534 9.67798 0.320048C9.47797 0.367555 9.27796 0.420063 9.0817 0.473821C8.88419 0.530079 8.68918 0.591339 8.49667 0.657599C4.62773 1.96654 1.60258 5.12327 0.473774 9.07511C0.473774 9.07511 0.476274 9.07761 0.473774 9.08011C0.418771 9.27514 0.367518 9.47267 0.320016 9.6752C0.275014 9.87773 0.231262 10.0815 0.19501 10.2878C0.158758 10.4916 0.127506 10.6991 0.100005 10.9054V10.9079C0.0750038 11.1167 0.0525026 11.3254 0.0362518 11.5367C0.0112506 11.8543 0 12.1743 0 12.4994C0 12.5831 0.00250012 12.6656 0.00500025 12.7494C0.00750037 12.8307 0.0100005 12.9157 0.0137507 12.9969V13.0282C0.0187509 13.1557 0.0275014 13.2807 0.0362518 13.4045C0.0412521 13.4658 0.0425021 13.527 0.0475024 13.5883C0.0500025 13.6158 0.0537527 13.6408 0.0562528 13.6683C0.0675034 13.7971 0.0837542 13.9246 0.0987549 14.0546C0.103755 14.0859 0.107505 14.1209 0.112506 14.1521C0.79504 19.3129 4.63773 23.4885 9.62548 24.6687C9.71673 24.6887 9.80924 24.7112 9.90174 24.73C9.99425 24.75 10.0905 24.7687 10.183 24.7862C10.2755 24.805 10.3718 24.82 10.4668 24.8362C10.5593 24.8525 10.6555 24.8662 10.7505 24.8787C10.9405 24.9062 11.1318 24.9287 11.3243 24.9462H11.3356C11.4281 24.955 11.5218 24.9625 11.6168 24.9687C11.9068 24.9887 12.2019 25 12.4994 25C12.8244 25 13.1444 24.9887 13.4619 24.9637C13.6732 24.9475 13.8819 24.925 14.0907 24.9H14.0932C14.2995 24.8725 14.5057 24.8412 14.7107 24.805C14.917 24.7687 15.122 24.725 15.3233 24.68C15.5258 24.6324 15.7233 24.5799 15.9183 24.5262C15.9208 24.5237 15.9233 24.5262 15.9233 24.5262C19.8747 23.3985 23.0311 20.3731 24.3425 16.5037C24.4087 16.3112 24.47 16.1162 24.5262 15.9186C24.5812 15.7211 24.6325 15.5211 24.68 15.3223C24.7725 14.9185 24.8462 14.5072 24.9 14.0896C24.925 13.8808 24.9475 13.672 24.9637 13.4608C24.9887 13.1432 25 12.8232 25 12.4981C25 12.4006 25 12.3031 24.995 12.2081L24.9963 12.2068ZM22.6749 7.16107C22.6224 6.9748 22.5461 6.80477 22.4524 6.6435C22.6861 6.93604 22.8449 7.27484 22.9199 7.65615C23.2787 9.51018 21.7536 12.0568 18.8422 14.4697C16.3796 16.5075 13.3507 18.0852 10.5293 18.9403C13.4882 17.9264 16.6521 16.0962 19.096 13.8721C21.8148 11.3955 23.1537 8.88758 22.6749 7.16107ZM22.5074 7.20858C22.9686 8.87008 21.6473 11.3142 18.9784 13.7421C16.7346 15.7849 13.8857 17.4864 11.1518 18.529C13.9819 17.3351 16.9596 15.4061 19.1785 13.1907C21.6473 10.7266 22.7886 8.33125 22.2349 6.78602C22.1686 6.60224 22.0736 6.43847 21.9648 6.28719C22.2236 6.54598 22.4099 6.85228 22.5074 7.20858ZM22.0699 6.84603C22.6036 8.3275 21.4748 10.6516 19.056 13.067C17.1071 15.0148 14.6195 16.7113 12.1644 17.8914C14.7057 16.5662 17.2796 14.6659 19.2085 12.5581C21.4236 10.1365 22.3811 7.86743 21.7748 6.48722C21.6948 6.30845 21.5861 6.15092 21.4611 6.0084C21.7423 6.23343 21.9511 6.51223 22.0699 6.84603ZM21.6136 6.55723C22.1949 7.87118 21.2461 10.0703 19.0785 12.4394C17.3696 14.3096 15.152 16.0137 12.9031 17.2938C15.222 15.8749 17.5059 13.9871 19.1847 11.9768C21.1498 9.62144 21.9398 7.48112 21.2973 6.25344C21.2061 6.07841 21.0836 5.92839 20.9435 5.79712C21.2473 5.98965 21.4748 6.24219 21.6136 6.55723ZM21.1436 6.3322C21.7523 7.49612 20.9685 9.56393 19.051 11.863C17.5709 13.6383 15.622 15.3123 13.5932 16.6512C15.6783 15.1823 17.6759 13.3395 19.1147 11.443C20.8648 9.14137 21.4811 7.18483 20.8123 6.07716C20.7098 5.90964 20.576 5.76836 20.4198 5.64835C20.7423 5.80962 20.9898 6.03465 21.1436 6.33095V6.3322ZM20.6623 6.16843C21.2836 7.19608 20.6535 9.12762 18.9759 11.338C17.7071 13.0082 16.0058 14.6384 14.192 15.9999C16.0508 14.5159 17.7821 12.7407 19.0035 10.9616C20.5173 8.76256 20.996 6.93979 20.3198 5.95964C20.2035 5.79212 20.0548 5.65585 19.8797 5.54708C20.2273 5.67585 20.4898 5.88338 20.6623 6.16843ZM20.1773 6.05966C20.8098 6.97605 20.331 8.72631 18.8609 10.8641C17.7834 12.4306 16.3108 13.9958 14.7032 15.3573C16.3421 13.8821 17.8284 12.1868 18.8559 10.5303C20.1473 8.44627 20.4985 6.75351 19.8222 5.88963C19.6935 5.72336 19.5297 5.59459 19.3322 5.49707C19.7022 5.59709 19.986 5.78587 20.176 6.05966H20.1773ZM19.6872 5.9959C20.316 6.80102 19.9572 8.42001 18.7072 10.4403C17.8021 11.8993 16.5383 13.3908 15.1258 14.7322C16.5583 13.2882 17.8221 11.6843 18.6722 10.1478C19.7572 8.18873 19.9947 6.62724 19.326 5.86338C19.1922 5.71086 19.0247 5.59584 18.8272 5.51333C19.2022 5.58584 19.4897 5.74711 19.6872 5.99715V5.9959ZM19.1947 5.97715C19.8122 6.681 19.5672 8.17122 18.5209 10.0628C17.7696 11.4205 16.6896 12.8344 15.4595 14.1384C16.6983 12.7407 17.7671 11.2317 18.4597 9.81022C19.3535 7.9812 19.4872 6.54598 18.8297 5.87463C18.6909 5.73336 18.5209 5.62959 18.3209 5.56083C18.6972 5.60834 18.9922 5.74461 19.1947 5.9759V5.97715ZM18.7072 5.99715C19.3085 6.61224 19.1635 7.9762 18.3034 9.73521C16.6446 13.1332 12.8206 17.0588 9.65048 18.659C9.64798 18.6615 9.64548 18.6615 9.64423 18.664C9.55548 18.7066 9.46922 18.7503 9.38047 18.7916C9.35797 18.8028 9.33297 18.8116 9.31047 18.8228C7.89664 19.4717 6.82784 19.5329 6.29906 18.9953C5.69528 18.3778 5.84279 17.0163 6.70033 15.2573C8.35917 11.8618 12.1781 7.93744 15.347 6.33595C15.3608 6.3297 15.372 6.3222 15.3858 6.3172C15.4633 6.27844 15.5395 6.23969 15.617 6.20343C15.647 6.18968 15.6758 6.17843 15.7058 6.16467C17.1146 5.51958 18.1822 5.45832 18.7084 5.99715H18.7072ZM4.82649 18.9353C4.19396 18.019 4.67273 16.2662 6.14031 14.1309C7.21786 12.5644 8.69293 10.9991 10.3005 9.63519C8.65918 11.1129 7.17286 12.8082 6.14781 14.4647C4.85649 16.5487 4.50273 18.239 5.17901 19.1054C5.30402 19.2641 5.46027 19.3892 5.64653 19.4842C5.29026 19.3817 5.0115 19.2029 4.82774 18.9353H4.82649ZM5.10275 19.4367C4.76649 19.3054 4.50773 19.1029 4.33772 18.8241C3.71644 17.7977 4.34647 15.8674 6.02405 13.6558C7.29286 11.983 8.9967 10.3553 10.8105 8.99135C8.9517 10.4778 7.22036 12.2531 5.9978 14.0296C4.48397 16.2312 4.0052 18.054 4.68398 19.0341C4.79524 19.1954 4.9365 19.3291 5.10401 19.4354L5.10275 19.4367ZM5.31652 18.9991C4.68773 18.194 5.044 16.5725 6.29406 14.5547C7.19911 13.0932 8.46542 11.6042 9.87674 10.2628C8.44417 11.7068 7.17911 13.3107 6.33032 14.8447C5.24526 16.805 5.00775 18.3665 5.67653 19.1291C5.80529 19.2766 5.96655 19.3904 6.15531 19.4717C5.79279 19.3967 5.50653 19.2429 5.31527 18.9978L5.31652 18.9991ZM5.80654 19.0179C5.18901 18.3115 5.43652 16.8238 6.48282 14.9322C7.23411 13.5708 8.31417 12.1568 9.54923 10.8516C8.30542 12.2493 7.23661 13.7608 6.54283 15.1823C5.65153 17.0113 5.51528 18.4465 6.17281 19.1179C6.31157 19.2591 6.47907 19.3629 6.67658 19.4317C6.30656 19.3842 6.01155 19.2504 5.80779 19.0191L5.80654 19.0179ZM6.04905 10.3941C3.08515 12.8469 1.54008 15.4548 1.9126 17.3726C1.94885 17.5651 2.0126 17.7452 2.0876 17.9177C1.88134 17.5814 1.75009 17.2076 1.70384 16.7938C1.48132 14.7422 3.22016 12.1118 6.35782 9.75646C9.09045 7.70491 12.4581 6.20218 15.5345 5.59209C12.3894 6.34845 8.85169 8.07246 6.04905 10.3941ZM2.0826 17.3389C1.72384 15.4873 3.24641 12.9407 6.16031 10.5278C8.53418 8.56003 11.5268 6.98105 14.3532 6.09966C11.4506 7.11607 8.33917 8.90884 5.90655 11.1242C3.18516 13.5983 1.84884 16.1087 2.32762 17.8327C2.37762 18.0215 2.45637 18.1915 2.55013 18.3528C2.31637 18.0577 2.15761 17.7202 2.0826 17.3389ZM2.49512 17.7877C2.03385 16.1262 3.35267 13.6821 6.02405 11.2517C8.21791 9.25389 10.9955 7.58239 13.6782 6.53348C10.9143 7.72241 8.0254 9.60644 5.82154 11.8055C3.35517 14.2684 2.21136 16.6625 2.76639 18.2102C2.83264 18.3915 2.92515 18.5553 3.0339 18.7078C2.77514 18.449 2.59138 18.1427 2.49387 17.7889L2.49512 17.7877ZM2.9314 18.1502C2.40012 16.6688 3.52643 14.3422 5.9478 11.9268C7.81789 10.0615 10.2255 8.40001 12.6269 7.21483C10.1555 8.53378 7.67038 10.3853 5.79654 12.4369C3.58143 14.8585 2.62138 17.1276 3.23016 18.5078C3.31017 18.6866 3.41642 18.8441 3.54393 18.9841C3.26266 18.7616 3.0539 18.4828 2.9339 18.149L2.9314 18.1502ZM3.38767 18.439C2.80889 17.1251 3.75769 14.9235 5.9253 12.5544C7.63163 10.6866 9.84924 8.98385 12.0956 7.70491C9.77674 9.12137 7.49537 11.0092 5.81904 13.0207C3.85394 15.3761 3.0639 17.5164 3.70393 18.7441C3.79269 18.9116 3.90645 19.0591 4.04395 19.1891C3.74644 18.9991 3.52393 18.7516 3.38767 18.4403V18.439ZM3.85769 18.6615C3.25141 17.5001 4.0352 15.4323 5.9528 13.1307C7.43287 11.3555 9.38422 9.68145 11.4131 8.3425C9.32547 9.81147 7.32787 11.6542 5.88779 13.5508C4.14021 15.8549 3.52143 17.8102 4.19021 18.9166C4.29271 19.0841 4.42397 19.2254 4.57648 19.3429C4.25646 19.1816 4.01395 18.9566 3.85894 18.6615H3.85769ZM10.083 21.1444C12.2706 21.1444 14.542 20.7081 16.6483 19.883C20.431 18.3965 23.2949 15.8074 24.31 12.9557C24.4712 12.5019 24.5825 12.0481 24.6462 11.6005C24.5962 12.4944 24.365 13.402 23.9499 14.3009C22.6474 17.1238 19.6522 19.5204 15.9395 20.7106C14.2645 21.2482 12.5419 21.5207 10.8243 21.5207C8.37292 21.5207 6.14031 20.9606 4.37022 19.9705C5.95405 20.7281 7.90539 21.1444 10.0843 21.1444H10.083ZM24.1462 12.8969C23.1474 15.7024 20.3223 18.2527 16.5846 19.7192C14.4195 20.5681 12.1781 20.9744 10.0768 20.9744C8.27041 20.9719 6.57033 20.6706 5.11401 20.098C6.33532 20.4956 7.74164 20.7081 9.28296 20.7081C11.9043 20.7081 14.722 20.068 17.2234 18.9103C20.9785 17.1701 23.6462 14.4734 24.3562 11.6955C24.4487 11.3329 24.5037 10.9716 24.5262 10.6203C24.5462 11.3605 24.4212 12.1256 24.1475 12.8969H24.1462ZM24.33 9.73146C24.4 10.3491 24.355 10.9929 24.185 11.6542C23.4899 14.3822 20.8585 17.0351 17.1496 18.7528C13.3232 20.5256 9.11421 20.9494 5.89404 20.1393C6.69033 20.2955 7.55788 20.3756 8.48167 20.3756C11.5343 20.3756 14.8132 19.5217 17.7184 17.9727C21.3973 16.0099 23.8474 13.252 24.27 10.6016C24.3175 10.3065 24.3362 10.0165 24.3312 9.73271L24.33 9.73146ZM24.0962 10.5741C23.6837 13.1732 21.2661 15.8799 17.6359 17.8189C14.0457 19.7342 9.98425 20.5018 6.74534 20.1018C7.06535 20.1243 7.39662 20.138 7.73914 20.138C11.0681 20.138 14.9532 18.9916 18.1322 17.0701C21.6886 14.921 23.9099 12.1493 24.0775 9.6577C24.0937 9.41016 24.0825 9.17013 24.0575 8.93634C24.1687 9.45392 24.1862 10.0028 24.0962 10.5753V10.5741ZM23.9037 9.64645C23.7399 12.0818 21.5498 14.801 18.0447 16.92C14.7195 18.9291 10.8693 19.9817 7.66413 19.9655C11.1243 19.8242 15.212 18.4128 18.4772 16.2049C21.8648 13.9121 23.8549 11.1667 23.8062 8.85883C23.7999 8.6388 23.7699 8.42751 23.7262 8.22373C23.8737 8.6663 23.9374 9.14262 23.9037 9.64645ZM23.6312 8.86383C23.6812 11.1104 21.7186 13.8021 18.3797 16.0612C15.3458 18.1152 11.7506 19.3979 8.63543 19.7267C11.9643 19.2366 15.7408 17.6426 18.7497 15.3823C21.9361 12.9907 23.7012 10.299 23.4699 8.18498C23.4499 7.98245 23.4024 7.79242 23.3424 7.60614C23.5199 7.98995 23.6187 8.41001 23.6312 8.86383ZM18.6434 15.2435C15.852 17.3401 12.4669 18.8116 9.44172 19.4129C12.6394 18.644 16.2083 16.88 18.9547 14.6059C21.9161 12.1531 23.4637 9.54268 23.0912 7.62739C23.0524 7.43486 22.9911 7.25484 22.9136 7.08231C23.1199 7.41861 23.2512 7.79242 23.2974 8.20623C23.5224 10.2578 21.7811 12.8882 18.6434 15.2435ZM12.5019 0.168775C17.1271 0.168775 21.1636 2.73291 23.2724 6.51223C22.5736 5.42956 21.6748 4.44942 20.5948 3.61804C18.0559 1.659 14.8232 0.740111 11.4993 1.03265C8.17916 1.3227 5.15901 2.78917 2.9939 5.16327C2.05885 6.18718 1.33257 7.3261 0.831292 8.53628C2.48512 3.67805 7.0891 0.168775 12.5019 0.168775ZM3.12266 5.27704C5.25776 2.94044 8.23791 1.49147 11.5143 1.20643C11.9068 1.17268 12.3081 1.15392 12.7031 1.15392C15.587 1.15392 18.2784 2.05531 20.4873 3.75681C21.4286 4.48067 22.2324 5.3183 22.8811 6.24219C20.2685 2.9967 15.5358 1.23268 10.5818 2.07031C6.95785 2.6829 3.78019 4.60569 1.86259 7.34485C1.29131 8.16372 0.848792 9.03386 0.541277 9.93274C0.99505 8.24374 1.86384 6.656 3.12141 5.27829L3.12266 5.27704ZM2.00635 7.44487C3.89644 4.74446 7.03285 2.84668 10.6118 2.24284C11.4168 2.10657 12.2319 2.03656 13.0394 2.03656C16.6971 2.03656 19.981 3.43051 22.1411 5.6696C19.2547 3.05296 14.5095 1.92904 9.75299 3.10046C6.0103 4.02435 2.92265 6.19218 1.27881 9.04886C0.903795 9.7002 0.616281 10.3653 0.416271 11.0367C0.688784 9.78397 1.22006 8.56503 2.0051 7.44362L2.00635 7.44487ZM1.43007 9.13512C3.05015 6.31845 6.10031 4.18063 9.79674 3.27049C11.0318 2.96669 12.2906 2.81167 13.5407 2.81167C16.7421 2.81167 19.5972 3.78807 21.6261 5.43957C18.5472 3.25424 13.6882 2.61664 9.01295 4.11687C5.25401 5.3233 2.21886 7.75366 0.896295 10.6203C0.631282 11.1942 0.440022 11.773 0.320016 12.3481C0.458773 11.2629 0.828791 10.1828 1.43007 9.13637V9.13512ZM1.0538 10.6916C2.35887 7.86993 5.35152 5.47332 9.0667 4.28189C10.7418 3.74681 12.4619 3.47427 14.182 3.47427C16.6921 3.47427 18.9747 4.06186 20.7648 5.09701C17.5221 3.48802 12.7744 3.37926 8.35667 5.11327C4.57023 6.60099 1.70634 9.18763 0.692535 12.0381C0.531277 12.4944 0.420021 12.9457 0.358768 13.3933C0.40877 12.4994 0.637532 11.5917 1.0538 10.6929V10.6916ZM0.858793 12.0968C1.85509 9.29389 4.68273 6.74351 8.42042 5.27704C10.508 4.45567 12.7569 4.02185 14.9245 4.02185C16.8646 4.02185 18.6184 4.35815 20.0898 4.97075C16.7358 3.79932 12.0219 4.11937 7.78289 6.08466C4.02395 7.82617 1.35757 10.5228 0.648782 13.2982C0.556278 13.6633 0.498775 14.0221 0.478774 14.3759C0.458773 13.6333 0.583779 12.8694 0.857543 12.0968H0.858793ZM0.675034 15.2648C0.60253 14.6472 0.650032 14.0033 0.817541 13.3408C1.51383 10.6153 4.14396 7.96244 7.85414 6.24094C10.3343 5.09201 13.1307 4.45942 15.7245 4.45942C16.9821 4.45942 18.1484 4.60444 19.1947 4.87448C15.7858 4.18688 11.2493 4.90824 7.28786 7.02355C3.60643 8.98885 1.15756 11.743 0.735037 14.3972C0.687534 14.6922 0.668783 14.9822 0.673784 15.266L0.675034 15.2648ZM0.906295 14.4222C1.32132 11.823 3.73894 9.11387 7.36912 7.17608C10.2518 5.6396 13.5032 4.79072 16.5258 4.79072C17.1246 4.79072 17.7009 4.82697 18.2484 4.89573C14.8445 4.6507 10.5355 5.71336 6.87034 7.92744C3.31517 10.0778 1.0913 12.8469 0.926296 15.3386C0.910045 15.5886 0.921296 15.8261 0.946297 16.0624C0.832542 15.5423 0.815041 14.996 0.905045 14.4234L0.906295 14.4222ZM1.0988 15.3486C1.26256 12.9132 3.45392 10.194 6.96035 8.07746C10.1143 6.16843 13.9682 5.0295 17.2659 5.0295C17.2884 5.0295 17.3109 5.032 17.3334 5.032C13.9769 5.17078 9.90549 6.50723 6.52658 8.79257C3.13891 11.0854 1.14631 13.8308 1.19756 16.1387C1.20256 16.3587 1.23381 16.5675 1.27506 16.7738C1.12756 16.3287 1.0663 15.8549 1.09755 15.3486H1.0988ZM6.62408 8.93509C9.55798 6.95104 13.1594 5.61459 16.3596 5.27704C13.1057 5.76086 9.32297 7.3111 6.25406 9.61394C3.06515 12.0081 1.30006 14.6972 1.53133 16.8113C1.55383 17.0151 1.60133 17.2063 1.66008 17.3926C1.48132 17.0088 1.38132 16.5887 1.37132 16.1349C1.31882 13.8858 3.28391 11.1967 6.62283 8.93634L6.62408 8.93509ZM12.5019 24.8237C7.81789 24.8237 3.73769 22.1983 1.65258 18.3415C2.27261 19.3329 3.05765 20.243 3.9927 21.0332C6.26906 22.9559 9.22296 24.0136 12.3119 24.0136C12.7069 24.0136 13.1082 23.9948 13.5057 23.9611C16.8308 23.671 19.8535 22.2046 22.0161 19.8355C22.9399 18.8228 23.6574 17.6952 24.1587 16.4975C22.4936 21.3357 17.8996 24.825 12.5031 24.825L12.5019 24.8237ZM21.8861 19.7167C19.7535 22.0546 16.7708 23.4998 13.4894 23.7886C13.1019 23.8223 12.7069 23.8386 12.3206 23.8386H12.3119C9.26671 23.8386 6.35282 22.7947 4.10645 20.9019C3.37142 20.2805 2.72889 19.5829 2.18886 18.8303C4.35147 21.4607 7.9354 23.131 11.9631 23.131H11.9656C12.7831 23.131 13.6082 23.061 14.4207 22.9247C18.0447 22.3096 21.2236 20.3868 23.1399 17.6501C23.7187 16.8238 24.1637 15.9436 24.47 15.0373C24.0212 16.7375 23.1487 18.3353 21.8873 19.7167H21.8861ZM22.9986 17.5489C21.1086 20.2493 17.9721 22.1446 14.3907 22.7509C13.5869 22.8872 12.7706 22.9547 11.9643 22.9547C8.38542 22.9547 5.16776 21.622 3.00515 19.4692C5.0765 21.2782 8.08165 22.3559 11.4631 22.3559C12.7269 22.3559 14.0007 22.1996 15.2483 21.8908C18.9909 20.9694 22.0786 18.8016 23.7237 15.9449C24.0987 15.2935 24.3862 14.6259 24.5862 13.9546C24.3137 15.2073 23.7812 16.4262 22.9974 17.5501L22.9986 17.5489ZM23.5724 15.8586C21.9523 18.6753 18.9047 20.8131 15.2083 21.7233C13.9732 22.0271 12.7144 22.1821 11.4656 22.1821H11.4606C8.23166 22.1821 5.35402 21.1882 3.32267 19.5079C5.23776 20.8906 7.87664 21.6933 10.8255 21.6933C12.5619 21.6933 14.2995 21.417 15.9908 20.8756C19.751 19.6679 22.7849 17.2376 24.1087 14.3734C24.3737 13.7996 24.565 13.2207 24.6825 12.6444C24.5462 13.7321 24.1737 14.8122 23.5724 15.8586Z" fill="black"/>
</svg>
