<svg width="50" height="66" viewBox="0 0 50 66" fill="none" xmlns="http://www.w3.org/2000/svg">
<path d="M42.1562 7.41934C42.1401 8.18653 41.6776 8.61674 41.1112 8.51815C40.0142 8.32635 38.9261 8.08974 37.838 7.84775C37.3003 7.72765 37.0386 7.34405 37.1282 6.8063C37.2196 6.26495 37.605 5.97277 38.1428 6.06599C39.2613 6.26137 40.3798 6.47289 41.4733 6.77224C41.7834 6.85649 42.0039 7.26877 42.1544 7.41934H42.1562Z" fill="#ABABAB"/>
<path d="M46.8759 16.1006C46.6823 16.3587 46.5425 16.7136 46.2916 16.8319C46.037 16.952 45.5835 16.9628 45.372 16.8086C44.4202 16.1167 43.6996 15.2205 43.3823 14.0535C43.2443 13.5498 43.4271 13.1519 43.8932 12.9601C44.3825 12.7593 44.7841 12.9189 45.0888 13.3849C45.5315 14.0643 46.0173 14.715 46.4762 15.3836C46.6088 15.579 46.7092 15.7977 46.8741 16.0988L46.8759 16.1006Z" fill="#ABABAB"/>
<path d="M39.263 45.696C40.2418 47.9833 41.19 50.1988 42.1382 52.4126C43.1223 54.7106 44.1082 57.0104 45.0977 59.3066C45.2895 59.7494 45.4669 60.1939 45.1138 60.6295C44.7607 61.0633 44.3036 60.9862 43.8232 60.8751C41.8425 60.418 39.8564 59.9914 37.8774 59.5307C37.4472 59.4303 37.1981 59.5038 36.9597 59.9143C35.9505 61.653 34.9001 63.3685 33.8658 65.0929C33.6112 65.5177 33.3746 65.9694 32.7687 65.9354C32.1611 65.9013 31.98 65.4281 31.7829 64.971C29.6731 60.0451 27.5651 55.1193 25.4535 50.1952C25.3531 49.9622 25.233 49.7382 25.0394 49.342C24.8422 49.7328 24.715 49.9515 24.6164 50.1827C22.5138 55.087 20.4147 59.9914 18.3139 64.8957C18.2691 64.9979 18.2511 65.1287 18.1759 65.1986C17.8962 65.455 17.6112 65.8637 17.3065 65.887C17.0018 65.9085 16.5482 65.6091 16.3672 65.3205C15.2827 63.6015 14.2323 61.8592 13.2267 60.0935C12.913 59.5432 12.6119 59.4357 12.006 59.5845C10.0773 60.0595 8.12879 60.4538 6.19107 60.893C5.73039 60.997 5.21056 61.083 4.99008 60.6277C4.82338 60.2835 4.81083 59.744 4.9614 59.3891C6.77723 55.0673 8.63786 50.7635 10.4859 46.4543C10.5827 46.2302 10.6724 46.0025 10.7871 45.7175C10.287 45.6118 9.81913 45.5096 9.34949 45.4164C7.25045 45.0023 6.01003 43.7296 5.58879 41.6467C5.44718 40.9459 5.31453 40.2432 5.21236 39.5369C5.01518 38.1818 4.35374 37.117 3.28181 36.2817C2.78887 35.8963 2.31923 35.4823 1.83525 35.0843C0.227362 33.7614 -0.238693 32.0765 0.252457 30.0921C0.33312 29.7677 0.406614 29.4289 0.56077 29.1385C1.69006 27.0234 1.58609 24.9691 0.589451 22.7912C-0.550591 20.3068 -0.0200057 18.4712 2.03422 16.6734C2.38735 16.365 2.74047 16.0513 3.12228 15.7807C4.51507 14.7876 5.16575 13.4038 5.31632 11.7403C5.35397 11.3191 5.39519 10.8907 5.50454 10.4838C6.17494 7.97067 7.20743 6.90412 10.0701 6.34307C10.4644 6.26599 10.8678 6.24448 11.2675 6.1907C12.7624 5.98994 13.9437 5.27831 14.8489 4.06477C15.2881 3.47504 15.7846 2.92294 16.2937 2.39056C17.5736 1.05155 19.1187 0.662574 20.8879 1.21108C21.4633 1.39034 22.0495 1.55346 22.5944 1.80441C24.3188 2.5967 26.0056 2.525 27.6923 1.70044C28.7141 1.20212 29.7985 0.974472 30.9386 1.01032C31.9765 1.04438 32.8369 1.47996 33.5646 2.1898C33.9554 2.57161 34.0074 3.02511 33.6453 3.44994C33.2904 3.8676 32.7992 3.9626 32.3977 3.58796C31.177 2.44613 29.8918 2.8835 28.5743 3.32805C27.626 3.64712 26.6778 4.00562 25.7008 4.18487C24.3134 4.43941 23.0085 3.98232 21.7412 3.44456C19.2872 2.4049 18.1866 2.63255 16.5733 4.85707C15.1232 6.85752 13.2393 7.96709 10.7745 8.1087C10.4644 8.12662 10.1543 8.19295 9.85319 8.27361C8.1969 8.71278 7.34904 9.6413 7.2146 11.4643C7.01742 14.1477 5.84153 16.1499 3.64928 17.7381C1.70081 19.1506 1.5592 20.1329 2.38376 22.3951C2.64188 23.1067 2.93586 23.8112 3.13303 24.5389C3.57579 26.1755 3.17247 27.7224 2.52896 29.2299C1.45524 31.7413 1.73128 32.849 3.9558 34.448C5.92578 35.8641 6.9744 37.7426 7.17337 40.132C7.18771 40.3095 7.18771 40.4923 7.22894 40.6644C7.73443 42.7581 8.1969 43.4984 10.6491 43.7727C13.2428 44.0648 15.3007 45.083 16.7185 47.3021C16.7777 47.3953 16.8512 47.4832 16.9265 47.5656C18.4017 49.1681 19.1205 49.3904 21.2572 48.6913C21.5099 48.6089 21.7519 48.4852 21.9939 48.3723C24.0965 47.4007 26.1633 47.5101 28.2641 48.4458C30.7791 49.5661 31.9442 49.247 33.5342 47.0153C34.9574 45.0167 36.8718 43.9806 39.2917 43.8139C39.4925 43.7995 39.6968 43.787 39.8886 43.735C41.907 43.1973 42.5559 42.7778 42.8337 40.3866C43.1349 37.7928 44.1315 35.7314 46.3363 34.2974C46.3919 34.2615 46.4475 34.2221 46.4976 34.1791C48.2669 32.6196 48.6361 31.7682 47.6592 29.6064C46.4779 26.9893 46.5801 24.5156 47.7865 21.9971C48.0661 21.4146 48.4891 21.1762 49.0036 21.3626C49.5198 21.5508 49.7206 22.0204 49.5288 22.6317C49.4284 22.9508 49.3173 23.2698 49.1757 23.571C48.3923 25.2452 48.4873 26.8943 49.2474 28.5506C49.4965 29.0955 49.6937 29.6727 49.8353 30.2535C50.3121 32.2037 49.7493 33.8242 48.2023 35.1022C47.7883 35.4446 47.3975 35.8175 46.9637 36.1294C45.6247 37.0919 44.9346 38.4076 44.7625 40.0263C44.7231 40.4027 44.6567 40.7791 44.585 41.1502C44.0419 43.9555 42.6294 45.2551 39.6968 45.6476C39.5875 45.662 39.4764 45.6691 39.263 45.6906V45.696ZM42.8266 58.7384C40.991 54.4543 39.2111 50.2992 37.415 46.1101C36.4703 46.431 35.8824 47.096 35.2998 47.7682C34.7889 48.3597 34.2978 48.9692 33.769 49.5446C32.6397 50.776 31.22 51.1381 29.6193 50.8244C28.9363 50.69 28.2713 50.4623 27.5005 50.249C29.3253 54.5045 31.1178 58.6864 32.9605 62.9795C33.9859 61.273 34.9467 59.7153 35.8608 58.1325C36.2104 57.5267 36.6603 57.3474 37.3092 57.5069C37.9366 57.6611 38.5693 57.7991 39.2021 57.9389C40.369 58.1971 41.5378 58.4534 42.8248 58.7366L42.8266 58.7384ZM22.5962 50.1666C22.2162 50.301 21.9957 50.3799 21.7734 50.457C19.0201 51.4357 17.4929 51.0252 15.5982 48.8007C15.1053 48.2235 14.6428 47.6158 14.105 47.0834C13.7107 46.6909 13.2177 46.3987 12.6925 46.0043C10.8444 50.3171 9.06627 54.4632 7.25045 58.7025C7.54263 58.6595 7.71651 58.6452 7.885 58.6075C9.45346 58.2598 11.0201 57.9103 12.5868 57.5571C13.5709 57.3366 13.7573 57.4119 14.2771 58.2759C15.1949 59.8014 16.1109 61.3286 17.1021 62.9813C18.9448 58.6792 20.7392 54.4973 22.5944 50.1666H22.5962Z" fill="#ABABAB"/>
<path d="M41.8767 26.1618C41.7566 35.6585 34.1581 43.0975 24.7061 42.9702C15.5571 42.8465 8.05543 35.1315 8.18807 25.9861C8.3261 16.5395 15.9138 9.17587 25.3891 9.29238C34.47 9.40352 41.9914 17.0988 41.8767 26.1618ZM25.1005 41.106C33.217 41.1508 39.9999 34.3859 40.0304 26.212C40.0608 17.9162 33.3783 11.1942 25.0646 11.1548C16.8424 11.1172 10.1043 17.7764 10.0362 26.0094C9.96804 34.3464 16.6649 41.0576 25.1005 41.1042V41.106Z" fill="#ABABAB"/>
<path d="M31.1017 33.3479C31.1089 34.3105 30.4349 34.7264 29.6713 34.3392C28.2982 33.6419 26.9341 32.9285 25.5862 32.1846C25.1828 31.9623 24.8763 31.9749 24.4784 32.1935C23.1878 32.9034 21.8721 33.5666 20.5707 34.2549C20.1566 34.4736 19.6798 34.6851 19.3446 34.2854C19.1098 34.0058 18.9718 33.5182 19.0202 33.1543C19.2084 31.7167 19.4593 30.2863 19.7461 28.8648C19.8519 28.3378 19.7354 27.9973 19.3482 27.637C18.2852 26.6475 17.2384 25.6401 16.24 24.5861C15.9872 24.319 15.7596 23.7992 15.851 23.498C15.9424 23.2005 16.4282 22.894 16.7849 22.8276C18.2099 22.5623 19.6493 22.3634 21.0887 22.1931C21.6408 22.1286 21.9491 21.9009 22.1822 21.3972C22.7809 20.1012 23.4047 18.8142 24.0858 17.5612C24.2597 17.2404 24.6594 16.9356 25.0126 16.8442C25.5109 16.7151 25.7977 17.131 26.0074 17.5612C26.6527 18.8841 27.3357 20.1908 27.9523 21.5281C28.1513 21.9601 28.4291 22.1142 28.8593 22.1698C30.2306 22.3508 31.6001 22.5516 32.9695 22.7452C33.1237 22.7667 33.3047 22.7595 33.4248 22.8384C33.7224 23.0338 34.1472 23.2256 34.2297 23.5034C34.3139 23.7866 34.1436 24.2652 33.9178 24.5001C32.8674 25.5971 31.7739 26.6547 30.6662 27.6925C30.313 28.0241 30.2216 28.3414 30.3112 28.8093C30.607 30.3652 30.8598 31.93 31.1035 33.3461L31.1017 33.3479ZM28.9597 31.8727C28.7715 30.7792 28.6621 29.8005 28.4237 28.8541C28.1835 27.9005 28.3825 27.2068 29.1533 26.5579C29.9079 25.9215 30.5371 25.1382 31.2577 24.3817C30.1463 24.224 29.0726 24.0483 27.9917 23.9264C27.307 23.8494 26.8409 23.5751 26.5613 22.9119C26.2333 22.1303 25.8228 21.3847 25.4463 20.6246C25.3262 20.3826 25.2008 20.1442 25.0269 19.8019C24.4802 20.9096 23.9639 21.8525 23.5463 22.8348C23.2326 23.5733 22.7235 23.8637 21.9599 23.9408C20.9095 24.0483 19.868 24.2348 18.8714 24.3817C19.7031 25.2655 20.5026 26.1348 21.3253 26.9791C21.6821 27.3448 21.8344 27.714 21.7305 28.241C21.4992 29.4116 21.3271 30.5946 21.1156 31.8763C22.1105 31.3546 23.0264 30.9352 23.8761 30.41C24.6684 29.9206 25.3585 29.8758 26.1669 30.3867C27.0112 30.9226 27.9326 31.3367 28.9579 31.8763L28.9597 31.8727Z" fill="#ABABAB"/>
</svg>
