<svg width="39" height="33" viewBox="0 0 39 33" fill="none" xmlns="http://www.w3.org/2000/svg">
<path d="M38 1.02755C36.3895 2.15688 34.6063 3.02064 32.7191 3.58556C31.7062 2.42779 30.3601 1.60719 28.8627 1.23475C27.3654 0.862305 25.7892 0.95599 24.3471 1.50313C22.9051 2.05027 21.6669 3.02447 20.8 4.29397C19.9331 5.56347 19.4793 7.06701 19.5 8.60125V10.2731C16.5444 10.3493 13.6158 9.6977 10.9749 8.37629C8.33398 7.05488 6.06281 5.1047 4.36364 2.69945C4.36364 2.69945 -2.36364 17.7465 12.7727 24.4341C9.30907 26.7714 5.18295 27.9433 1 27.7779C16.1364 36.1374 34.6364 27.7779 34.6364 8.55109C34.6348 8.08539 34.5898 7.62084 34.5018 7.16342C36.2183 5.48064 37.4296 3.35603 38 1.02755V1.02755Z" stroke="#CCCCCC" stroke-width="2" stroke-linecap="round" stroke-linejoin="round"/>
</svg>
