<svg width="70" height="71" viewBox="0 0 70 71" fill="none" xmlns="http://www.w3.org/2000/svg">
<path d="M33.4853 50.6802C32.2677 50.4133 31.0968 50.1562 29.8616 49.8853C29.8616 50.8088 29.846 51.7342 29.8675 52.6597C29.883 53.3474 29.62 53.8617 29.0687 54.2708C27.7166 55.2781 26.3937 56.3223 25.03 57.314C24.539 57.6705 24.3987 57.9608 24.615 58.596C25.5501 61.3293 24.0325 64.2264 21.2893 65.0953C18.5189 65.9701 15.5946 64.4348 14.7569 61.6625C13.925 58.9096 15.4641 56.034 18.2111 55.2002C19.4443 54.8261 20.6581 54.9001 21.8134 55.4456C22.2498 55.6502 22.5187 55.5996 22.8772 55.3151C24.0812 54.3644 25.3261 53.4662 26.5262 52.5096C26.7405 52.3382 26.912 51.9875 26.9256 51.7109C26.9743 50.7815 26.9724 49.8483 26.9256 48.919C26.9139 48.6696 26.7405 48.3384 26.536 48.2021C24.6403 46.9493 23.07 45.3849 21.8037 43.499C21.6575 43.2808 21.2893 43.2107 21.0244 43.0743C21.0049 43.0645 20.9757 43.0743 20.9503 43.0743C19.9197 43.086 18.7371 42.786 17.9033 43.1951C17.0694 43.6042 16.5863 44.7225 15.9492 45.5291C15.8557 45.6479 15.7738 45.7765 15.6725 45.8876C14.7841 46.85 14.4003 47.7325 14.8426 49.2268C15.729 52.2174 13.5314 55.0852 10.4454 55.4476C7.43146 55.8022 4.75068 53.476 4.66885 50.4387C4.58897 47.4013 7.10026 44.9816 10.1785 45.1472C10.5759 45.1687 11.0123 45.1998 11.3533 45.3752C12.0176 45.72 12.3644 45.4862 12.756 44.9368C13.7048 43.6062 14.7315 42.3301 15.6998 41.013C16.1421 40.413 16.6856 40.1266 17.4338 40.1539C18.3105 40.185 19.1891 40.1617 20.0697 40.1617C19.8379 39.0044 19.6294 37.8998 19.3742 36.8048C19.343 36.6704 19.0508 36.5087 18.8774 36.5087C16.1089 36.4912 13.3405 36.5087 10.574 36.4853C10.0655 36.4814 10.0441 36.838 9.90573 37.1419C8.99396 39.1369 7.06909 40.3019 4.87537 40.1889C2.79659 40.0818 0.965239 38.6985 0.283354 36.7191C-0.610891 34.1318 0.678848 31.2679 3.20377 30.2237C5.77156 29.1638 8.71536 30.2977 9.85508 32.8596C10.1064 33.4246 10.387 33.5727 10.9636 33.5649C13.4808 33.5357 15.9959 33.5513 18.5131 33.5513H19.269C19.532 32.3258 19.7833 31.1549 20.058 29.8788C19.1735 29.8788 18.3046 29.8554 17.4396 29.8866C16.6915 29.9139 16.146 29.6314 15.7037 29.0313C14.7043 27.6754 13.6542 26.3545 12.6664 24.9887C12.3352 24.5309 12.0644 24.4198 11.5013 24.6205C8.7816 25.5849 5.85923 24.1218 4.9494 21.3942C4.03178 18.6472 5.53193 15.6722 8.277 14.7994C11.0474 13.9169 13.9659 15.4482 14.8192 18.2244C15.2069 19.4849 15.1134 20.7182 14.5542 21.8969C14.3711 22.2826 14.4159 22.5184 14.6614 22.832C15.6199 24.0614 16.5395 25.3219 17.5136 26.5415C17.6851 26.7558 18.0358 26.9214 18.3144 26.937C19.193 26.9876 20.0775 26.9935 20.9542 26.9331C21.2445 26.9136 21.6225 26.711 21.7822 26.4713C23.0428 24.5796 24.613 23.0171 26.5009 21.7546C26.723 21.6066 26.912 21.2539 26.9295 20.9831C26.984 20.1064 26.9879 19.22 26.9295 18.3433C26.91 18.0471 26.7132 17.6828 26.4795 17.4958C25.3008 16.5528 24.0675 15.68 22.8888 14.7371C22.4933 14.4195 22.2011 14.4234 21.753 14.6221C19.8048 15.4891 17.6071 15.0702 16.0992 13.5993C14.5854 12.1225 14.1198 9.84503 14.9303 7.89094C15.7329 5.95828 17.6344 4.68608 19.7249 4.68608C23.261 4.68608 25.7742 8.15785 24.6091 11.4991C24.3987 12.1011 24.5351 12.3777 25.0085 12.7167C26.2749 13.6266 27.475 14.628 28.757 15.5144C29.5947 16.095 29.961 16.7964 29.8772 17.8056C29.8168 18.5284 29.8655 19.2609 29.8655 20.0421C31.0987 19.7733 32.2794 19.5181 33.5379 19.2434C33.5379 18.0043 33.5379 16.7516 33.5379 15.4988C33.5379 13.9383 33.5185 12.3777 33.5496 10.8192C33.5594 10.3457 33.4074 10.1295 32.9671 9.93855C30.6506 8.9313 29.4096 6.53496 29.9181 4.14836C30.4208 1.77345 32.5268 0.035618 34.9329 0.000549646C37.3487 -0.0345188 39.4528 1.61175 40.049 4.00224C40.6451 6.39079 39.4236 8.89234 37.1032 9.90153C36.5928 10.1236 36.4623 10.3847 36.4662 10.8971C36.4876 13.6636 36.4759 16.4301 36.4759 19.2317C37.6916 19.5005 38.88 19.7635 40.1464 20.0441C40.1464 19.1557 40.1659 18.2809 40.1405 17.4101C40.1191 16.6912 40.3899 16.1632 40.9666 15.7365C42.3421 14.7215 43.6883 13.6636 45.0716 12.6563C45.4982 12.3466 45.6171 12.0953 45.4203 11.5517C44.4208 8.76765 45.9249 5.81022 48.7362 4.92766C51.5339 4.049 54.4894 5.62903 55.2628 8.46762C55.822 10.5172 55.3096 12.3349 53.7237 13.7435C52.1398 15.1501 50.287 15.4618 48.3154 14.6358C47.8127 14.4254 47.4815 14.4312 47.049 14.7819C45.9151 15.6995 44.715 16.5334 43.5831 17.4549C43.3201 17.6692 43.1097 18.0881 43.0863 18.427C43.0201 19.3525 42.796 20.4084 43.1447 21.1838C43.4818 21.9319 44.5105 22.343 45.1358 22.9957C46.1918 24.0984 47.1932 25.2576 48.1654 26.4382C48.4498 26.7831 48.6914 26.9759 49.1473 26.9565C50.1506 26.9136 51.304 27.2234 52.1184 26.822C52.9308 26.4226 53.4062 25.3355 54.0218 24.5426C54.4231 24.0263 54.7855 23.4769 55.22 22.9898C55.5823 22.5827 55.6135 22.2398 55.3934 21.7274C54.2088 18.9648 55.6057 15.8261 58.4151 14.8364C61.2011 13.8545 64.2462 15.3819 65.0937 18.2244C65.6937 20.2389 65.2203 22.0332 63.7163 23.4788C62.2317 24.9069 60.4374 25.2888 58.4833 24.6069C57.9611 24.4237 57.6942 24.49 57.3728 24.9361C56.387 26.3019 55.333 27.6208 54.3413 28.9826C53.8854 29.608 53.3341 29.9158 52.5528 29.8847C51.7014 29.8496 50.8481 29.8769 49.9811 29.8769C50.2032 31.038 50.4 32.1427 50.6455 33.2357C50.6747 33.3701 50.965 33.5337 51.1364 33.5357C53.9049 33.5552 56.6734 33.5357 59.4399 33.5591C59.9523 33.563 59.9639 33.1967 60.1023 32.8967C61.0822 30.7575 63.2039 29.5944 65.5866 29.8886C67.7257 30.1535 69.5201 31.9128 69.9195 34.1338C70.3715 36.6509 68.8811 39.1486 66.4438 39.9532C63.9695 40.7695 61.2732 39.6395 60.1821 37.249C59.9055 36.6431 59.6016 36.4678 58.9625 36.4775C56.422 36.5184 53.8796 36.5107 51.3371 36.4814C50.7838 36.4756 50.6221 36.6587 50.5422 37.1906C50.4 38.155 50.1467 39.1018 49.9168 40.1617C50.5851 40.1617 51.2553 40.226 51.9099 40.148C53.1899 39.9941 54.0432 40.5026 54.7387 41.5644C55.5103 42.7392 56.4474 43.8049 57.2559 44.9563C57.6241 45.4823 57.928 45.6304 58.5924 45.4044C61.3258 44.4751 64.2189 46.0006 65.0839 48.7476C65.9451 51.4829 64.4293 54.4033 61.7076 55.2528C58.9314 56.1197 56.0149 54.5767 55.1791 51.8005C54.7991 50.54 54.9414 49.3262 55.4323 48.1163C55.5278 47.8806 55.4908 47.4773 55.3446 47.2747C54.4212 45.9869 53.4646 44.7225 52.4788 43.4834C52.3093 43.2711 51.9489 43.2087 51.6761 43.0782C51.6547 43.0684 51.6255 43.0782 51.6021 43.0782C50.6455 43.0782 49.5681 42.8054 48.7674 43.16C47.9978 43.5029 47.5673 44.5472 46.8971 45.1881C45.8489 46.1934 44.7462 47.15 43.6182 48.0657C43.2538 48.3618 43.0239 48.5976 43.0493 49.0963C43.1019 50.123 42.7804 51.3076 43.1915 52.1414C43.6026 52.9733 44.7209 53.4584 45.5294 54.0936C45.6677 54.2027 45.8197 54.2962 45.9502 54.4111C46.8815 55.2333 47.6958 55.6658 49.159 55.1963C51.945 54.302 54.7933 56.2717 55.3622 59.0811C55.935 61.908 54.1387 64.6725 51.3624 65.2317C48.4518 65.8181 45.6989 64.0257 45.2196 61.0955C45.0755 60.2169 45.2898 59.2584 45.4651 58.3602C45.545 57.9472 45.5333 57.7426 45.1923 57.4913C43.7955 56.4607 42.4336 55.3833 41.0328 54.3585C40.4075 53.9007 40.1035 53.3493 40.1328 52.5681C40.1678 51.6894 40.1405 50.8108 40.1405 49.899C38.9307 50.162 37.7676 50.4153 36.509 50.69C36.4993 50.8653 36.472 51.1069 36.472 51.3485C36.4681 53.965 36.4837 56.5834 36.4584 59.1999C36.4525 59.7064 36.6103 59.9247 37.0818 60.1292C39.3515 61.1131 40.5808 63.5075 40.0918 65.8726C39.595 68.2729 37.4598 70.0263 35.0225 70.0399C32.595 70.0516 30.4383 68.3138 29.9142 65.9194C29.3921 63.5406 30.6409 61.1326 32.934 60.1058C33.2554 59.9617 33.5457 59.8857 33.5418 59.4006C33.5146 56.6068 33.5282 53.815 33.5263 51.0212C33.5263 50.9004 33.4951 50.7815 33.4834 50.69L33.4853 50.6802ZM34.9972 47.7579C42.0654 47.7637 47.7971 42.0378 47.8244 34.9482C47.8498 27.9481 42.0907 22.1852 35.0498 22.1696C27.9991 22.154 22.205 27.8682 22.1855 34.8605C22.166 41.9833 27.8958 47.752 34.9991 47.7579H34.9972ZM35.0147 7.47986C36.2421 7.47012 37.2669 6.43755 37.2727 5.20626C37.2786 3.94185 36.2168 2.90149 34.9524 2.93266C33.7152 2.96188 32.7177 3.9964 32.7353 5.23159C32.7528 6.46288 33.7932 7.4896 35.0167 7.47986H35.0147ZM17.4649 9.8801C17.4669 11.1406 18.4546 12.1362 19.7093 12.144C20.9464 12.1518 21.9771 11.1426 21.9985 9.90543C22.0199 8.63907 20.9737 7.59286 19.6996 7.6065C18.4429 7.62013 17.4649 8.61569 17.4669 9.87815L17.4649 9.8801ZM17.4649 60.1584C17.4649 61.4209 18.4507 62.4126 19.7093 62.4204C20.9523 62.4282 21.9771 61.4287 21.9985 60.1877C22.0219 58.9252 20.9698 57.8731 19.6996 57.8848C18.4488 57.8965 17.4649 58.8979 17.4649 60.1604V60.1584ZM52.5411 9.84698C52.5294 8.58841 51.5339 7.6026 50.2753 7.60844C49.0284 7.61429 48.0154 8.62153 48.0076 9.86256C47.9998 11.125 49.0655 12.1712 50.3279 12.144C51.5845 12.1167 52.5509 11.1133 52.5392 9.84698H52.5411ZM60.1471 17.4763C58.8846 17.4744 57.8891 18.4524 57.8735 19.7109C57.8579 20.9754 58.9177 22.0332 60.1744 22.0118C61.4134 21.9904 62.4148 20.9637 62.407 19.7207C62.3992 18.4641 61.4076 17.4783 60.1451 17.4763H60.1471ZM7.46653 35.028C7.47627 33.8045 6.44955 32.7642 5.21826 32.7466C3.97917 32.7291 2.94855 33.7227 2.91933 34.9637C2.89011 36.2301 3.92657 37.29 5.19098 37.2841C6.42033 37.2802 7.45679 36.2535 7.46653 35.028V35.028ZM60.1412 52.5544C61.4017 52.5544 62.3973 51.5706 62.407 50.314C62.4168 49.0398 61.3667 47.9956 60.1042 48.0189C58.8632 48.0423 57.8637 49.071 57.8735 50.314C57.8832 51.5686 58.8807 52.5544 60.1412 52.5544ZM52.5392 60.1896C52.5548 58.9233 51.5962 57.9199 50.3357 57.8868C49.0713 57.8537 48.0037 58.8921 48.0037 60.1565C48.0037 61.3956 49.0168 62.4087 50.2636 62.4184C51.5202 62.4301 52.5216 61.4482 52.5372 60.1896H52.5392ZM34.9913 62.5509C33.7639 62.5567 32.7372 63.5893 32.7333 64.8206C32.7294 66.0597 33.7347 67.0825 34.9738 67.0981C36.2402 67.1137 37.2883 66.0675 37.2708 64.8011C37.2552 63.5698 36.2168 62.547 34.9913 62.5509V62.5509ZM67.0848 34.993C67.0711 33.7519 66.0522 32.7427 64.8151 32.7466C63.5818 32.7505 62.5512 33.7695 62.5376 34.9988C62.5239 36.2476 63.5955 37.3016 64.8579 37.2841C66.0912 37.2666 67.0984 36.2301 67.0848 34.993V34.993ZM12.1228 19.6837C12.1053 18.4348 11.0981 17.4646 9.8317 17.4783C8.57314 17.4919 7.59317 18.4855 7.59901 19.7421C7.60486 20.987 8.61405 22.004 9.84924 22.0099C11.1039 22.0157 12.1404 20.9559 12.1228 19.6837V19.6837ZM9.82781 52.5525C11.0922 52.5681 12.1034 51.5979 12.1267 50.349C12.1501 49.0749 11.1175 48.0131 9.85898 48.017C8.61989 48.0209 7.61265 49.0301 7.60096 50.2789C7.58927 51.5336 8.57508 52.5369 9.82975 52.5525H9.82781Z" fill="#CCCCCC"/>
<path d="M41.1341 34.9676C41.9407 36.0255 42.3499 37.1516 42.1355 38.453C41.892 39.9298 41.0874 40.9994 39.7567 41.6384C39.3262 41.8449 39.1508 42.0709 39.1937 42.5405C39.2249 42.8853 39.2073 43.2496 39.1352 43.5886C38.9774 44.3289 38.3969 44.7478 37.6585 44.7166C36.963 44.6874 36.433 44.2393 36.3181 43.5165C36.2479 43.0782 36.2538 42.6262 36.2246 42.145H34.1964C34.1185 43.2672 34.3835 44.6524 32.6476 44.705C31.7007 44.7322 31.4358 44.2257 31.1728 42.106C30.5649 42.106 29.9415 42.1216 29.32 42.1021C28.4043 42.0729 27.8315 41.4981 27.8315 40.6448C27.8315 39.7837 28.3887 39.2401 29.3258 39.207C29.8246 39.1895 30.3253 39.2031 30.8903 39.2031V30.7282C30.3935 30.7282 29.8986 30.7438 29.4057 30.7244C28.4472 30.6873 27.8159 30.0931 27.8198 29.2573C27.8237 28.4254 28.4628 27.8332 29.4174 27.802C29.9921 27.7825 30.5669 27.7981 31.2215 27.7981C31.276 26.633 31.0598 25.1874 32.7586 25.2206C34.3582 25.2517 34.1477 26.633 34.1809 27.7513H36.2304C36.2499 27.3344 36.246 26.937 36.2889 26.5473C36.3824 25.7213 36.961 25.1894 37.7306 25.1874C38.4962 25.1874 39.2151 25.7329 39.1586 26.5356C39.0787 27.6422 39.5619 28.1527 40.4484 28.7216C42.2817 29.9002 42.7142 32.4076 41.592 34.2818C41.4634 34.4962 41.3134 34.6988 41.138 34.9598L41.1341 34.9676ZM33.949 36.4347V39.1875C35.3381 39.1875 36.6668 39.2265 37.9916 39.1719C38.7651 39.1408 39.2463 38.5543 39.2599 37.8354C39.2736 37.1068 38.8079 36.4873 38.0501 36.4522C36.7019 36.3918 35.3498 36.4347 33.951 36.4347H33.949ZM33.9295 33.485C35.342 33.485 36.7194 33.524 38.0929 33.4694C38.7846 33.4422 39.256 32.8051 39.256 32.1173C39.256 31.4433 38.8255 30.8218 38.165 30.7945C36.7681 30.736 35.3673 30.777 33.9276 30.777V33.487L33.9295 33.485Z" fill="#CCCCCC"/>
</svg>
